M48
; DRILL file {KiCad (7.0.0)} date Thu Mar  9 18:41:32 2023
; FORMAT={-:-/ absolute / inch / decimal}
; #@! TF.CreationDate,2023-03-09T18:41:32-05:00
; #@! TF.GenerationSoftware,Kicad,Pcbnew,(7.0.0)
; #@! TF.FileFunction,Plated,1,2,PTH
FMAT,2
INCH
; #@! TA.AperFunction,Plated,PTH,ViaDrill
T1C0.0157
; #@! TA.AperFunction,Plated,PTH,ComponentDrill
T2C0.0394
; #@! TA.AperFunction,Plated,PTH,ComponentDrill
T3C0.0402
; #@! TA.AperFunction,Plated,PTH,ComponentDrill
T4C0.0472
; #@! TA.AperFunction,Plated,PTH,ComponentDrill
T5C0.0606
%
G90
G05
T1
X4.2696Y-4.0501
X4.2699Y-2.8565
X6.3016Y-4.0497
X6.3021Y-2.8565
T2
X4.2Y-3.0
X4.2Y-3.9
X4.2136Y-3.2816
X4.2136Y-3.5364
X4.2154Y-3.7932
X4.2942Y-3.1004
X4.2942Y-3.3551
X4.2959Y-3.6119
X4.3Y-3.0
X4.3Y-3.9
X4.4Y-3.0
X4.4Y-3.9
X4.5Y-3.0
X4.5Y-3.9
X4.5534Y-3.1907
X4.5534Y-3.4454
X4.5552Y-3.7022
X4.6Y-3.0
X4.6Y-3.9
X4.7Y-3.0
X4.7Y-3.9
X4.8Y-3.0
X4.8Y-3.9
X4.9Y-3.0
X4.9Y-3.9
X5.0Y-3.0
X5.0Y-3.9
X5.1Y-3.0
X5.1Y-3.9
X5.2Y-3.0
X5.2Y-3.9
X5.2119Y-3.3447
X5.2119Y-3.4447
X5.2119Y-3.5447
X5.3Y-3.0
X5.3Y-3.9
X5.4Y-3.0
X5.4Y-3.9
X5.4472Y-3.2943
X5.4482Y-3.593
X5.4484Y-3.1601
X5.4485Y-3.7311
X5.5Y-3.0
X5.5Y-3.9
X5.6Y-3.0
X5.6Y-3.9
X5.7Y-3.0
X5.7Y-3.9
X5.8Y-3.0
X5.8Y-3.9
X5.9Y-3.0
X5.9Y-3.9
X6.0Y-3.0
X6.0Y-3.9
X6.1499Y-3.1959
X6.1499Y-3.2959
X6.1499Y-3.3959
X6.1499Y-3.4959
X6.1499Y-3.5959
X6.1499Y-3.6959
X6.3479Y-3.1715
X6.3485Y-3.7315
T3
X4.1996Y-2.9996
X4.1996Y-3.8996
X4.2996Y-2.9996
X4.2996Y-3.8996
X4.3996Y-2.9996
X4.3996Y-3.8996
X4.4996Y-2.9996
X4.4996Y-3.8996
X4.5996Y-2.9996
X4.5996Y-3.8996
X4.6996Y-2.9996
X4.6996Y-3.8996
X4.7996Y-2.9996
X4.7996Y-3.8996
X4.8996Y-2.9996
X4.8996Y-3.8996
X4.9996Y-2.9996
X4.9996Y-3.8996
X5.0996Y-2.9996
X5.0996Y-3.8996
X5.1996Y-2.9996
X5.1996Y-3.8996
X5.2996Y-2.9996
X5.2996Y-3.8996
X5.3996Y-2.9996
X5.3996Y-3.8996
X5.4996Y-2.9996
X5.4996Y-3.8996
X5.5996Y-2.9996
X5.5996Y-3.8996
X5.6996Y-2.9996
X5.6996Y-3.8996
X5.7996Y-2.9996
X5.7996Y-3.8996
X5.8996Y-2.9996
X5.8996Y-3.8996
X5.9996Y-2.9996
X5.9996Y-3.8996
T4
X5.8765Y-3.1933
X5.8765Y-3.3933
T5
X5.4476Y-3.1602
X5.4476Y-3.2941
X5.4476Y-3.5933
X5.4476Y-3.7311
X6.3491Y-3.172
X6.3491Y-3.7311
T0
M30
