%TF.GenerationSoftware,KiCad,Pcbnew,(7.0.0)*%
%TF.CreationDate,2023-03-09T18:41:40-05:00*%
%TF.ProjectId,Intervalometer,496e7465-7276-4616-9c6f-6d657465722e,rev?*%
%TF.SameCoordinates,Original*%
%TF.FileFunction,Legend,Top*%
%TF.FilePolarity,Positive*%
%FSLAX46Y46*%
G04 Gerber Fmt 4.6, Leading zero omitted, Abs format (unit mm)*
G04 Created by KiCad (PCBNEW (7.0.0)) date 2023-03-09 18:41:40*
%MOMM*%
%LPD*%
G01*
G04 APERTURE LIST*
%ADD10C,0.150000*%
%ADD11C,0.127000*%
%ADD12C,0.120000*%
%ADD13C,0.200000*%
G04 APERTURE END LIST*
D10*
X123474113Y-82457696D02*
X133634113Y-82457696D01*
X133634113Y-82457696D02*
X133634113Y-92617696D01*
X133634113Y-92617696D02*
X123474113Y-92617696D01*
X123474113Y-92617696D02*
X123474113Y-82457696D01*
X146802248Y-85024696D02*
X147564153Y-85024696D01*
X147183200Y-85405648D02*
X147183200Y-84643744D01*
X146736522Y-79865223D02*
X147498427Y-79865223D01*
X148666069Y-83596011D02*
X148808926Y-83643630D01*
X148808926Y-83643630D02*
X148856545Y-83691249D01*
X148856545Y-83691249D02*
X148904164Y-83786487D01*
X148904164Y-83786487D02*
X148904164Y-83929344D01*
X148904164Y-83929344D02*
X148856545Y-84024582D01*
X148856545Y-84024582D02*
X148808926Y-84072201D01*
X148808926Y-84072201D02*
X148713688Y-84119820D01*
X148713688Y-84119820D02*
X148332736Y-84119820D01*
X148332736Y-84119820D02*
X148332736Y-83119820D01*
X148332736Y-83119820D02*
X148666069Y-83119820D01*
X148666069Y-83119820D02*
X148761307Y-83167440D01*
X148761307Y-83167440D02*
X148808926Y-83215059D01*
X148808926Y-83215059D02*
X148856545Y-83310297D01*
X148856545Y-83310297D02*
X148856545Y-83405535D01*
X148856545Y-83405535D02*
X148808926Y-83500773D01*
X148808926Y-83500773D02*
X148761307Y-83548392D01*
X148761307Y-83548392D02*
X148666069Y-83596011D01*
X148666069Y-83596011D02*
X148332736Y-83596011D01*
X149761307Y-84119820D02*
X149761307Y-83596011D01*
X149761307Y-83596011D02*
X149713688Y-83500773D01*
X149713688Y-83500773D02*
X149618450Y-83453154D01*
X149618450Y-83453154D02*
X149427974Y-83453154D01*
X149427974Y-83453154D02*
X149332736Y-83500773D01*
X149761307Y-84072201D02*
X149666069Y-84119820D01*
X149666069Y-84119820D02*
X149427974Y-84119820D01*
X149427974Y-84119820D02*
X149332736Y-84072201D01*
X149332736Y-84072201D02*
X149285117Y-83976963D01*
X149285117Y-83976963D02*
X149285117Y-83881725D01*
X149285117Y-83881725D02*
X149332736Y-83786487D01*
X149332736Y-83786487D02*
X149427974Y-83738868D01*
X149427974Y-83738868D02*
X149666069Y-83738868D01*
X149666069Y-83738868D02*
X149761307Y-83691249D01*
X150094641Y-83453154D02*
X150475593Y-83453154D01*
X150237498Y-83119820D02*
X150237498Y-83976963D01*
X150237498Y-83976963D02*
X150285117Y-84072201D01*
X150285117Y-84072201D02*
X150380355Y-84119820D01*
X150380355Y-84119820D02*
X150475593Y-84119820D01*
X128037715Y-89810931D02*
X128037715Y-90477597D01*
X127799620Y-89429978D02*
X127561525Y-90144264D01*
X127561525Y-90144264D02*
X128180572Y-90144264D01*
X128561525Y-90382359D02*
X128609144Y-90429978D01*
X128609144Y-90429978D02*
X128561525Y-90477597D01*
X128561525Y-90477597D02*
X128513906Y-90429978D01*
X128513906Y-90429978D02*
X128561525Y-90382359D01*
X128561525Y-90382359D02*
X128561525Y-90477597D01*
X128990096Y-89572836D02*
X129037715Y-89525217D01*
X129037715Y-89525217D02*
X129132953Y-89477597D01*
X129132953Y-89477597D02*
X129371048Y-89477597D01*
X129371048Y-89477597D02*
X129466286Y-89525217D01*
X129466286Y-89525217D02*
X129513905Y-89572836D01*
X129513905Y-89572836D02*
X129561524Y-89668074D01*
X129561524Y-89668074D02*
X129561524Y-89763312D01*
X129561524Y-89763312D02*
X129513905Y-89906169D01*
X129513905Y-89906169D02*
X128942477Y-90477597D01*
X128942477Y-90477597D02*
X129561524Y-90477597D01*
X129847239Y-89477597D02*
X130180572Y-90477597D01*
X130180572Y-90477597D02*
X130513905Y-89477597D01*
X129564164Y-84548164D02*
X129087974Y-84548164D01*
X129087974Y-84548164D02*
X129040355Y-85024355D01*
X129040355Y-85024355D02*
X129087974Y-84976736D01*
X129087974Y-84976736D02*
X129183212Y-84929117D01*
X129183212Y-84929117D02*
X129421307Y-84929117D01*
X129421307Y-84929117D02*
X129516545Y-84976736D01*
X129516545Y-84976736D02*
X129564164Y-85024355D01*
X129564164Y-85024355D02*
X129611783Y-85119593D01*
X129611783Y-85119593D02*
X129611783Y-85357688D01*
X129611783Y-85357688D02*
X129564164Y-85452926D01*
X129564164Y-85452926D02*
X129516545Y-85500545D01*
X129516545Y-85500545D02*
X129421307Y-85548164D01*
X129421307Y-85548164D02*
X129183212Y-85548164D01*
X129183212Y-85548164D02*
X129087974Y-85500545D01*
X129087974Y-85500545D02*
X129040355Y-85452926D01*
X129897498Y-84548164D02*
X130230831Y-85548164D01*
X130230831Y-85548164D02*
X130564164Y-84548164D01*
X128527308Y-87011206D02*
X128432070Y-86963586D01*
X128432070Y-86963586D02*
X128289213Y-86963586D01*
X128289213Y-86963586D02*
X128146356Y-87011206D01*
X128146356Y-87011206D02*
X128051118Y-87106444D01*
X128051118Y-87106444D02*
X128003499Y-87201682D01*
X128003499Y-87201682D02*
X127955880Y-87392158D01*
X127955880Y-87392158D02*
X127955880Y-87535015D01*
X127955880Y-87535015D02*
X128003499Y-87725491D01*
X128003499Y-87725491D02*
X128051118Y-87820729D01*
X128051118Y-87820729D02*
X128146356Y-87915967D01*
X128146356Y-87915967D02*
X128289213Y-87963586D01*
X128289213Y-87963586D02*
X128384451Y-87963586D01*
X128384451Y-87963586D02*
X128527308Y-87915967D01*
X128527308Y-87915967D02*
X128574927Y-87868348D01*
X128574927Y-87868348D02*
X128574927Y-87535015D01*
X128574927Y-87535015D02*
X128384451Y-87535015D01*
X129003499Y-87963586D02*
X129003499Y-86963586D01*
X129003499Y-86963586D02*
X129574927Y-87963586D01*
X129574927Y-87963586D02*
X129574927Y-86963586D01*
X130051118Y-87963586D02*
X130051118Y-86963586D01*
X130051118Y-86963586D02*
X130289213Y-86963586D01*
X130289213Y-86963586D02*
X130432070Y-87011206D01*
X130432070Y-87011206D02*
X130527308Y-87106444D01*
X130527308Y-87106444D02*
X130574927Y-87201682D01*
X130574927Y-87201682D02*
X130622546Y-87392158D01*
X130622546Y-87392158D02*
X130622546Y-87535015D01*
X130622546Y-87535015D02*
X130574927Y-87725491D01*
X130574927Y-87725491D02*
X130527308Y-87820729D01*
X130527308Y-87820729D02*
X130432070Y-87915967D01*
X130432070Y-87915967D02*
X130289213Y-87963586D01*
X130289213Y-87963586D02*
X130051118Y-87963586D01*
X125042161Y-92186322D02*
X125089780Y-92043465D01*
X125089780Y-92043465D02*
X125089780Y-91805370D01*
X125089780Y-91805370D02*
X125042161Y-91710132D01*
X125042161Y-91710132D02*
X124994542Y-91662513D01*
X124994542Y-91662513D02*
X124899304Y-91614894D01*
X124899304Y-91614894D02*
X124804066Y-91614894D01*
X124804066Y-91614894D02*
X124708828Y-91662513D01*
X124708828Y-91662513D02*
X124661209Y-91710132D01*
X124661209Y-91710132D02*
X124613590Y-91805370D01*
X124613590Y-91805370D02*
X124565971Y-91995846D01*
X124565971Y-91995846D02*
X124518352Y-92091084D01*
X124518352Y-92091084D02*
X124470733Y-92138703D01*
X124470733Y-92138703D02*
X124375495Y-92186322D01*
X124375495Y-92186322D02*
X124280257Y-92186322D01*
X124280257Y-92186322D02*
X124185019Y-92138703D01*
X124185019Y-92138703D02*
X124137400Y-92091084D01*
X124137400Y-92091084D02*
X124089780Y-91995846D01*
X124089780Y-91995846D02*
X124089780Y-91757751D01*
X124089780Y-91757751D02*
X124137400Y-91614894D01*
X124423114Y-91329179D02*
X124423114Y-90948227D01*
X124089780Y-91186322D02*
X124946923Y-91186322D01*
X124946923Y-91186322D02*
X125042161Y-91138703D01*
X125042161Y-91138703D02*
X125089780Y-91043465D01*
X125089780Y-91043465D02*
X125089780Y-90948227D01*
X125042161Y-90233941D02*
X125089780Y-90329179D01*
X125089780Y-90329179D02*
X125089780Y-90519655D01*
X125089780Y-90519655D02*
X125042161Y-90614893D01*
X125042161Y-90614893D02*
X124946923Y-90662512D01*
X124946923Y-90662512D02*
X124565971Y-90662512D01*
X124565971Y-90662512D02*
X124470733Y-90614893D01*
X124470733Y-90614893D02*
X124423114Y-90519655D01*
X124423114Y-90519655D02*
X124423114Y-90329179D01*
X124423114Y-90329179D02*
X124470733Y-90233941D01*
X124470733Y-90233941D02*
X124565971Y-90186322D01*
X124565971Y-90186322D02*
X124661209Y-90186322D01*
X124661209Y-90186322D02*
X124756447Y-90662512D01*
X124423114Y-89757750D02*
X125423114Y-89757750D01*
X124470733Y-89757750D02*
X124423114Y-89662512D01*
X124423114Y-89662512D02*
X124423114Y-89472036D01*
X124423114Y-89472036D02*
X124470733Y-89376798D01*
X124470733Y-89376798D02*
X124518352Y-89329179D01*
X124518352Y-89329179D02*
X124613590Y-89281560D01*
X124613590Y-89281560D02*
X124899304Y-89281560D01*
X124899304Y-89281560D02*
X124994542Y-89329179D01*
X124994542Y-89329179D02*
X125042161Y-89376798D01*
X125042161Y-89376798D02*
X125089780Y-89472036D01*
X125089780Y-89472036D02*
X125089780Y-89662512D01*
X125089780Y-89662512D02*
X125042161Y-89757750D01*
X124089780Y-88252988D02*
X124899304Y-88252988D01*
X124899304Y-88252988D02*
X124994542Y-88205369D01*
X124994542Y-88205369D02*
X125042161Y-88157750D01*
X125042161Y-88157750D02*
X125089780Y-88062512D01*
X125089780Y-88062512D02*
X125089780Y-87872036D01*
X125089780Y-87872036D02*
X125042161Y-87776798D01*
X125042161Y-87776798D02*
X124994542Y-87729179D01*
X124994542Y-87729179D02*
X124899304Y-87681560D01*
X124899304Y-87681560D02*
X124089780Y-87681560D01*
X124423114Y-87205369D02*
X125423114Y-87205369D01*
X124470733Y-87205369D02*
X124423114Y-87110131D01*
X124423114Y-87110131D02*
X124423114Y-86919655D01*
X124423114Y-86919655D02*
X124470733Y-86824417D01*
X124470733Y-86824417D02*
X124518352Y-86776798D01*
X124518352Y-86776798D02*
X124613590Y-86729179D01*
X124613590Y-86729179D02*
X124899304Y-86729179D01*
X124899304Y-86729179D02*
X124994542Y-86776798D01*
X124994542Y-86776798D02*
X125042161Y-86824417D01*
X125042161Y-86824417D02*
X125089780Y-86919655D01*
X125089780Y-86919655D02*
X125089780Y-87110131D01*
X125089780Y-87110131D02*
X125042161Y-87205369D01*
X125089780Y-85224417D02*
X125089780Y-85700607D01*
X125089780Y-85700607D02*
X124089780Y-85700607D01*
X125089780Y-84891083D02*
X124089780Y-84891083D01*
X125089780Y-84414893D02*
X124089780Y-84414893D01*
X124089780Y-84414893D02*
X124089780Y-84033941D01*
X124089780Y-84033941D02*
X124137400Y-83938703D01*
X124137400Y-83938703D02*
X124185019Y-83891084D01*
X124185019Y-83891084D02*
X124280257Y-83843465D01*
X124280257Y-83843465D02*
X124423114Y-83843465D01*
X124423114Y-83843465D02*
X124518352Y-83891084D01*
X124518352Y-83891084D02*
X124565971Y-83938703D01*
X124565971Y-83938703D02*
X124613590Y-84033941D01*
X124613590Y-84033941D02*
X124613590Y-84414893D01*
X124089780Y-83224417D02*
X124089780Y-83033941D01*
X124089780Y-83033941D02*
X124137400Y-82938703D01*
X124137400Y-82938703D02*
X124232638Y-82843465D01*
X124232638Y-82843465D02*
X124423114Y-82795846D01*
X124423114Y-82795846D02*
X124756447Y-82795846D01*
X124756447Y-82795846D02*
X124946923Y-82843465D01*
X124946923Y-82843465D02*
X125042161Y-82938703D01*
X125042161Y-82938703D02*
X125089780Y-83033941D01*
X125089780Y-83033941D02*
X125089780Y-83224417D01*
X125089780Y-83224417D02*
X125042161Y-83319655D01*
X125042161Y-83319655D02*
X124946923Y-83414893D01*
X124946923Y-83414893D02*
X124756447Y-83462512D01*
X124756447Y-83462512D02*
X124423114Y-83462512D01*
X124423114Y-83462512D02*
X124232638Y-83414893D01*
X124232638Y-83414893D02*
X124137400Y-83319655D01*
X124137400Y-83319655D02*
X124089780Y-83224417D01*
X126043114Y-91091084D02*
X126709780Y-91091084D01*
X125662161Y-91329179D02*
X126376447Y-91567274D01*
X126376447Y-91567274D02*
X126376447Y-90948227D01*
X126614542Y-90567274D02*
X126662161Y-90519655D01*
X126662161Y-90519655D02*
X126709780Y-90567274D01*
X126709780Y-90567274D02*
X126662161Y-90614893D01*
X126662161Y-90614893D02*
X126614542Y-90567274D01*
X126614542Y-90567274D02*
X126709780Y-90567274D01*
X125805019Y-90138703D02*
X125757400Y-90091084D01*
X125757400Y-90091084D02*
X125709780Y-89995846D01*
X125709780Y-89995846D02*
X125709780Y-89757751D01*
X125709780Y-89757751D02*
X125757400Y-89662513D01*
X125757400Y-89662513D02*
X125805019Y-89614894D01*
X125805019Y-89614894D02*
X125900257Y-89567275D01*
X125900257Y-89567275D02*
X125995495Y-89567275D01*
X125995495Y-89567275D02*
X126138352Y-89614894D01*
X126138352Y-89614894D02*
X126709780Y-90186322D01*
X126709780Y-90186322D02*
X126709780Y-89567275D01*
X126043114Y-89233941D02*
X126709780Y-88995846D01*
X126709780Y-88995846D02*
X126043114Y-88757751D01*
X126328828Y-87776798D02*
X126328828Y-87014894D01*
X126043114Y-86538703D02*
X126328828Y-85776799D01*
X126328828Y-85776799D02*
X126614542Y-86538703D01*
X125709780Y-84224418D02*
X125709780Y-84700608D01*
X125709780Y-84700608D02*
X126185971Y-84748227D01*
X126185971Y-84748227D02*
X126138352Y-84700608D01*
X126138352Y-84700608D02*
X126090733Y-84605370D01*
X126090733Y-84605370D02*
X126090733Y-84367275D01*
X126090733Y-84367275D02*
X126138352Y-84272037D01*
X126138352Y-84272037D02*
X126185971Y-84224418D01*
X126185971Y-84224418D02*
X126281209Y-84176799D01*
X126281209Y-84176799D02*
X126519304Y-84176799D01*
X126519304Y-84176799D02*
X126614542Y-84224418D01*
X126614542Y-84224418D02*
X126662161Y-84272037D01*
X126662161Y-84272037D02*
X126709780Y-84367275D01*
X126709780Y-84367275D02*
X126709780Y-84605370D01*
X126709780Y-84605370D02*
X126662161Y-84700608D01*
X126662161Y-84700608D02*
X126614542Y-84748227D01*
X126043114Y-83843465D02*
X126709780Y-83605370D01*
X126709780Y-83605370D02*
X126043114Y-83367275D01*
X152604551Y-89393400D02*
X152747408Y-89441019D01*
X152747408Y-89441019D02*
X152985503Y-89441019D01*
X152985503Y-89441019D02*
X153080741Y-89393400D01*
X153080741Y-89393400D02*
X153128360Y-89345781D01*
X153128360Y-89345781D02*
X153175979Y-89250543D01*
X153175979Y-89250543D02*
X153175979Y-89155305D01*
X153175979Y-89155305D02*
X153128360Y-89060067D01*
X153128360Y-89060067D02*
X153080741Y-89012448D01*
X153080741Y-89012448D02*
X152985503Y-88964829D01*
X152985503Y-88964829D02*
X152795027Y-88917210D01*
X152795027Y-88917210D02*
X152699789Y-88869591D01*
X152699789Y-88869591D02*
X152652170Y-88821972D01*
X152652170Y-88821972D02*
X152604551Y-88726734D01*
X152604551Y-88726734D02*
X152604551Y-88631496D01*
X152604551Y-88631496D02*
X152652170Y-88536258D01*
X152652170Y-88536258D02*
X152699789Y-88488639D01*
X152699789Y-88488639D02*
X152795027Y-88441019D01*
X152795027Y-88441019D02*
X153033122Y-88441019D01*
X153033122Y-88441019D02*
X153175979Y-88488639D01*
X154175979Y-89345781D02*
X154128360Y-89393400D01*
X154128360Y-89393400D02*
X153985503Y-89441019D01*
X153985503Y-89441019D02*
X153890265Y-89441019D01*
X153890265Y-89441019D02*
X153747408Y-89393400D01*
X153747408Y-89393400D02*
X153652170Y-89298162D01*
X153652170Y-89298162D02*
X153604551Y-89202924D01*
X153604551Y-89202924D02*
X153556932Y-89012448D01*
X153556932Y-89012448D02*
X153556932Y-88869591D01*
X153556932Y-88869591D02*
X153604551Y-88679115D01*
X153604551Y-88679115D02*
X153652170Y-88583877D01*
X153652170Y-88583877D02*
X153747408Y-88488639D01*
X153747408Y-88488639D02*
X153890265Y-88441019D01*
X153890265Y-88441019D02*
X153985503Y-88441019D01*
X153985503Y-88441019D02*
X154128360Y-88488639D01*
X154128360Y-88488639D02*
X154175979Y-88536258D01*
X155080741Y-89441019D02*
X154604551Y-89441019D01*
X154604551Y-89441019D02*
X154604551Y-88441019D01*
X152475765Y-86731828D02*
X152618622Y-86779447D01*
X152618622Y-86779447D02*
X152856717Y-86779447D01*
X152856717Y-86779447D02*
X152951955Y-86731828D01*
X152951955Y-86731828D02*
X152999574Y-86684209D01*
X152999574Y-86684209D02*
X153047193Y-86588971D01*
X153047193Y-86588971D02*
X153047193Y-86493733D01*
X153047193Y-86493733D02*
X152999574Y-86398495D01*
X152999574Y-86398495D02*
X152951955Y-86350876D01*
X152951955Y-86350876D02*
X152856717Y-86303257D01*
X152856717Y-86303257D02*
X152666241Y-86255638D01*
X152666241Y-86255638D02*
X152571003Y-86208019D01*
X152571003Y-86208019D02*
X152523384Y-86160400D01*
X152523384Y-86160400D02*
X152475765Y-86065162D01*
X152475765Y-86065162D02*
X152475765Y-85969924D01*
X152475765Y-85969924D02*
X152523384Y-85874686D01*
X152523384Y-85874686D02*
X152571003Y-85827067D01*
X152571003Y-85827067D02*
X152666241Y-85779447D01*
X152666241Y-85779447D02*
X152904336Y-85779447D01*
X152904336Y-85779447D02*
X153047193Y-85827067D01*
X153475765Y-86779447D02*
X153475765Y-85779447D01*
X153475765Y-85779447D02*
X153713860Y-85779447D01*
X153713860Y-85779447D02*
X153856717Y-85827067D01*
X153856717Y-85827067D02*
X153951955Y-85922305D01*
X153951955Y-85922305D02*
X153999574Y-86017543D01*
X153999574Y-86017543D02*
X154047193Y-86208019D01*
X154047193Y-86208019D02*
X154047193Y-86350876D01*
X154047193Y-86350876D02*
X153999574Y-86541352D01*
X153999574Y-86541352D02*
X153951955Y-86636590D01*
X153951955Y-86636590D02*
X153856717Y-86731828D01*
X153856717Y-86731828D02*
X153713860Y-86779447D01*
X153713860Y-86779447D02*
X153475765Y-86779447D01*
X154428146Y-86493733D02*
X154904336Y-86493733D01*
X154332908Y-86779447D02*
X154666241Y-85779447D01*
X154666241Y-85779447D02*
X154999574Y-86779447D01*
X152294670Y-83246660D02*
X152628003Y-84246660D01*
X152628003Y-84246660D02*
X152961336Y-83246660D01*
X153866098Y-84151422D02*
X153818479Y-84199041D01*
X153818479Y-84199041D02*
X153675622Y-84246660D01*
X153675622Y-84246660D02*
X153580384Y-84246660D01*
X153580384Y-84246660D02*
X153437527Y-84199041D01*
X153437527Y-84199041D02*
X153342289Y-84103803D01*
X153342289Y-84103803D02*
X153294670Y-84008565D01*
X153294670Y-84008565D02*
X153247051Y-83818089D01*
X153247051Y-83818089D02*
X153247051Y-83675232D01*
X153247051Y-83675232D02*
X153294670Y-83484756D01*
X153294670Y-83484756D02*
X153342289Y-83389518D01*
X153342289Y-83389518D02*
X153437527Y-83294280D01*
X153437527Y-83294280D02*
X153580384Y-83246660D01*
X153580384Y-83246660D02*
X153675622Y-83246660D01*
X153675622Y-83246660D02*
X153818479Y-83294280D01*
X153818479Y-83294280D02*
X153866098Y-83341899D01*
X154866098Y-84151422D02*
X154818479Y-84199041D01*
X154818479Y-84199041D02*
X154675622Y-84246660D01*
X154675622Y-84246660D02*
X154580384Y-84246660D01*
X154580384Y-84246660D02*
X154437527Y-84199041D01*
X154437527Y-84199041D02*
X154342289Y-84103803D01*
X154342289Y-84103803D02*
X154294670Y-84008565D01*
X154294670Y-84008565D02*
X154247051Y-83818089D01*
X154247051Y-83818089D02*
X154247051Y-83675232D01*
X154247051Y-83675232D02*
X154294670Y-83484756D01*
X154294670Y-83484756D02*
X154342289Y-83389518D01*
X154342289Y-83389518D02*
X154437527Y-83294280D01*
X154437527Y-83294280D02*
X154580384Y-83246660D01*
X154580384Y-83246660D02*
X154675622Y-83246660D01*
X154675622Y-83246660D02*
X154818479Y-83294280D01*
X154818479Y-83294280D02*
X154866098Y-83341899D01*
X152617907Y-80761493D02*
X152522669Y-80713873D01*
X152522669Y-80713873D02*
X152379812Y-80713873D01*
X152379812Y-80713873D02*
X152236955Y-80761493D01*
X152236955Y-80761493D02*
X152141717Y-80856731D01*
X152141717Y-80856731D02*
X152094098Y-80951969D01*
X152094098Y-80951969D02*
X152046479Y-81142445D01*
X152046479Y-81142445D02*
X152046479Y-81285302D01*
X152046479Y-81285302D02*
X152094098Y-81475778D01*
X152094098Y-81475778D02*
X152141717Y-81571016D01*
X152141717Y-81571016D02*
X152236955Y-81666254D01*
X152236955Y-81666254D02*
X152379812Y-81713873D01*
X152379812Y-81713873D02*
X152475050Y-81713873D01*
X152475050Y-81713873D02*
X152617907Y-81666254D01*
X152617907Y-81666254D02*
X152665526Y-81618635D01*
X152665526Y-81618635D02*
X152665526Y-81285302D01*
X152665526Y-81285302D02*
X152475050Y-81285302D01*
X153094098Y-81713873D02*
X153094098Y-80713873D01*
X153094098Y-80713873D02*
X153665526Y-81713873D01*
X153665526Y-81713873D02*
X153665526Y-80713873D01*
X154141717Y-81713873D02*
X154141717Y-80713873D01*
X154141717Y-80713873D02*
X154379812Y-80713873D01*
X154379812Y-80713873D02*
X154522669Y-80761493D01*
X154522669Y-80761493D02*
X154617907Y-80856731D01*
X154617907Y-80856731D02*
X154665526Y-80951969D01*
X154665526Y-80951969D02*
X154713145Y-81142445D01*
X154713145Y-81142445D02*
X154713145Y-81285302D01*
X154713145Y-81285302D02*
X154665526Y-81475778D01*
X154665526Y-81475778D02*
X154617907Y-81571016D01*
X154617907Y-81571016D02*
X154522669Y-81666254D01*
X154522669Y-81666254D02*
X154379812Y-81713873D01*
X154379812Y-81713873D02*
X154141717Y-81713873D01*
X158936243Y-90351616D02*
X158460053Y-90684949D01*
X158936243Y-90923044D02*
X157936243Y-90923044D01*
X157936243Y-90923044D02*
X157936243Y-90542092D01*
X157936243Y-90542092D02*
X157983863Y-90446854D01*
X157983863Y-90446854D02*
X158031482Y-90399235D01*
X158031482Y-90399235D02*
X158126720Y-90351616D01*
X158126720Y-90351616D02*
X158269577Y-90351616D01*
X158269577Y-90351616D02*
X158364815Y-90399235D01*
X158364815Y-90399235D02*
X158412434Y-90446854D01*
X158412434Y-90446854D02*
X158460053Y-90542092D01*
X158460053Y-90542092D02*
X158460053Y-90923044D01*
X157936243Y-90065901D02*
X157936243Y-89494473D01*
X158936243Y-89780187D02*
X157936243Y-89780187D01*
X158841005Y-88589711D02*
X158888624Y-88637330D01*
X158888624Y-88637330D02*
X158936243Y-88780187D01*
X158936243Y-88780187D02*
X158936243Y-88875425D01*
X158936243Y-88875425D02*
X158888624Y-89018282D01*
X158888624Y-89018282D02*
X158793386Y-89113520D01*
X158793386Y-89113520D02*
X158698148Y-89161139D01*
X158698148Y-89161139D02*
X158507672Y-89208758D01*
X158507672Y-89208758D02*
X158364815Y-89208758D01*
X158364815Y-89208758D02*
X158174339Y-89161139D01*
X158174339Y-89161139D02*
X158079101Y-89113520D01*
X158079101Y-89113520D02*
X157983863Y-89018282D01*
X157983863Y-89018282D02*
X157936243Y-88875425D01*
X157936243Y-88875425D02*
X157936243Y-88780187D01*
X157936243Y-88780187D02*
X157983863Y-88637330D01*
X157983863Y-88637330D02*
X158031482Y-88589711D01*
X158841005Y-86989711D02*
X158888624Y-87037330D01*
X158888624Y-87037330D02*
X158936243Y-87180187D01*
X158936243Y-87180187D02*
X158936243Y-87275425D01*
X158936243Y-87275425D02*
X158888624Y-87418282D01*
X158888624Y-87418282D02*
X158793386Y-87513520D01*
X158793386Y-87513520D02*
X158698148Y-87561139D01*
X158698148Y-87561139D02*
X158507672Y-87608758D01*
X158507672Y-87608758D02*
X158364815Y-87608758D01*
X158364815Y-87608758D02*
X158174339Y-87561139D01*
X158174339Y-87561139D02*
X158079101Y-87513520D01*
X158079101Y-87513520D02*
X157983863Y-87418282D01*
X157983863Y-87418282D02*
X157936243Y-87275425D01*
X157936243Y-87275425D02*
X157936243Y-87180187D01*
X157936243Y-87180187D02*
X157983863Y-87037330D01*
X157983863Y-87037330D02*
X158031482Y-86989711D01*
X158936243Y-86418282D02*
X158888624Y-86513520D01*
X158888624Y-86513520D02*
X158793386Y-86561139D01*
X158793386Y-86561139D02*
X157936243Y-86561139D01*
X158936243Y-85894472D02*
X158888624Y-85989710D01*
X158888624Y-85989710D02*
X158841005Y-86037329D01*
X158841005Y-86037329D02*
X158745767Y-86084948D01*
X158745767Y-86084948D02*
X158460053Y-86084948D01*
X158460053Y-86084948D02*
X158364815Y-86037329D01*
X158364815Y-86037329D02*
X158317196Y-85989710D01*
X158317196Y-85989710D02*
X158269577Y-85894472D01*
X158269577Y-85894472D02*
X158269577Y-85751615D01*
X158269577Y-85751615D02*
X158317196Y-85656377D01*
X158317196Y-85656377D02*
X158364815Y-85608758D01*
X158364815Y-85608758D02*
X158460053Y-85561139D01*
X158460053Y-85561139D02*
X158745767Y-85561139D01*
X158745767Y-85561139D02*
X158841005Y-85608758D01*
X158841005Y-85608758D02*
X158888624Y-85656377D01*
X158888624Y-85656377D02*
X158936243Y-85751615D01*
X158936243Y-85751615D02*
X158936243Y-85894472D01*
X158888624Y-84703996D02*
X158936243Y-84799234D01*
X158936243Y-84799234D02*
X158936243Y-84989710D01*
X158936243Y-84989710D02*
X158888624Y-85084948D01*
X158888624Y-85084948D02*
X158841005Y-85132567D01*
X158841005Y-85132567D02*
X158745767Y-85180186D01*
X158745767Y-85180186D02*
X158460053Y-85180186D01*
X158460053Y-85180186D02*
X158364815Y-85132567D01*
X158364815Y-85132567D02*
X158317196Y-85084948D01*
X158317196Y-85084948D02*
X158269577Y-84989710D01*
X158269577Y-84989710D02*
X158269577Y-84799234D01*
X158269577Y-84799234D02*
X158317196Y-84703996D01*
X158936243Y-84275424D02*
X157936243Y-84275424D01*
X158555291Y-84180186D02*
X158936243Y-83894472D01*
X158269577Y-83894472D02*
X158650529Y-84275424D01*
X110953733Y-71910452D02*
X111287066Y-71910452D01*
X111429923Y-72434261D02*
X110953733Y-72434261D01*
X110953733Y-72434261D02*
X110953733Y-71434261D01*
X110953733Y-71434261D02*
X111429923Y-71434261D01*
X111810876Y-72386642D02*
X111953733Y-72434261D01*
X111953733Y-72434261D02*
X112191828Y-72434261D01*
X112191828Y-72434261D02*
X112287066Y-72386642D01*
X112287066Y-72386642D02*
X112334685Y-72339023D01*
X112334685Y-72339023D02*
X112382304Y-72243785D01*
X112382304Y-72243785D02*
X112382304Y-72148547D01*
X112382304Y-72148547D02*
X112334685Y-72053309D01*
X112334685Y-72053309D02*
X112287066Y-72005690D01*
X112287066Y-72005690D02*
X112191828Y-71958071D01*
X112191828Y-71958071D02*
X112001352Y-71910452D01*
X112001352Y-71910452D02*
X111906114Y-71862833D01*
X111906114Y-71862833D02*
X111858495Y-71815214D01*
X111858495Y-71815214D02*
X111810876Y-71719976D01*
X111810876Y-71719976D02*
X111810876Y-71624738D01*
X111810876Y-71624738D02*
X111858495Y-71529500D01*
X111858495Y-71529500D02*
X111906114Y-71481881D01*
X111906114Y-71481881D02*
X112001352Y-71434261D01*
X112001352Y-71434261D02*
X112239447Y-71434261D01*
X112239447Y-71434261D02*
X112382304Y-71481881D01*
X112810876Y-72434261D02*
X112810876Y-71434261D01*
X112810876Y-71434261D02*
X113191828Y-71434261D01*
X113191828Y-71434261D02*
X113287066Y-71481881D01*
X113287066Y-71481881D02*
X113334685Y-71529500D01*
X113334685Y-71529500D02*
X113382304Y-71624738D01*
X113382304Y-71624738D02*
X113382304Y-71767595D01*
X113382304Y-71767595D02*
X113334685Y-71862833D01*
X113334685Y-71862833D02*
X113287066Y-71910452D01*
X113287066Y-71910452D02*
X113191828Y-71958071D01*
X113191828Y-71958071D02*
X112810876Y-71958071D01*
X113715638Y-71434261D02*
X114334685Y-71434261D01*
X114334685Y-71434261D02*
X114001352Y-71815214D01*
X114001352Y-71815214D02*
X114144209Y-71815214D01*
X114144209Y-71815214D02*
X114239447Y-71862833D01*
X114239447Y-71862833D02*
X114287066Y-71910452D01*
X114287066Y-71910452D02*
X114334685Y-72005690D01*
X114334685Y-72005690D02*
X114334685Y-72243785D01*
X114334685Y-72243785D02*
X114287066Y-72339023D01*
X114287066Y-72339023D02*
X114239447Y-72386642D01*
X114239447Y-72386642D02*
X114144209Y-72434261D01*
X114144209Y-72434261D02*
X113858495Y-72434261D01*
X113858495Y-72434261D02*
X113763257Y-72386642D01*
X113763257Y-72386642D02*
X113715638Y-72339023D01*
X114715638Y-71529500D02*
X114763257Y-71481881D01*
X114763257Y-71481881D02*
X114858495Y-71434261D01*
X114858495Y-71434261D02*
X115096590Y-71434261D01*
X115096590Y-71434261D02*
X115191828Y-71481881D01*
X115191828Y-71481881D02*
X115239447Y-71529500D01*
X115239447Y-71529500D02*
X115287066Y-71624738D01*
X115287066Y-71624738D02*
X115287066Y-71719976D01*
X115287066Y-71719976D02*
X115239447Y-71862833D01*
X115239447Y-71862833D02*
X114668019Y-72434261D01*
X114668019Y-72434261D02*
X115287066Y-72434261D01*
X115715638Y-72053309D02*
X116477543Y-72053309D01*
X116906114Y-72386642D02*
X117048971Y-72434261D01*
X117048971Y-72434261D02*
X117287066Y-72434261D01*
X117287066Y-72434261D02*
X117382304Y-72386642D01*
X117382304Y-72386642D02*
X117429923Y-72339023D01*
X117429923Y-72339023D02*
X117477542Y-72243785D01*
X117477542Y-72243785D02*
X117477542Y-72148547D01*
X117477542Y-72148547D02*
X117429923Y-72053309D01*
X117429923Y-72053309D02*
X117382304Y-72005690D01*
X117382304Y-72005690D02*
X117287066Y-71958071D01*
X117287066Y-71958071D02*
X117096590Y-71910452D01*
X117096590Y-71910452D02*
X117001352Y-71862833D01*
X117001352Y-71862833D02*
X116953733Y-71815214D01*
X116953733Y-71815214D02*
X116906114Y-71719976D01*
X116906114Y-71719976D02*
X116906114Y-71624738D01*
X116906114Y-71624738D02*
X116953733Y-71529500D01*
X116953733Y-71529500D02*
X117001352Y-71481881D01*
X117001352Y-71481881D02*
X117096590Y-71434261D01*
X117096590Y-71434261D02*
X117334685Y-71434261D01*
X117334685Y-71434261D02*
X117477542Y-71481881D01*
X118410876Y-71434261D02*
X118648971Y-72434261D01*
X118648971Y-72434261D02*
X118839447Y-71719976D01*
X118839447Y-71719976D02*
X119029923Y-72434261D01*
X119029923Y-72434261D02*
X119268019Y-71434261D01*
X120220399Y-72434261D02*
X119887066Y-71958071D01*
X119648971Y-72434261D02*
X119648971Y-71434261D01*
X119648971Y-71434261D02*
X120029923Y-71434261D01*
X120029923Y-71434261D02*
X120125161Y-71481881D01*
X120125161Y-71481881D02*
X120172780Y-71529500D01*
X120172780Y-71529500D02*
X120220399Y-71624738D01*
X120220399Y-71624738D02*
X120220399Y-71767595D01*
X120220399Y-71767595D02*
X120172780Y-71862833D01*
X120172780Y-71862833D02*
X120125161Y-71910452D01*
X120125161Y-71910452D02*
X120029923Y-71958071D01*
X120029923Y-71958071D02*
X119648971Y-71958071D01*
X120839447Y-71434261D02*
X121029923Y-71434261D01*
X121029923Y-71434261D02*
X121125161Y-71481881D01*
X121125161Y-71481881D02*
X121220399Y-71577119D01*
X121220399Y-71577119D02*
X121268018Y-71767595D01*
X121268018Y-71767595D02*
X121268018Y-72100928D01*
X121268018Y-72100928D02*
X121220399Y-72291404D01*
X121220399Y-72291404D02*
X121125161Y-72386642D01*
X121125161Y-72386642D02*
X121029923Y-72434261D01*
X121029923Y-72434261D02*
X120839447Y-72434261D01*
X120839447Y-72434261D02*
X120744209Y-72386642D01*
X120744209Y-72386642D02*
X120648971Y-72291404D01*
X120648971Y-72291404D02*
X120601352Y-72100928D01*
X120601352Y-72100928D02*
X120601352Y-71767595D01*
X120601352Y-71767595D02*
X120648971Y-71577119D01*
X120648971Y-71577119D02*
X120744209Y-71481881D01*
X120744209Y-71481881D02*
X120839447Y-71434261D01*
X121887066Y-71434261D02*
X122077542Y-71434261D01*
X122077542Y-71434261D02*
X122172780Y-71481881D01*
X122172780Y-71481881D02*
X122268018Y-71577119D01*
X122268018Y-71577119D02*
X122315637Y-71767595D01*
X122315637Y-71767595D02*
X122315637Y-72100928D01*
X122315637Y-72100928D02*
X122268018Y-72291404D01*
X122268018Y-72291404D02*
X122172780Y-72386642D01*
X122172780Y-72386642D02*
X122077542Y-72434261D01*
X122077542Y-72434261D02*
X121887066Y-72434261D01*
X121887066Y-72434261D02*
X121791828Y-72386642D01*
X121791828Y-72386642D02*
X121696590Y-72291404D01*
X121696590Y-72291404D02*
X121648971Y-72100928D01*
X121648971Y-72100928D02*
X121648971Y-71767595D01*
X121648971Y-71767595D02*
X121696590Y-71577119D01*
X121696590Y-71577119D02*
X121791828Y-71481881D01*
X121791828Y-71481881D02*
X121887066Y-71434261D01*
X122744209Y-72434261D02*
X122744209Y-71434261D01*
X122744209Y-71434261D02*
X123077542Y-72148547D01*
X123077542Y-72148547D02*
X123410875Y-71434261D01*
X123410875Y-71434261D02*
X123410875Y-72434261D01*
X123887066Y-72053309D02*
X124648971Y-72053309D01*
X125029923Y-71434261D02*
X125648970Y-71434261D01*
X125648970Y-71434261D02*
X125315637Y-71815214D01*
X125315637Y-71815214D02*
X125458494Y-71815214D01*
X125458494Y-71815214D02*
X125553732Y-71862833D01*
X125553732Y-71862833D02*
X125601351Y-71910452D01*
X125601351Y-71910452D02*
X125648970Y-72005690D01*
X125648970Y-72005690D02*
X125648970Y-72243785D01*
X125648970Y-72243785D02*
X125601351Y-72339023D01*
X125601351Y-72339023D02*
X125553732Y-72386642D01*
X125553732Y-72386642D02*
X125458494Y-72434261D01*
X125458494Y-72434261D02*
X125172780Y-72434261D01*
X125172780Y-72434261D02*
X125077542Y-72386642D01*
X125077542Y-72386642D02*
X125029923Y-72339023D01*
X126029923Y-71529500D02*
X126077542Y-71481881D01*
X126077542Y-71481881D02*
X126172780Y-71434261D01*
X126172780Y-71434261D02*
X126410875Y-71434261D01*
X126410875Y-71434261D02*
X126506113Y-71481881D01*
X126506113Y-71481881D02*
X126553732Y-71529500D01*
X126553732Y-71529500D02*
X126601351Y-71624738D01*
X126601351Y-71624738D02*
X126601351Y-71719976D01*
X126601351Y-71719976D02*
X126553732Y-71862833D01*
X126553732Y-71862833D02*
X125982304Y-72434261D01*
X125982304Y-72434261D02*
X126601351Y-72434261D01*
X127029923Y-72434261D02*
X127029923Y-71434261D01*
X127029923Y-71434261D02*
X127268018Y-71434261D01*
X127268018Y-71434261D02*
X127410875Y-71481881D01*
X127410875Y-71481881D02*
X127506113Y-71577119D01*
X127506113Y-71577119D02*
X127553732Y-71672357D01*
X127553732Y-71672357D02*
X127601351Y-71862833D01*
X127601351Y-71862833D02*
X127601351Y-72005690D01*
X127601351Y-72005690D02*
X127553732Y-72196166D01*
X127553732Y-72196166D02*
X127506113Y-72291404D01*
X127506113Y-72291404D02*
X127410875Y-72386642D01*
X127410875Y-72386642D02*
X127268018Y-72434261D01*
X127268018Y-72434261D02*
X127029923Y-72434261D01*
X128629923Y-72434261D02*
X128629923Y-71434261D01*
X128629923Y-71434261D02*
X128868018Y-71434261D01*
X128868018Y-71434261D02*
X129010875Y-71481881D01*
X129010875Y-71481881D02*
X129106113Y-71577119D01*
X129106113Y-71577119D02*
X129153732Y-71672357D01*
X129153732Y-71672357D02*
X129201351Y-71862833D01*
X129201351Y-71862833D02*
X129201351Y-72005690D01*
X129201351Y-72005690D02*
X129153732Y-72196166D01*
X129153732Y-72196166D02*
X129106113Y-72291404D01*
X129106113Y-72291404D02*
X129010875Y-72386642D01*
X129010875Y-72386642D02*
X128868018Y-72434261D01*
X128868018Y-72434261D02*
X128629923Y-72434261D01*
X130010875Y-72386642D02*
X129915637Y-72434261D01*
X129915637Y-72434261D02*
X129725161Y-72434261D01*
X129725161Y-72434261D02*
X129629923Y-72386642D01*
X129629923Y-72386642D02*
X129582304Y-72291404D01*
X129582304Y-72291404D02*
X129582304Y-71910452D01*
X129582304Y-71910452D02*
X129629923Y-71815214D01*
X129629923Y-71815214D02*
X129725161Y-71767595D01*
X129725161Y-71767595D02*
X129915637Y-71767595D01*
X129915637Y-71767595D02*
X130010875Y-71815214D01*
X130010875Y-71815214D02*
X130058494Y-71910452D01*
X130058494Y-71910452D02*
X130058494Y-72005690D01*
X130058494Y-72005690D02*
X129582304Y-72100928D01*
X130391828Y-71767595D02*
X130629923Y-72434261D01*
X130629923Y-72434261D02*
X130868018Y-71767595D01*
X131848971Y-72434261D02*
X131848971Y-71434261D01*
X132420399Y-72434261D02*
X131991828Y-71862833D01*
X132420399Y-71434261D02*
X131848971Y-72005690D01*
X132848971Y-72434261D02*
X132848971Y-71767595D01*
X132848971Y-71434261D02*
X132801352Y-71481881D01*
X132801352Y-71481881D02*
X132848971Y-71529500D01*
X132848971Y-71529500D02*
X132896590Y-71481881D01*
X132896590Y-71481881D02*
X132848971Y-71434261D01*
X132848971Y-71434261D02*
X132848971Y-71529500D01*
X133182304Y-71767595D02*
X133563256Y-71767595D01*
X133325161Y-71434261D02*
X133325161Y-72291404D01*
X133325161Y-72291404D02*
X133372780Y-72386642D01*
X133372780Y-72386642D02*
X133468018Y-72434261D01*
X133468018Y-72434261D02*
X133563256Y-72434261D01*
X134496590Y-72053309D02*
X135258495Y-72053309D01*
X136763256Y-71767595D02*
X136763256Y-72434261D01*
X136525161Y-71386642D02*
X136287066Y-72100928D01*
X136287066Y-72100928D02*
X136906113Y-72100928D01*
X137287066Y-72434261D02*
X137287066Y-71434261D01*
X137287066Y-71434261D02*
X137620399Y-72148547D01*
X137620399Y-72148547D02*
X137953732Y-71434261D01*
X137953732Y-71434261D02*
X137953732Y-72434261D01*
X138429923Y-72434261D02*
X138429923Y-71434261D01*
X138429923Y-71815214D02*
X138525161Y-71767595D01*
X138525161Y-71767595D02*
X138715637Y-71767595D01*
X138715637Y-71767595D02*
X138810875Y-71815214D01*
X138810875Y-71815214D02*
X138858494Y-71862833D01*
X138858494Y-71862833D02*
X138906113Y-71958071D01*
X138906113Y-71958071D02*
X138906113Y-72243785D01*
X138906113Y-72243785D02*
X138858494Y-72339023D01*
X138858494Y-72339023D02*
X138810875Y-72386642D01*
X138810875Y-72386642D02*
X138715637Y-72434261D01*
X138715637Y-72434261D02*
X138525161Y-72434261D01*
X138525161Y-72434261D02*
X138429923Y-72386642D01*
X139791828Y-71767595D02*
X140172780Y-71767595D01*
X139934685Y-72434261D02*
X139934685Y-71577119D01*
X139934685Y-71577119D02*
X139982304Y-71481881D01*
X139982304Y-71481881D02*
X140077542Y-71434261D01*
X140077542Y-71434261D02*
X140172780Y-71434261D01*
X140648971Y-72434261D02*
X140553733Y-72386642D01*
X140553733Y-72386642D02*
X140506114Y-72291404D01*
X140506114Y-72291404D02*
X140506114Y-71434261D01*
X141458495Y-72434261D02*
X141458495Y-71910452D01*
X141458495Y-71910452D02*
X141410876Y-71815214D01*
X141410876Y-71815214D02*
X141315638Y-71767595D01*
X141315638Y-71767595D02*
X141125162Y-71767595D01*
X141125162Y-71767595D02*
X141029924Y-71815214D01*
X141458495Y-72386642D02*
X141363257Y-72434261D01*
X141363257Y-72434261D02*
X141125162Y-72434261D01*
X141125162Y-72434261D02*
X141029924Y-72386642D01*
X141029924Y-72386642D02*
X140982305Y-72291404D01*
X140982305Y-72291404D02*
X140982305Y-72196166D01*
X140982305Y-72196166D02*
X141029924Y-72100928D01*
X141029924Y-72100928D02*
X141125162Y-72053309D01*
X141125162Y-72053309D02*
X141363257Y-72053309D01*
X141363257Y-72053309D02*
X141458495Y-72005690D01*
X141887067Y-72386642D02*
X141982305Y-72434261D01*
X141982305Y-72434261D02*
X142172781Y-72434261D01*
X142172781Y-72434261D02*
X142268019Y-72386642D01*
X142268019Y-72386642D02*
X142315638Y-72291404D01*
X142315638Y-72291404D02*
X142315638Y-72243785D01*
X142315638Y-72243785D02*
X142268019Y-72148547D01*
X142268019Y-72148547D02*
X142172781Y-72100928D01*
X142172781Y-72100928D02*
X142029924Y-72100928D01*
X142029924Y-72100928D02*
X141934686Y-72053309D01*
X141934686Y-72053309D02*
X141887067Y-71958071D01*
X141887067Y-71958071D02*
X141887067Y-71910452D01*
X141887067Y-71910452D02*
X141934686Y-71815214D01*
X141934686Y-71815214D02*
X142029924Y-71767595D01*
X142029924Y-71767595D02*
X142172781Y-71767595D01*
X142172781Y-71767595D02*
X142268019Y-71815214D01*
X142744210Y-72434261D02*
X142744210Y-71434261D01*
X143172781Y-72434261D02*
X143172781Y-71910452D01*
X143172781Y-71910452D02*
X143125162Y-71815214D01*
X143125162Y-71815214D02*
X143029924Y-71767595D01*
X143029924Y-71767595D02*
X142887067Y-71767595D01*
X142887067Y-71767595D02*
X142791829Y-71815214D01*
X142791829Y-71815214D02*
X142744210Y-71862833D01*
X144248972Y-72053309D02*
X145010877Y-72053309D01*
X145991829Y-71434261D02*
X146229924Y-72434261D01*
X146229924Y-72434261D02*
X146420400Y-71719976D01*
X146420400Y-71719976D02*
X146610876Y-72434261D01*
X146610876Y-72434261D02*
X146848972Y-71434261D01*
X147229924Y-72434261D02*
X147229924Y-71434261D01*
X148039447Y-71910452D02*
X147706114Y-71910452D01*
X147706114Y-72434261D02*
X147706114Y-71434261D01*
X147706114Y-71434261D02*
X148182304Y-71434261D01*
X148563257Y-72434261D02*
X148563257Y-71434261D01*
X149639447Y-72053309D02*
X150401352Y-72053309D01*
X151477542Y-72434261D02*
X151477542Y-71434261D01*
X151477542Y-71815214D02*
X151572780Y-71767595D01*
X151572780Y-71767595D02*
X151763256Y-71767595D01*
X151763256Y-71767595D02*
X151858494Y-71815214D01*
X151858494Y-71815214D02*
X151906113Y-71862833D01*
X151906113Y-71862833D02*
X151953732Y-71958071D01*
X151953732Y-71958071D02*
X151953732Y-72243785D01*
X151953732Y-72243785D02*
X151906113Y-72339023D01*
X151906113Y-72339023D02*
X151858494Y-72386642D01*
X151858494Y-72386642D02*
X151763256Y-72434261D01*
X151763256Y-72434261D02*
X151572780Y-72434261D01*
X151572780Y-72434261D02*
X151477542Y-72386642D01*
X152525161Y-72434261D02*
X152429923Y-72386642D01*
X152429923Y-72386642D02*
X152382304Y-72291404D01*
X152382304Y-72291404D02*
X152382304Y-71434261D01*
X153334685Y-71767595D02*
X153334685Y-72434261D01*
X152906114Y-71767595D02*
X152906114Y-72291404D01*
X152906114Y-72291404D02*
X152953733Y-72386642D01*
X152953733Y-72386642D02*
X153048971Y-72434261D01*
X153048971Y-72434261D02*
X153191828Y-72434261D01*
X153191828Y-72434261D02*
X153287066Y-72386642D01*
X153287066Y-72386642D02*
X153334685Y-72339023D01*
X154191828Y-72386642D02*
X154096590Y-72434261D01*
X154096590Y-72434261D02*
X153906114Y-72434261D01*
X153906114Y-72434261D02*
X153810876Y-72386642D01*
X153810876Y-72386642D02*
X153763257Y-72291404D01*
X153763257Y-72291404D02*
X153763257Y-71910452D01*
X153763257Y-71910452D02*
X153810876Y-71815214D01*
X153810876Y-71815214D02*
X153906114Y-71767595D01*
X153906114Y-71767595D02*
X154096590Y-71767595D01*
X154096590Y-71767595D02*
X154191828Y-71815214D01*
X154191828Y-71815214D02*
X154239447Y-71910452D01*
X154239447Y-71910452D02*
X154239447Y-72005690D01*
X154239447Y-72005690D02*
X153763257Y-72100928D01*
X154525162Y-71767595D02*
X154906114Y-71767595D01*
X154668019Y-71434261D02*
X154668019Y-72291404D01*
X154668019Y-72291404D02*
X154715638Y-72386642D01*
X154715638Y-72386642D02*
X154810876Y-72434261D01*
X154810876Y-72434261D02*
X154906114Y-72434261D01*
X155382305Y-72434261D02*
X155287067Y-72386642D01*
X155287067Y-72386642D02*
X155239448Y-72339023D01*
X155239448Y-72339023D02*
X155191829Y-72243785D01*
X155191829Y-72243785D02*
X155191829Y-71958071D01*
X155191829Y-71958071D02*
X155239448Y-71862833D01*
X155239448Y-71862833D02*
X155287067Y-71815214D01*
X155287067Y-71815214D02*
X155382305Y-71767595D01*
X155382305Y-71767595D02*
X155525162Y-71767595D01*
X155525162Y-71767595D02*
X155620400Y-71815214D01*
X155620400Y-71815214D02*
X155668019Y-71862833D01*
X155668019Y-71862833D02*
X155715638Y-71958071D01*
X155715638Y-71958071D02*
X155715638Y-72243785D01*
X155715638Y-72243785D02*
X155668019Y-72339023D01*
X155668019Y-72339023D02*
X155620400Y-72386642D01*
X155620400Y-72386642D02*
X155525162Y-72434261D01*
X155525162Y-72434261D02*
X155382305Y-72434261D01*
X156287067Y-72434261D02*
X156191829Y-72386642D01*
X156191829Y-72386642D02*
X156144210Y-72339023D01*
X156144210Y-72339023D02*
X156096591Y-72243785D01*
X156096591Y-72243785D02*
X156096591Y-71958071D01*
X156096591Y-71958071D02*
X156144210Y-71862833D01*
X156144210Y-71862833D02*
X156191829Y-71815214D01*
X156191829Y-71815214D02*
X156287067Y-71767595D01*
X156287067Y-71767595D02*
X156429924Y-71767595D01*
X156429924Y-71767595D02*
X156525162Y-71815214D01*
X156525162Y-71815214D02*
X156572781Y-71862833D01*
X156572781Y-71862833D02*
X156620400Y-71958071D01*
X156620400Y-71958071D02*
X156620400Y-72243785D01*
X156620400Y-72243785D02*
X156572781Y-72339023D01*
X156572781Y-72339023D02*
X156525162Y-72386642D01*
X156525162Y-72386642D02*
X156429924Y-72434261D01*
X156429924Y-72434261D02*
X156287067Y-72434261D01*
X156906115Y-71767595D02*
X157287067Y-71767595D01*
X157048972Y-71434261D02*
X157048972Y-72291404D01*
X157048972Y-72291404D02*
X157096591Y-72386642D01*
X157096591Y-72386642D02*
X157191829Y-72434261D01*
X157191829Y-72434261D02*
X157287067Y-72434261D01*
X157620401Y-72434261D02*
X157620401Y-71434261D01*
X158048972Y-72434261D02*
X158048972Y-71910452D01*
X158048972Y-71910452D02*
X158001353Y-71815214D01*
X158001353Y-71815214D02*
X157906115Y-71767595D01*
X157906115Y-71767595D02*
X157763258Y-71767595D01*
X157763258Y-71767595D02*
X157668020Y-71815214D01*
X157668020Y-71815214D02*
X157620401Y-71862833D01*
X108093999Y-94702001D02*
X108236856Y-94749620D01*
X108236856Y-94749620D02*
X108474951Y-94749620D01*
X108474951Y-94749620D02*
X108570189Y-94702001D01*
X108570189Y-94702001D02*
X108617808Y-94654382D01*
X108617808Y-94654382D02*
X108665427Y-94559144D01*
X108665427Y-94559144D02*
X108665427Y-94463906D01*
X108665427Y-94463906D02*
X108617808Y-94368668D01*
X108617808Y-94368668D02*
X108570189Y-94321049D01*
X108570189Y-94321049D02*
X108474951Y-94273430D01*
X108474951Y-94273430D02*
X108284475Y-94225811D01*
X108284475Y-94225811D02*
X108189237Y-94178192D01*
X108189237Y-94178192D02*
X108141618Y-94130573D01*
X108141618Y-94130573D02*
X108093999Y-94035335D01*
X108093999Y-94035335D02*
X108093999Y-93940097D01*
X108093999Y-93940097D02*
X108141618Y-93844859D01*
X108141618Y-93844859D02*
X108189237Y-93797240D01*
X108189237Y-93797240D02*
X108284475Y-93749620D01*
X108284475Y-93749620D02*
X108522570Y-93749620D01*
X108522570Y-93749620D02*
X108665427Y-93797240D01*
X109570189Y-94749620D02*
X109093999Y-94749620D01*
X109093999Y-94749620D02*
X109093999Y-93749620D01*
X109855904Y-94463906D02*
X110332094Y-94463906D01*
X109760666Y-94749620D02*
X110093999Y-93749620D01*
X110093999Y-93749620D02*
X110427332Y-94749620D01*
X110617809Y-93749620D02*
X110951142Y-94749620D01*
X110951142Y-94749620D02*
X111284475Y-93749620D01*
X111617809Y-94225811D02*
X111951142Y-94225811D01*
X112093999Y-94749620D02*
X111617809Y-94749620D01*
X111617809Y-94749620D02*
X111617809Y-93749620D01*
X111617809Y-93749620D02*
X112093999Y-93749620D01*
X106368466Y-87874845D02*
X106320847Y-87922464D01*
X106320847Y-87922464D02*
X106177990Y-87970083D01*
X106177990Y-87970083D02*
X106082752Y-87970083D01*
X106082752Y-87970083D02*
X105939895Y-87922464D01*
X105939895Y-87922464D02*
X105844657Y-87827226D01*
X105844657Y-87827226D02*
X105797038Y-87731988D01*
X105797038Y-87731988D02*
X105749419Y-87541512D01*
X105749419Y-87541512D02*
X105749419Y-87398655D01*
X105749419Y-87398655D02*
X105797038Y-87208179D01*
X105797038Y-87208179D02*
X105844657Y-87112941D01*
X105844657Y-87112941D02*
X105939895Y-87017703D01*
X105939895Y-87017703D02*
X106082752Y-86970083D01*
X106082752Y-86970083D02*
X106177990Y-86970083D01*
X106177990Y-86970083D02*
X106320847Y-87017703D01*
X106320847Y-87017703D02*
X106368466Y-87065322D01*
X106749419Y-87684369D02*
X107225609Y-87684369D01*
X106654181Y-87970083D02*
X106987514Y-86970083D01*
X106987514Y-86970083D02*
X107320847Y-87970083D01*
X107654181Y-87970083D02*
X107654181Y-86970083D01*
X107654181Y-86970083D02*
X107987514Y-87684369D01*
X107987514Y-87684369D02*
X108320847Y-86970083D01*
X108320847Y-86970083D02*
X108320847Y-87970083D01*
X109349419Y-87065322D02*
X109397038Y-87017703D01*
X109397038Y-87017703D02*
X109492276Y-86970083D01*
X109492276Y-86970083D02*
X109730371Y-86970083D01*
X109730371Y-86970083D02*
X109825609Y-87017703D01*
X109825609Y-87017703D02*
X109873228Y-87065322D01*
X109873228Y-87065322D02*
X109920847Y-87160560D01*
X109920847Y-87160560D02*
X109920847Y-87255798D01*
X109920847Y-87255798D02*
X109873228Y-87398655D01*
X109873228Y-87398655D02*
X109301800Y-87970083D01*
X109301800Y-87970083D02*
X109920847Y-87970083D01*
X108234087Y-81246353D02*
X108186468Y-81293972D01*
X108186468Y-81293972D02*
X108043611Y-81341591D01*
X108043611Y-81341591D02*
X107948373Y-81341591D01*
X107948373Y-81341591D02*
X107805516Y-81293972D01*
X107805516Y-81293972D02*
X107710278Y-81198734D01*
X107710278Y-81198734D02*
X107662659Y-81103496D01*
X107662659Y-81103496D02*
X107615040Y-80913020D01*
X107615040Y-80913020D02*
X107615040Y-80770163D01*
X107615040Y-80770163D02*
X107662659Y-80579687D01*
X107662659Y-80579687D02*
X107710278Y-80484449D01*
X107710278Y-80484449D02*
X107805516Y-80389211D01*
X107805516Y-80389211D02*
X107948373Y-80341591D01*
X107948373Y-80341591D02*
X108043611Y-80341591D01*
X108043611Y-80341591D02*
X108186468Y-80389211D01*
X108186468Y-80389211D02*
X108234087Y-80436830D01*
X108615040Y-81055877D02*
X109091230Y-81055877D01*
X108519802Y-81341591D02*
X108853135Y-80341591D01*
X108853135Y-80341591D02*
X109186468Y-81341591D01*
X109519802Y-81341591D02*
X109519802Y-80341591D01*
X109519802Y-80341591D02*
X109853135Y-81055877D01*
X109853135Y-81055877D02*
X110186468Y-80341591D01*
X110186468Y-80341591D02*
X110186468Y-81341591D01*
X111786468Y-81341591D02*
X111215040Y-81341591D01*
X111500754Y-81341591D02*
X111500754Y-80341591D01*
X111500754Y-80341591D02*
X111405516Y-80484449D01*
X111405516Y-80484449D02*
X111310278Y-80579687D01*
X111310278Y-80579687D02*
X111215040Y-80627306D01*
X118605712Y-102207142D02*
X118558093Y-102254761D01*
X118558093Y-102254761D02*
X118415236Y-102302380D01*
X118415236Y-102302380D02*
X118319998Y-102302380D01*
X118319998Y-102302380D02*
X118177141Y-102254761D01*
X118177141Y-102254761D02*
X118081903Y-102159523D01*
X118081903Y-102159523D02*
X118034284Y-102064285D01*
X118034284Y-102064285D02*
X117986665Y-101873809D01*
X117986665Y-101873809D02*
X117986665Y-101730952D01*
X117986665Y-101730952D02*
X118034284Y-101540476D01*
X118034284Y-101540476D02*
X118081903Y-101445238D01*
X118081903Y-101445238D02*
X118177141Y-101350000D01*
X118177141Y-101350000D02*
X118319998Y-101302380D01*
X118319998Y-101302380D02*
X118415236Y-101302380D01*
X118415236Y-101302380D02*
X118558093Y-101350000D01*
X118558093Y-101350000D02*
X118605712Y-101397619D01*
X119034284Y-102302380D02*
X119034284Y-101635714D01*
X119034284Y-101302380D02*
X118986665Y-101350000D01*
X118986665Y-101350000D02*
X119034284Y-101397619D01*
X119034284Y-101397619D02*
X119081903Y-101350000D01*
X119081903Y-101350000D02*
X119034284Y-101302380D01*
X119034284Y-101302380D02*
X119034284Y-101397619D01*
X119510474Y-101635714D02*
X119510474Y-102302380D01*
X119510474Y-101730952D02*
X119558093Y-101683333D01*
X119558093Y-101683333D02*
X119653331Y-101635714D01*
X119653331Y-101635714D02*
X119796188Y-101635714D01*
X119796188Y-101635714D02*
X119891426Y-101683333D01*
X119891426Y-101683333D02*
X119939045Y-101778571D01*
X119939045Y-101778571D02*
X119939045Y-102302380D01*
X120558093Y-102302380D02*
X120462855Y-102254761D01*
X120462855Y-102254761D02*
X120415236Y-102207142D01*
X120415236Y-102207142D02*
X120367617Y-102111904D01*
X120367617Y-102111904D02*
X120367617Y-101826190D01*
X120367617Y-101826190D02*
X120415236Y-101730952D01*
X120415236Y-101730952D02*
X120462855Y-101683333D01*
X120462855Y-101683333D02*
X120558093Y-101635714D01*
X120558093Y-101635714D02*
X120700950Y-101635714D01*
X120700950Y-101635714D02*
X120796188Y-101683333D01*
X120796188Y-101683333D02*
X120843807Y-101730952D01*
X120843807Y-101730952D02*
X120891426Y-101826190D01*
X120891426Y-101826190D02*
X120891426Y-102111904D01*
X120891426Y-102111904D02*
X120843807Y-102207142D01*
X120843807Y-102207142D02*
X120796188Y-102254761D01*
X120796188Y-102254761D02*
X120700950Y-102302380D01*
X120700950Y-102302380D02*
X120558093Y-102302380D01*
X121272379Y-102254761D02*
X121367617Y-102302380D01*
X121367617Y-102302380D02*
X121558093Y-102302380D01*
X121558093Y-102302380D02*
X121653331Y-102254761D01*
X121653331Y-102254761D02*
X121700950Y-102159523D01*
X121700950Y-102159523D02*
X121700950Y-102111904D01*
X121700950Y-102111904D02*
X121653331Y-102016666D01*
X121653331Y-102016666D02*
X121558093Y-101969047D01*
X121558093Y-101969047D02*
X121415236Y-101969047D01*
X121415236Y-101969047D02*
X121319998Y-101921428D01*
X121319998Y-101921428D02*
X121272379Y-101826190D01*
X121272379Y-101826190D02*
X121272379Y-101778571D01*
X121272379Y-101778571D02*
X121319998Y-101683333D01*
X121319998Y-101683333D02*
X121415236Y-101635714D01*
X121415236Y-101635714D02*
X121558093Y-101635714D01*
X121558093Y-101635714D02*
X121653331Y-101683333D01*
X122129522Y-102302380D02*
X122129522Y-101302380D01*
X122558093Y-102302380D02*
X122558093Y-101778571D01*
X122558093Y-101778571D02*
X122510474Y-101683333D01*
X122510474Y-101683333D02*
X122415236Y-101635714D01*
X122415236Y-101635714D02*
X122272379Y-101635714D01*
X122272379Y-101635714D02*
X122177141Y-101683333D01*
X122177141Y-101683333D02*
X122129522Y-101730952D01*
X123634284Y-102302380D02*
X123634284Y-101302380D01*
X123634284Y-101302380D02*
X124205712Y-102302380D01*
X124205712Y-102302380D02*
X124205712Y-101302380D01*
X125062855Y-102254761D02*
X124967617Y-102302380D01*
X124967617Y-102302380D02*
X124777141Y-102302380D01*
X124777141Y-102302380D02*
X124681903Y-102254761D01*
X124681903Y-102254761D02*
X124634284Y-102159523D01*
X124634284Y-102159523D02*
X124634284Y-101778571D01*
X124634284Y-101778571D02*
X124681903Y-101683333D01*
X124681903Y-101683333D02*
X124777141Y-101635714D01*
X124777141Y-101635714D02*
X124967617Y-101635714D01*
X124967617Y-101635714D02*
X125062855Y-101683333D01*
X125062855Y-101683333D02*
X125110474Y-101778571D01*
X125110474Y-101778571D02*
X125110474Y-101873809D01*
X125110474Y-101873809D02*
X124634284Y-101969047D01*
X125443808Y-102302380D02*
X125967617Y-101635714D01*
X125443808Y-101635714D02*
X125967617Y-102302380D01*
X126872379Y-101350000D02*
X126777141Y-101302380D01*
X126777141Y-101302380D02*
X126634284Y-101302380D01*
X126634284Y-101302380D02*
X126491427Y-101350000D01*
X126491427Y-101350000D02*
X126396189Y-101445238D01*
X126396189Y-101445238D02*
X126348570Y-101540476D01*
X126348570Y-101540476D02*
X126300951Y-101730952D01*
X126300951Y-101730952D02*
X126300951Y-101873809D01*
X126300951Y-101873809D02*
X126348570Y-102064285D01*
X126348570Y-102064285D02*
X126396189Y-102159523D01*
X126396189Y-102159523D02*
X126491427Y-102254761D01*
X126491427Y-102254761D02*
X126634284Y-102302380D01*
X126634284Y-102302380D02*
X126729522Y-102302380D01*
X126729522Y-102302380D02*
X126872379Y-102254761D01*
X126872379Y-102254761D02*
X126919998Y-102207142D01*
X126919998Y-102207142D02*
X126919998Y-101873809D01*
X126919998Y-101873809D02*
X126729522Y-101873809D01*
X127729522Y-102254761D02*
X127634284Y-102302380D01*
X127634284Y-102302380D02*
X127443808Y-102302380D01*
X127443808Y-102302380D02*
X127348570Y-102254761D01*
X127348570Y-102254761D02*
X127300951Y-102159523D01*
X127300951Y-102159523D02*
X127300951Y-101778571D01*
X127300951Y-101778571D02*
X127348570Y-101683333D01*
X127348570Y-101683333D02*
X127443808Y-101635714D01*
X127443808Y-101635714D02*
X127634284Y-101635714D01*
X127634284Y-101635714D02*
X127729522Y-101683333D01*
X127729522Y-101683333D02*
X127777141Y-101778571D01*
X127777141Y-101778571D02*
X127777141Y-101873809D01*
X127777141Y-101873809D02*
X127300951Y-101969047D01*
X128205713Y-101635714D02*
X128205713Y-102302380D01*
X128205713Y-101730952D02*
X128253332Y-101683333D01*
X128253332Y-101683333D02*
X128348570Y-101635714D01*
X128348570Y-101635714D02*
X128491427Y-101635714D01*
X128491427Y-101635714D02*
X128586665Y-101683333D01*
X128586665Y-101683333D02*
X128634284Y-101778571D01*
X128634284Y-101778571D02*
X128634284Y-102302380D01*
X129710475Y-102302380D02*
X129710475Y-101302380D01*
X130186665Y-101635714D02*
X130186665Y-102302380D01*
X130186665Y-101730952D02*
X130234284Y-101683333D01*
X130234284Y-101683333D02*
X130329522Y-101635714D01*
X130329522Y-101635714D02*
X130472379Y-101635714D01*
X130472379Y-101635714D02*
X130567617Y-101683333D01*
X130567617Y-101683333D02*
X130615236Y-101778571D01*
X130615236Y-101778571D02*
X130615236Y-102302380D01*
X130948570Y-101635714D02*
X131329522Y-101635714D01*
X131091427Y-101302380D02*
X131091427Y-102159523D01*
X131091427Y-102159523D02*
X131139046Y-102254761D01*
X131139046Y-102254761D02*
X131234284Y-102302380D01*
X131234284Y-102302380D02*
X131329522Y-102302380D01*
X132043808Y-102254761D02*
X131948570Y-102302380D01*
X131948570Y-102302380D02*
X131758094Y-102302380D01*
X131758094Y-102302380D02*
X131662856Y-102254761D01*
X131662856Y-102254761D02*
X131615237Y-102159523D01*
X131615237Y-102159523D02*
X131615237Y-101778571D01*
X131615237Y-101778571D02*
X131662856Y-101683333D01*
X131662856Y-101683333D02*
X131758094Y-101635714D01*
X131758094Y-101635714D02*
X131948570Y-101635714D01*
X131948570Y-101635714D02*
X132043808Y-101683333D01*
X132043808Y-101683333D02*
X132091427Y-101778571D01*
X132091427Y-101778571D02*
X132091427Y-101873809D01*
X132091427Y-101873809D02*
X131615237Y-101969047D01*
X132519999Y-102302380D02*
X132519999Y-101635714D01*
X132519999Y-101826190D02*
X132567618Y-101730952D01*
X132567618Y-101730952D02*
X132615237Y-101683333D01*
X132615237Y-101683333D02*
X132710475Y-101635714D01*
X132710475Y-101635714D02*
X132805713Y-101635714D01*
X133043809Y-101635714D02*
X133281904Y-102302380D01*
X133281904Y-102302380D02*
X133519999Y-101635714D01*
X134329523Y-102302380D02*
X134329523Y-101778571D01*
X134329523Y-101778571D02*
X134281904Y-101683333D01*
X134281904Y-101683333D02*
X134186666Y-101635714D01*
X134186666Y-101635714D02*
X133996190Y-101635714D01*
X133996190Y-101635714D02*
X133900952Y-101683333D01*
X134329523Y-102254761D02*
X134234285Y-102302380D01*
X134234285Y-102302380D02*
X133996190Y-102302380D01*
X133996190Y-102302380D02*
X133900952Y-102254761D01*
X133900952Y-102254761D02*
X133853333Y-102159523D01*
X133853333Y-102159523D02*
X133853333Y-102064285D01*
X133853333Y-102064285D02*
X133900952Y-101969047D01*
X133900952Y-101969047D02*
X133996190Y-101921428D01*
X133996190Y-101921428D02*
X134234285Y-101921428D01*
X134234285Y-101921428D02*
X134329523Y-101873809D01*
X134948571Y-102302380D02*
X134853333Y-102254761D01*
X134853333Y-102254761D02*
X134805714Y-102159523D01*
X134805714Y-102159523D02*
X134805714Y-101302380D01*
X135472381Y-102302380D02*
X135377143Y-102254761D01*
X135377143Y-102254761D02*
X135329524Y-102207142D01*
X135329524Y-102207142D02*
X135281905Y-102111904D01*
X135281905Y-102111904D02*
X135281905Y-101826190D01*
X135281905Y-101826190D02*
X135329524Y-101730952D01*
X135329524Y-101730952D02*
X135377143Y-101683333D01*
X135377143Y-101683333D02*
X135472381Y-101635714D01*
X135472381Y-101635714D02*
X135615238Y-101635714D01*
X135615238Y-101635714D02*
X135710476Y-101683333D01*
X135710476Y-101683333D02*
X135758095Y-101730952D01*
X135758095Y-101730952D02*
X135805714Y-101826190D01*
X135805714Y-101826190D02*
X135805714Y-102111904D01*
X135805714Y-102111904D02*
X135758095Y-102207142D01*
X135758095Y-102207142D02*
X135710476Y-102254761D01*
X135710476Y-102254761D02*
X135615238Y-102302380D01*
X135615238Y-102302380D02*
X135472381Y-102302380D01*
X136234286Y-102302380D02*
X136234286Y-101635714D01*
X136234286Y-101730952D02*
X136281905Y-101683333D01*
X136281905Y-101683333D02*
X136377143Y-101635714D01*
X136377143Y-101635714D02*
X136520000Y-101635714D01*
X136520000Y-101635714D02*
X136615238Y-101683333D01*
X136615238Y-101683333D02*
X136662857Y-101778571D01*
X136662857Y-101778571D02*
X136662857Y-102302380D01*
X136662857Y-101778571D02*
X136710476Y-101683333D01*
X136710476Y-101683333D02*
X136805714Y-101635714D01*
X136805714Y-101635714D02*
X136948571Y-101635714D01*
X136948571Y-101635714D02*
X137043810Y-101683333D01*
X137043810Y-101683333D02*
X137091429Y-101778571D01*
X137091429Y-101778571D02*
X137091429Y-102302380D01*
X137948571Y-102254761D02*
X137853333Y-102302380D01*
X137853333Y-102302380D02*
X137662857Y-102302380D01*
X137662857Y-102302380D02*
X137567619Y-102254761D01*
X137567619Y-102254761D02*
X137520000Y-102159523D01*
X137520000Y-102159523D02*
X137520000Y-101778571D01*
X137520000Y-101778571D02*
X137567619Y-101683333D01*
X137567619Y-101683333D02*
X137662857Y-101635714D01*
X137662857Y-101635714D02*
X137853333Y-101635714D01*
X137853333Y-101635714D02*
X137948571Y-101683333D01*
X137948571Y-101683333D02*
X137996190Y-101778571D01*
X137996190Y-101778571D02*
X137996190Y-101873809D01*
X137996190Y-101873809D02*
X137520000Y-101969047D01*
X138281905Y-101635714D02*
X138662857Y-101635714D01*
X138424762Y-101302380D02*
X138424762Y-102159523D01*
X138424762Y-102159523D02*
X138472381Y-102254761D01*
X138472381Y-102254761D02*
X138567619Y-102302380D01*
X138567619Y-102302380D02*
X138662857Y-102302380D01*
X139377143Y-102254761D02*
X139281905Y-102302380D01*
X139281905Y-102302380D02*
X139091429Y-102302380D01*
X139091429Y-102302380D02*
X138996191Y-102254761D01*
X138996191Y-102254761D02*
X138948572Y-102159523D01*
X138948572Y-102159523D02*
X138948572Y-101778571D01*
X138948572Y-101778571D02*
X138996191Y-101683333D01*
X138996191Y-101683333D02*
X139091429Y-101635714D01*
X139091429Y-101635714D02*
X139281905Y-101635714D01*
X139281905Y-101635714D02*
X139377143Y-101683333D01*
X139377143Y-101683333D02*
X139424762Y-101778571D01*
X139424762Y-101778571D02*
X139424762Y-101873809D01*
X139424762Y-101873809D02*
X138948572Y-101969047D01*
X139853334Y-102302380D02*
X139853334Y-101635714D01*
X139853334Y-101826190D02*
X139900953Y-101730952D01*
X139900953Y-101730952D02*
X139948572Y-101683333D01*
X139948572Y-101683333D02*
X140043810Y-101635714D01*
X140043810Y-101635714D02*
X140139048Y-101635714D01*
X141072382Y-101921428D02*
X141834287Y-101921428D01*
X143243810Y-101778571D02*
X143386667Y-101826190D01*
X143386667Y-101826190D02*
X143434286Y-101873809D01*
X143434286Y-101873809D02*
X143481905Y-101969047D01*
X143481905Y-101969047D02*
X143481905Y-102111904D01*
X143481905Y-102111904D02*
X143434286Y-102207142D01*
X143434286Y-102207142D02*
X143386667Y-102254761D01*
X143386667Y-102254761D02*
X143291429Y-102302380D01*
X143291429Y-102302380D02*
X142910477Y-102302380D01*
X142910477Y-102302380D02*
X142910477Y-101302380D01*
X142910477Y-101302380D02*
X143243810Y-101302380D01*
X143243810Y-101302380D02*
X143339048Y-101350000D01*
X143339048Y-101350000D02*
X143386667Y-101397619D01*
X143386667Y-101397619D02*
X143434286Y-101492857D01*
X143434286Y-101492857D02*
X143434286Y-101588095D01*
X143434286Y-101588095D02*
X143386667Y-101683333D01*
X143386667Y-101683333D02*
X143339048Y-101730952D01*
X143339048Y-101730952D02*
X143243810Y-101778571D01*
X143243810Y-101778571D02*
X142910477Y-101778571D01*
X144053334Y-102302380D02*
X143958096Y-102254761D01*
X143958096Y-102254761D02*
X143910477Y-102207142D01*
X143910477Y-102207142D02*
X143862858Y-102111904D01*
X143862858Y-102111904D02*
X143862858Y-101826190D01*
X143862858Y-101826190D02*
X143910477Y-101730952D01*
X143910477Y-101730952D02*
X143958096Y-101683333D01*
X143958096Y-101683333D02*
X144053334Y-101635714D01*
X144053334Y-101635714D02*
X144196191Y-101635714D01*
X144196191Y-101635714D02*
X144291429Y-101683333D01*
X144291429Y-101683333D02*
X144339048Y-101730952D01*
X144339048Y-101730952D02*
X144386667Y-101826190D01*
X144386667Y-101826190D02*
X144386667Y-102111904D01*
X144386667Y-102111904D02*
X144339048Y-102207142D01*
X144339048Y-102207142D02*
X144291429Y-102254761D01*
X144291429Y-102254761D02*
X144196191Y-102302380D01*
X144196191Y-102302380D02*
X144053334Y-102302380D01*
X145243810Y-102302380D02*
X145243810Y-101778571D01*
X145243810Y-101778571D02*
X145196191Y-101683333D01*
X145196191Y-101683333D02*
X145100953Y-101635714D01*
X145100953Y-101635714D02*
X144910477Y-101635714D01*
X144910477Y-101635714D02*
X144815239Y-101683333D01*
X145243810Y-102254761D02*
X145148572Y-102302380D01*
X145148572Y-102302380D02*
X144910477Y-102302380D01*
X144910477Y-102302380D02*
X144815239Y-102254761D01*
X144815239Y-102254761D02*
X144767620Y-102159523D01*
X144767620Y-102159523D02*
X144767620Y-102064285D01*
X144767620Y-102064285D02*
X144815239Y-101969047D01*
X144815239Y-101969047D02*
X144910477Y-101921428D01*
X144910477Y-101921428D02*
X145148572Y-101921428D01*
X145148572Y-101921428D02*
X145243810Y-101873809D01*
X145720001Y-102302380D02*
X145720001Y-101635714D01*
X145720001Y-101826190D02*
X145767620Y-101730952D01*
X145767620Y-101730952D02*
X145815239Y-101683333D01*
X145815239Y-101683333D02*
X145910477Y-101635714D01*
X145910477Y-101635714D02*
X146005715Y-101635714D01*
X146767620Y-102302380D02*
X146767620Y-101302380D01*
X146767620Y-102254761D02*
X146672382Y-102302380D01*
X146672382Y-102302380D02*
X146481906Y-102302380D01*
X146481906Y-102302380D02*
X146386668Y-102254761D01*
X146386668Y-102254761D02*
X146339049Y-102207142D01*
X146339049Y-102207142D02*
X146291430Y-102111904D01*
X146291430Y-102111904D02*
X146291430Y-101826190D01*
X146291430Y-101826190D02*
X146339049Y-101730952D01*
X146339049Y-101730952D02*
X146386668Y-101683333D01*
X146386668Y-101683333D02*
X146481906Y-101635714D01*
X146481906Y-101635714D02*
X146672382Y-101635714D01*
X146672382Y-101635714D02*
X146767620Y-101683333D01*
X147700954Y-101302380D02*
X148034287Y-102302380D01*
X148034287Y-102302380D02*
X148367620Y-101302380D01*
X149224763Y-102302380D02*
X148653335Y-102302380D01*
X148939049Y-102302380D02*
X148939049Y-101302380D01*
X148939049Y-101302380D02*
X148843811Y-101445238D01*
X148843811Y-101445238D02*
X148748573Y-101540476D01*
X148748573Y-101540476D02*
X148653335Y-101588095D01*
X149653335Y-102207142D02*
X149700954Y-102254761D01*
X149700954Y-102254761D02*
X149653335Y-102302380D01*
X149653335Y-102302380D02*
X149605716Y-102254761D01*
X149605716Y-102254761D02*
X149653335Y-102207142D01*
X149653335Y-102207142D02*
X149653335Y-102302380D01*
X150320001Y-101302380D02*
X150415239Y-101302380D01*
X150415239Y-101302380D02*
X150510477Y-101350000D01*
X150510477Y-101350000D02*
X150558096Y-101397619D01*
X150558096Y-101397619D02*
X150605715Y-101492857D01*
X150605715Y-101492857D02*
X150653334Y-101683333D01*
X150653334Y-101683333D02*
X150653334Y-101921428D01*
X150653334Y-101921428D02*
X150605715Y-102111904D01*
X150605715Y-102111904D02*
X150558096Y-102207142D01*
X150558096Y-102207142D02*
X150510477Y-102254761D01*
X150510477Y-102254761D02*
X150415239Y-102302380D01*
X150415239Y-102302380D02*
X150320001Y-102302380D01*
X150320001Y-102302380D02*
X150224763Y-102254761D01*
X150224763Y-102254761D02*
X150177144Y-102207142D01*
X150177144Y-102207142D02*
X150129525Y-102111904D01*
X150129525Y-102111904D02*
X150081906Y-101921428D01*
X150081906Y-101921428D02*
X150081906Y-101683333D01*
X150081906Y-101683333D02*
X150129525Y-101492857D01*
X150129525Y-101492857D02*
X150177144Y-101397619D01*
X150177144Y-101397619D02*
X150224763Y-101350000D01*
X150224763Y-101350000D02*
X150320001Y-101302380D01*
X123086664Y-103827142D02*
X123039045Y-103874761D01*
X123039045Y-103874761D02*
X122896188Y-103922380D01*
X122896188Y-103922380D02*
X122800950Y-103922380D01*
X122800950Y-103922380D02*
X122658093Y-103874761D01*
X122658093Y-103874761D02*
X122562855Y-103779523D01*
X122562855Y-103779523D02*
X122515236Y-103684285D01*
X122515236Y-103684285D02*
X122467617Y-103493809D01*
X122467617Y-103493809D02*
X122467617Y-103350952D01*
X122467617Y-103350952D02*
X122515236Y-103160476D01*
X122515236Y-103160476D02*
X122562855Y-103065238D01*
X122562855Y-103065238D02*
X122658093Y-102970000D01*
X122658093Y-102970000D02*
X122800950Y-102922380D01*
X122800950Y-102922380D02*
X122896188Y-102922380D01*
X122896188Y-102922380D02*
X123039045Y-102970000D01*
X123039045Y-102970000D02*
X123086664Y-103017619D01*
X123658093Y-103922380D02*
X123562855Y-103874761D01*
X123562855Y-103874761D02*
X123515236Y-103827142D01*
X123515236Y-103827142D02*
X123467617Y-103731904D01*
X123467617Y-103731904D02*
X123467617Y-103446190D01*
X123467617Y-103446190D02*
X123515236Y-103350952D01*
X123515236Y-103350952D02*
X123562855Y-103303333D01*
X123562855Y-103303333D02*
X123658093Y-103255714D01*
X123658093Y-103255714D02*
X123800950Y-103255714D01*
X123800950Y-103255714D02*
X123896188Y-103303333D01*
X123896188Y-103303333D02*
X123943807Y-103350952D01*
X123943807Y-103350952D02*
X123991426Y-103446190D01*
X123991426Y-103446190D02*
X123991426Y-103731904D01*
X123991426Y-103731904D02*
X123943807Y-103827142D01*
X123943807Y-103827142D02*
X123896188Y-103874761D01*
X123896188Y-103874761D02*
X123800950Y-103922380D01*
X123800950Y-103922380D02*
X123658093Y-103922380D01*
X124419998Y-103255714D02*
X124419998Y-104255714D01*
X124419998Y-103303333D02*
X124515236Y-103255714D01*
X124515236Y-103255714D02*
X124705712Y-103255714D01*
X124705712Y-103255714D02*
X124800950Y-103303333D01*
X124800950Y-103303333D02*
X124848569Y-103350952D01*
X124848569Y-103350952D02*
X124896188Y-103446190D01*
X124896188Y-103446190D02*
X124896188Y-103731904D01*
X124896188Y-103731904D02*
X124848569Y-103827142D01*
X124848569Y-103827142D02*
X124800950Y-103874761D01*
X124800950Y-103874761D02*
X124705712Y-103922380D01*
X124705712Y-103922380D02*
X124515236Y-103922380D01*
X124515236Y-103922380D02*
X124419998Y-103874761D01*
X125229522Y-103255714D02*
X125467617Y-103922380D01*
X125705712Y-103255714D02*
X125467617Y-103922380D01*
X125467617Y-103922380D02*
X125372379Y-104160476D01*
X125372379Y-104160476D02*
X125324760Y-104208095D01*
X125324760Y-104208095D02*
X125229522Y-104255714D01*
X126086665Y-103922380D02*
X126086665Y-103255714D01*
X126086665Y-103446190D02*
X126134284Y-103350952D01*
X126134284Y-103350952D02*
X126181903Y-103303333D01*
X126181903Y-103303333D02*
X126277141Y-103255714D01*
X126277141Y-103255714D02*
X126372379Y-103255714D01*
X126705713Y-103922380D02*
X126705713Y-103255714D01*
X126705713Y-102922380D02*
X126658094Y-102970000D01*
X126658094Y-102970000D02*
X126705713Y-103017619D01*
X126705713Y-103017619D02*
X126753332Y-102970000D01*
X126753332Y-102970000D02*
X126705713Y-102922380D01*
X126705713Y-102922380D02*
X126705713Y-103017619D01*
X127610474Y-103255714D02*
X127610474Y-104065238D01*
X127610474Y-104065238D02*
X127562855Y-104160476D01*
X127562855Y-104160476D02*
X127515236Y-104208095D01*
X127515236Y-104208095D02*
X127419998Y-104255714D01*
X127419998Y-104255714D02*
X127277141Y-104255714D01*
X127277141Y-104255714D02*
X127181903Y-104208095D01*
X127610474Y-103874761D02*
X127515236Y-103922380D01*
X127515236Y-103922380D02*
X127324760Y-103922380D01*
X127324760Y-103922380D02*
X127229522Y-103874761D01*
X127229522Y-103874761D02*
X127181903Y-103827142D01*
X127181903Y-103827142D02*
X127134284Y-103731904D01*
X127134284Y-103731904D02*
X127134284Y-103446190D01*
X127134284Y-103446190D02*
X127181903Y-103350952D01*
X127181903Y-103350952D02*
X127229522Y-103303333D01*
X127229522Y-103303333D02*
X127324760Y-103255714D01*
X127324760Y-103255714D02*
X127515236Y-103255714D01*
X127515236Y-103255714D02*
X127610474Y-103303333D01*
X128086665Y-103922380D02*
X128086665Y-102922380D01*
X128515236Y-103922380D02*
X128515236Y-103398571D01*
X128515236Y-103398571D02*
X128467617Y-103303333D01*
X128467617Y-103303333D02*
X128372379Y-103255714D01*
X128372379Y-103255714D02*
X128229522Y-103255714D01*
X128229522Y-103255714D02*
X128134284Y-103303333D01*
X128134284Y-103303333D02*
X128086665Y-103350952D01*
X128848570Y-103255714D02*
X129229522Y-103255714D01*
X128991427Y-102922380D02*
X128991427Y-103779523D01*
X128991427Y-103779523D02*
X129039046Y-103874761D01*
X129039046Y-103874761D02*
X129134284Y-103922380D01*
X129134284Y-103922380D02*
X129229522Y-103922380D01*
X130972380Y-103160476D02*
X130877141Y-103112857D01*
X130877141Y-103112857D02*
X130686665Y-103112857D01*
X130686665Y-103112857D02*
X130591427Y-103160476D01*
X130591427Y-103160476D02*
X130496189Y-103255714D01*
X130496189Y-103255714D02*
X130448570Y-103350952D01*
X130448570Y-103350952D02*
X130448570Y-103541428D01*
X130448570Y-103541428D02*
X130496189Y-103636666D01*
X130496189Y-103636666D02*
X130591427Y-103731904D01*
X130591427Y-103731904D02*
X130686665Y-103779523D01*
X130686665Y-103779523D02*
X130877141Y-103779523D01*
X130877141Y-103779523D02*
X130972380Y-103731904D01*
X130781903Y-102779523D02*
X130543808Y-102827142D01*
X130543808Y-102827142D02*
X130305713Y-102970000D01*
X130305713Y-102970000D02*
X130162856Y-103208095D01*
X130162856Y-103208095D02*
X130115237Y-103446190D01*
X130115237Y-103446190D02*
X130162856Y-103684285D01*
X130162856Y-103684285D02*
X130305713Y-103922380D01*
X130305713Y-103922380D02*
X130543808Y-104065238D01*
X130543808Y-104065238D02*
X130781903Y-104112857D01*
X130781903Y-104112857D02*
X131019999Y-104065238D01*
X131019999Y-104065238D02*
X131258094Y-103922380D01*
X131258094Y-103922380D02*
X131400951Y-103684285D01*
X131400951Y-103684285D02*
X131448570Y-103446190D01*
X131448570Y-103446190D02*
X131400951Y-103208095D01*
X131400951Y-103208095D02*
X131258094Y-102970000D01*
X131258094Y-102970000D02*
X131019999Y-102827142D01*
X131019999Y-102827142D02*
X130781903Y-102779523D01*
X133048570Y-103827142D02*
X133000951Y-103874761D01*
X133000951Y-103874761D02*
X132858094Y-103922380D01*
X132858094Y-103922380D02*
X132762856Y-103922380D01*
X132762856Y-103922380D02*
X132619999Y-103874761D01*
X132619999Y-103874761D02*
X132524761Y-103779523D01*
X132524761Y-103779523D02*
X132477142Y-103684285D01*
X132477142Y-103684285D02*
X132429523Y-103493809D01*
X132429523Y-103493809D02*
X132429523Y-103350952D01*
X132429523Y-103350952D02*
X132477142Y-103160476D01*
X132477142Y-103160476D02*
X132524761Y-103065238D01*
X132524761Y-103065238D02*
X132619999Y-102970000D01*
X132619999Y-102970000D02*
X132762856Y-102922380D01*
X132762856Y-102922380D02*
X132858094Y-102922380D01*
X132858094Y-102922380D02*
X133000951Y-102970000D01*
X133000951Y-102970000D02*
X133048570Y-103017619D01*
X133905713Y-103922380D02*
X133905713Y-103398571D01*
X133905713Y-103398571D02*
X133858094Y-103303333D01*
X133858094Y-103303333D02*
X133762856Y-103255714D01*
X133762856Y-103255714D02*
X133572380Y-103255714D01*
X133572380Y-103255714D02*
X133477142Y-103303333D01*
X133905713Y-103874761D02*
X133810475Y-103922380D01*
X133810475Y-103922380D02*
X133572380Y-103922380D01*
X133572380Y-103922380D02*
X133477142Y-103874761D01*
X133477142Y-103874761D02*
X133429523Y-103779523D01*
X133429523Y-103779523D02*
X133429523Y-103684285D01*
X133429523Y-103684285D02*
X133477142Y-103589047D01*
X133477142Y-103589047D02*
X133572380Y-103541428D01*
X133572380Y-103541428D02*
X133810475Y-103541428D01*
X133810475Y-103541428D02*
X133905713Y-103493809D01*
X134381904Y-103922380D02*
X134381904Y-103255714D01*
X134381904Y-103446190D02*
X134429523Y-103350952D01*
X134429523Y-103350952D02*
X134477142Y-103303333D01*
X134477142Y-103303333D02*
X134572380Y-103255714D01*
X134572380Y-103255714D02*
X134667618Y-103255714D01*
X135143809Y-103922380D02*
X135048571Y-103874761D01*
X135048571Y-103874761D02*
X135000952Y-103779523D01*
X135000952Y-103779523D02*
X135000952Y-102922380D01*
X135981905Y-102922380D02*
X136553333Y-102922380D01*
X136267619Y-103922380D02*
X136267619Y-102922380D01*
X136886667Y-103922380D02*
X136886667Y-103255714D01*
X136886667Y-103446190D02*
X136934286Y-103350952D01*
X136934286Y-103350952D02*
X136981905Y-103303333D01*
X136981905Y-103303333D02*
X137077143Y-103255714D01*
X137077143Y-103255714D02*
X137172381Y-103255714D01*
X137886667Y-103874761D02*
X137791429Y-103922380D01*
X137791429Y-103922380D02*
X137600953Y-103922380D01*
X137600953Y-103922380D02*
X137505715Y-103874761D01*
X137505715Y-103874761D02*
X137458096Y-103779523D01*
X137458096Y-103779523D02*
X137458096Y-103398571D01*
X137458096Y-103398571D02*
X137505715Y-103303333D01*
X137505715Y-103303333D02*
X137600953Y-103255714D01*
X137600953Y-103255714D02*
X137791429Y-103255714D01*
X137791429Y-103255714D02*
X137886667Y-103303333D01*
X137886667Y-103303333D02*
X137934286Y-103398571D01*
X137934286Y-103398571D02*
X137934286Y-103493809D01*
X137934286Y-103493809D02*
X137458096Y-103589047D01*
X138362858Y-103922380D02*
X138362858Y-103255714D01*
X138362858Y-103350952D02*
X138410477Y-103303333D01*
X138410477Y-103303333D02*
X138505715Y-103255714D01*
X138505715Y-103255714D02*
X138648572Y-103255714D01*
X138648572Y-103255714D02*
X138743810Y-103303333D01*
X138743810Y-103303333D02*
X138791429Y-103398571D01*
X138791429Y-103398571D02*
X138791429Y-103922380D01*
X138791429Y-103398571D02*
X138839048Y-103303333D01*
X138839048Y-103303333D02*
X138934286Y-103255714D01*
X138934286Y-103255714D02*
X139077143Y-103255714D01*
X139077143Y-103255714D02*
X139172382Y-103303333D01*
X139172382Y-103303333D02*
X139220001Y-103398571D01*
X139220001Y-103398571D02*
X139220001Y-103922380D01*
X139696191Y-103922380D02*
X139696191Y-102922380D01*
X139696191Y-103303333D02*
X139791429Y-103255714D01*
X139791429Y-103255714D02*
X139981905Y-103255714D01*
X139981905Y-103255714D02*
X140077143Y-103303333D01*
X140077143Y-103303333D02*
X140124762Y-103350952D01*
X140124762Y-103350952D02*
X140172381Y-103446190D01*
X140172381Y-103446190D02*
X140172381Y-103731904D01*
X140172381Y-103731904D02*
X140124762Y-103827142D01*
X140124762Y-103827142D02*
X140077143Y-103874761D01*
X140077143Y-103874761D02*
X139981905Y-103922380D01*
X139981905Y-103922380D02*
X139791429Y-103922380D01*
X139791429Y-103922380D02*
X139696191Y-103874761D01*
X140743810Y-103922380D02*
X140648572Y-103874761D01*
X140648572Y-103874761D02*
X140600953Y-103779523D01*
X140600953Y-103779523D02*
X140600953Y-102922380D01*
X141553334Y-103922380D02*
X141553334Y-103398571D01*
X141553334Y-103398571D02*
X141505715Y-103303333D01*
X141505715Y-103303333D02*
X141410477Y-103255714D01*
X141410477Y-103255714D02*
X141220001Y-103255714D01*
X141220001Y-103255714D02*
X141124763Y-103303333D01*
X141553334Y-103874761D02*
X141458096Y-103922380D01*
X141458096Y-103922380D02*
X141220001Y-103922380D01*
X141220001Y-103922380D02*
X141124763Y-103874761D01*
X141124763Y-103874761D02*
X141077144Y-103779523D01*
X141077144Y-103779523D02*
X141077144Y-103684285D01*
X141077144Y-103684285D02*
X141124763Y-103589047D01*
X141124763Y-103589047D02*
X141220001Y-103541428D01*
X141220001Y-103541428D02*
X141458096Y-103541428D01*
X141458096Y-103541428D02*
X141553334Y-103493809D01*
X141934287Y-103255714D02*
X142172382Y-103922380D01*
X142410477Y-103255714D02*
X142172382Y-103922380D01*
X142172382Y-103922380D02*
X142077144Y-104160476D01*
X142077144Y-104160476D02*
X142029525Y-104208095D01*
X142029525Y-104208095D02*
X141934287Y-104255714D01*
X143343811Y-103017619D02*
X143391430Y-102970000D01*
X143391430Y-102970000D02*
X143486668Y-102922380D01*
X143486668Y-102922380D02*
X143724763Y-102922380D01*
X143724763Y-102922380D02*
X143820001Y-102970000D01*
X143820001Y-102970000D02*
X143867620Y-103017619D01*
X143867620Y-103017619D02*
X143915239Y-103112857D01*
X143915239Y-103112857D02*
X143915239Y-103208095D01*
X143915239Y-103208095D02*
X143867620Y-103350952D01*
X143867620Y-103350952D02*
X143296192Y-103922380D01*
X143296192Y-103922380D02*
X143915239Y-103922380D01*
X144534287Y-102922380D02*
X144629525Y-102922380D01*
X144629525Y-102922380D02*
X144724763Y-102970000D01*
X144724763Y-102970000D02*
X144772382Y-103017619D01*
X144772382Y-103017619D02*
X144820001Y-103112857D01*
X144820001Y-103112857D02*
X144867620Y-103303333D01*
X144867620Y-103303333D02*
X144867620Y-103541428D01*
X144867620Y-103541428D02*
X144820001Y-103731904D01*
X144820001Y-103731904D02*
X144772382Y-103827142D01*
X144772382Y-103827142D02*
X144724763Y-103874761D01*
X144724763Y-103874761D02*
X144629525Y-103922380D01*
X144629525Y-103922380D02*
X144534287Y-103922380D01*
X144534287Y-103922380D02*
X144439049Y-103874761D01*
X144439049Y-103874761D02*
X144391430Y-103827142D01*
X144391430Y-103827142D02*
X144343811Y-103731904D01*
X144343811Y-103731904D02*
X144296192Y-103541428D01*
X144296192Y-103541428D02*
X144296192Y-103303333D01*
X144296192Y-103303333D02*
X144343811Y-103112857D01*
X144343811Y-103112857D02*
X144391430Y-103017619D01*
X144391430Y-103017619D02*
X144439049Y-102970000D01*
X144439049Y-102970000D02*
X144534287Y-102922380D01*
X145248573Y-103017619D02*
X145296192Y-102970000D01*
X145296192Y-102970000D02*
X145391430Y-102922380D01*
X145391430Y-102922380D02*
X145629525Y-102922380D01*
X145629525Y-102922380D02*
X145724763Y-102970000D01*
X145724763Y-102970000D02*
X145772382Y-103017619D01*
X145772382Y-103017619D02*
X145820001Y-103112857D01*
X145820001Y-103112857D02*
X145820001Y-103208095D01*
X145820001Y-103208095D02*
X145772382Y-103350952D01*
X145772382Y-103350952D02*
X145200954Y-103922380D01*
X145200954Y-103922380D02*
X145820001Y-103922380D01*
X146153335Y-102922380D02*
X146772382Y-102922380D01*
X146772382Y-102922380D02*
X146439049Y-103303333D01*
X146439049Y-103303333D02*
X146581906Y-103303333D01*
X146581906Y-103303333D02*
X146677144Y-103350952D01*
X146677144Y-103350952D02*
X146724763Y-103398571D01*
X146724763Y-103398571D02*
X146772382Y-103493809D01*
X146772382Y-103493809D02*
X146772382Y-103731904D01*
X146772382Y-103731904D02*
X146724763Y-103827142D01*
X146724763Y-103827142D02*
X146677144Y-103874761D01*
X146677144Y-103874761D02*
X146581906Y-103922380D01*
X146581906Y-103922380D02*
X146296192Y-103922380D01*
X146296192Y-103922380D02*
X146200954Y-103874761D01*
X146200954Y-103874761D02*
X146153335Y-103827142D01*
%TO.C,U2*%
X154864511Y-77642525D02*
X155674035Y-77642525D01*
X155674035Y-77642525D02*
X155769273Y-77594906D01*
X155769273Y-77594906D02*
X155816892Y-77547287D01*
X155816892Y-77547287D02*
X155864511Y-77452049D01*
X155864511Y-77452049D02*
X155864511Y-77261573D01*
X155864511Y-77261573D02*
X155816892Y-77166335D01*
X155816892Y-77166335D02*
X155769273Y-77118716D01*
X155769273Y-77118716D02*
X155674035Y-77071097D01*
X155674035Y-77071097D02*
X154864511Y-77071097D01*
X154959750Y-76642525D02*
X154912131Y-76594906D01*
X154912131Y-76594906D02*
X154864511Y-76499668D01*
X154864511Y-76499668D02*
X154864511Y-76261573D01*
X154864511Y-76261573D02*
X154912131Y-76166335D01*
X154912131Y-76166335D02*
X154959750Y-76118716D01*
X154959750Y-76118716D02*
X155054988Y-76071097D01*
X155054988Y-76071097D02*
X155150226Y-76071097D01*
X155150226Y-76071097D02*
X155293083Y-76118716D01*
X155293083Y-76118716D02*
X155864511Y-76690144D01*
X155864511Y-76690144D02*
X155864511Y-76071097D01*
%TO.C,U1*%
X155444546Y-99593905D02*
X155444546Y-100403429D01*
X155444546Y-100403429D02*
X155492165Y-100498667D01*
X155492165Y-100498667D02*
X155539784Y-100546286D01*
X155539784Y-100546286D02*
X155635022Y-100593905D01*
X155635022Y-100593905D02*
X155825498Y-100593905D01*
X155825498Y-100593905D02*
X155920736Y-100546286D01*
X155920736Y-100546286D02*
X155968355Y-100498667D01*
X155968355Y-100498667D02*
X156015974Y-100403429D01*
X156015974Y-100403429D02*
X156015974Y-99593905D01*
X157015974Y-100593905D02*
X156444546Y-100593905D01*
X156730260Y-100593905D02*
X156730260Y-99593905D01*
X156730260Y-99593905D02*
X156635022Y-99736763D01*
X156635022Y-99736763D02*
X156539784Y-99832001D01*
X156539784Y-99832001D02*
X156444546Y-99879620D01*
%TO.C,J6*%
X145627046Y-81366173D02*
X145627046Y-82080459D01*
X145627046Y-82080459D02*
X145579427Y-82223316D01*
X145579427Y-82223316D02*
X145484189Y-82318554D01*
X145484189Y-82318554D02*
X145341332Y-82366173D01*
X145341332Y-82366173D02*
X145246094Y-82366173D01*
X146531808Y-81366173D02*
X146341332Y-81366173D01*
X146341332Y-81366173D02*
X146246094Y-81413793D01*
X146246094Y-81413793D02*
X146198475Y-81461412D01*
X146198475Y-81461412D02*
X146103237Y-81604269D01*
X146103237Y-81604269D02*
X146055618Y-81794745D01*
X146055618Y-81794745D02*
X146055618Y-82175697D01*
X146055618Y-82175697D02*
X146103237Y-82270935D01*
X146103237Y-82270935D02*
X146150856Y-82318554D01*
X146150856Y-82318554D02*
X146246094Y-82366173D01*
X146246094Y-82366173D02*
X146436570Y-82366173D01*
X146436570Y-82366173D02*
X146531808Y-82318554D01*
X146531808Y-82318554D02*
X146579427Y-82270935D01*
X146579427Y-82270935D02*
X146627046Y-82175697D01*
X146627046Y-82175697D02*
X146627046Y-81937602D01*
X146627046Y-81937602D02*
X146579427Y-81842364D01*
X146579427Y-81842364D02*
X146531808Y-81794745D01*
X146531808Y-81794745D02*
X146436570Y-81747126D01*
X146436570Y-81747126D02*
X146246094Y-81747126D01*
X146246094Y-81747126D02*
X146150856Y-81794745D01*
X146150856Y-81794745D02*
X146103237Y-81842364D01*
X146103237Y-81842364D02*
X146055618Y-81937602D01*
%TO.C,J5*%
X145627046Y-86098429D02*
X145627046Y-86812715D01*
X145627046Y-86812715D02*
X145579427Y-86955572D01*
X145579427Y-86955572D02*
X145484189Y-87050810D01*
X145484189Y-87050810D02*
X145341332Y-87098429D01*
X145341332Y-87098429D02*
X145246094Y-87098429D01*
X146579427Y-86098429D02*
X146103237Y-86098429D01*
X146103237Y-86098429D02*
X146055618Y-86574620D01*
X146055618Y-86574620D02*
X146103237Y-86527001D01*
X146103237Y-86527001D02*
X146198475Y-86479382D01*
X146198475Y-86479382D02*
X146436570Y-86479382D01*
X146436570Y-86479382D02*
X146531808Y-86527001D01*
X146531808Y-86527001D02*
X146579427Y-86574620D01*
X146579427Y-86574620D02*
X146627046Y-86669858D01*
X146627046Y-86669858D02*
X146627046Y-86907953D01*
X146627046Y-86907953D02*
X146579427Y-87003191D01*
X146579427Y-87003191D02*
X146531808Y-87050810D01*
X146531808Y-87050810D02*
X146436570Y-87098429D01*
X146436570Y-87098429D02*
X146198475Y-87098429D01*
X146198475Y-87098429D02*
X146103237Y-87050810D01*
X146103237Y-87050810D02*
X146055618Y-87003191D01*
%TO.C,J10*%
X154967524Y-99822617D02*
X154967524Y-100536903D01*
X154967524Y-100536903D02*
X154919905Y-100679760D01*
X154919905Y-100679760D02*
X154824667Y-100774998D01*
X154824667Y-100774998D02*
X154681810Y-100822617D01*
X154681810Y-100822617D02*
X154586572Y-100822617D01*
X155967524Y-100822617D02*
X155396096Y-100822617D01*
X155681810Y-100822617D02*
X155681810Y-99822617D01*
X155681810Y-99822617D02*
X155586572Y-99965475D01*
X155586572Y-99965475D02*
X155491334Y-100060713D01*
X155491334Y-100060713D02*
X155396096Y-100108332D01*
X156586572Y-99822617D02*
X156681810Y-99822617D01*
X156681810Y-99822617D02*
X156777048Y-99870237D01*
X156777048Y-99870237D02*
X156824667Y-99917856D01*
X156824667Y-99917856D02*
X156872286Y-100013094D01*
X156872286Y-100013094D02*
X156919905Y-100203570D01*
X156919905Y-100203570D02*
X156919905Y-100441665D01*
X156919905Y-100441665D02*
X156872286Y-100632141D01*
X156872286Y-100632141D02*
X156824667Y-100727379D01*
X156824667Y-100727379D02*
X156777048Y-100774998D01*
X156777048Y-100774998D02*
X156681810Y-100822617D01*
X156681810Y-100822617D02*
X156586572Y-100822617D01*
X156586572Y-100822617D02*
X156491334Y-100774998D01*
X156491334Y-100774998D02*
X156443715Y-100727379D01*
X156443715Y-100727379D02*
X156396096Y-100632141D01*
X156396096Y-100632141D02*
X156348477Y-100441665D01*
X156348477Y-100441665D02*
X156348477Y-100203570D01*
X156348477Y-100203570D02*
X156396096Y-100013094D01*
X156396096Y-100013094D02*
X156443715Y-99917856D01*
X156443715Y-99917856D02*
X156491334Y-99870237D01*
X156491334Y-99870237D02*
X156586572Y-99822617D01*
%TO.C,J9*%
X154871099Y-74859585D02*
X154871099Y-75573871D01*
X154871099Y-75573871D02*
X154823480Y-75716728D01*
X154823480Y-75716728D02*
X154728242Y-75811966D01*
X154728242Y-75811966D02*
X154585385Y-75859585D01*
X154585385Y-75859585D02*
X154490147Y-75859585D01*
X155394909Y-75859585D02*
X155585385Y-75859585D01*
X155585385Y-75859585D02*
X155680623Y-75811966D01*
X155680623Y-75811966D02*
X155728242Y-75764347D01*
X155728242Y-75764347D02*
X155823480Y-75621490D01*
X155823480Y-75621490D02*
X155871099Y-75431014D01*
X155871099Y-75431014D02*
X155871099Y-75050062D01*
X155871099Y-75050062D02*
X155823480Y-74954824D01*
X155823480Y-74954824D02*
X155775861Y-74907205D01*
X155775861Y-74907205D02*
X155680623Y-74859585D01*
X155680623Y-74859585D02*
X155490147Y-74859585D01*
X155490147Y-74859585D02*
X155394909Y-74907205D01*
X155394909Y-74907205D02*
X155347290Y-74954824D01*
X155347290Y-74954824D02*
X155299671Y-75050062D01*
X155299671Y-75050062D02*
X155299671Y-75288157D01*
X155299671Y-75288157D02*
X155347290Y-75383395D01*
X155347290Y-75383395D02*
X155394909Y-75431014D01*
X155394909Y-75431014D02*
X155490147Y-75478633D01*
X155490147Y-75478633D02*
X155680623Y-75478633D01*
X155680623Y-75478633D02*
X155775861Y-75431014D01*
X155775861Y-75431014D02*
X155823480Y-75383395D01*
X155823480Y-75383395D02*
X155871099Y-75288157D01*
%TO.C,J14*%
X144556521Y-90807380D02*
X144556521Y-91521666D01*
X144556521Y-91521666D02*
X144508902Y-91664523D01*
X144508902Y-91664523D02*
X144413664Y-91759761D01*
X144413664Y-91759761D02*
X144270807Y-91807380D01*
X144270807Y-91807380D02*
X144175569Y-91807380D01*
X145556521Y-91807380D02*
X144985093Y-91807380D01*
X145270807Y-91807380D02*
X145270807Y-90807380D01*
X145270807Y-90807380D02*
X145175569Y-90950238D01*
X145175569Y-90950238D02*
X145080331Y-91045476D01*
X145080331Y-91045476D02*
X144985093Y-91093095D01*
X146413664Y-91140714D02*
X146413664Y-91807380D01*
X146175569Y-90759761D02*
X145937474Y-91474047D01*
X145937474Y-91474047D02*
X146556521Y-91474047D01*
%TO.C,J13*%
X144814093Y-94227240D02*
X144814093Y-94941526D01*
X144814093Y-94941526D02*
X144766474Y-95084383D01*
X144766474Y-95084383D02*
X144671236Y-95179621D01*
X144671236Y-95179621D02*
X144528379Y-95227240D01*
X144528379Y-95227240D02*
X144433141Y-95227240D01*
X145814093Y-95227240D02*
X145242665Y-95227240D01*
X145528379Y-95227240D02*
X145528379Y-94227240D01*
X145528379Y-94227240D02*
X145433141Y-94370098D01*
X145433141Y-94370098D02*
X145337903Y-94465336D01*
X145337903Y-94465336D02*
X145242665Y-94512955D01*
X146147427Y-94227240D02*
X146766474Y-94227240D01*
X146766474Y-94227240D02*
X146433141Y-94608193D01*
X146433141Y-94608193D02*
X146575998Y-94608193D01*
X146575998Y-94608193D02*
X146671236Y-94655812D01*
X146671236Y-94655812D02*
X146718855Y-94703431D01*
X146718855Y-94703431D02*
X146766474Y-94798669D01*
X146766474Y-94798669D02*
X146766474Y-95036764D01*
X146766474Y-95036764D02*
X146718855Y-95132002D01*
X146718855Y-95132002D02*
X146671236Y-95179621D01*
X146671236Y-95179621D02*
X146575998Y-95227240D01*
X146575998Y-95227240D02*
X146290284Y-95227240D01*
X146290284Y-95227240D02*
X146195046Y-95179621D01*
X146195046Y-95179621D02*
X146147427Y-95132002D01*
%TO.C,J12*%
X134259492Y-81708550D02*
X134259492Y-82422836D01*
X134259492Y-82422836D02*
X134211873Y-82565693D01*
X134211873Y-82565693D02*
X134116635Y-82660931D01*
X134116635Y-82660931D02*
X133973778Y-82708550D01*
X133973778Y-82708550D02*
X133878540Y-82708550D01*
X135259492Y-82708550D02*
X134688064Y-82708550D01*
X134973778Y-82708550D02*
X134973778Y-81708550D01*
X134973778Y-81708550D02*
X134878540Y-81851408D01*
X134878540Y-81851408D02*
X134783302Y-81946646D01*
X134783302Y-81946646D02*
X134688064Y-81994265D01*
X135640445Y-81803789D02*
X135688064Y-81756170D01*
X135688064Y-81756170D02*
X135783302Y-81708550D01*
X135783302Y-81708550D02*
X136021397Y-81708550D01*
X136021397Y-81708550D02*
X136116635Y-81756170D01*
X136116635Y-81756170D02*
X136164254Y-81803789D01*
X136164254Y-81803789D02*
X136211873Y-81899027D01*
X136211873Y-81899027D02*
X136211873Y-81994265D01*
X136211873Y-81994265D02*
X136164254Y-82137122D01*
X136164254Y-82137122D02*
X135592826Y-82708550D01*
X135592826Y-82708550D02*
X136211873Y-82708550D01*
%TO.C,J11*%
X134248647Y-79319655D02*
X134248647Y-80033941D01*
X134248647Y-80033941D02*
X134201028Y-80176798D01*
X134201028Y-80176798D02*
X134105790Y-80272036D01*
X134105790Y-80272036D02*
X133962933Y-80319655D01*
X133962933Y-80319655D02*
X133867695Y-80319655D01*
X135248647Y-80319655D02*
X134677219Y-80319655D01*
X134962933Y-80319655D02*
X134962933Y-79319655D01*
X134962933Y-79319655D02*
X134867695Y-79462513D01*
X134867695Y-79462513D02*
X134772457Y-79557751D01*
X134772457Y-79557751D02*
X134677219Y-79605370D01*
X136201028Y-80319655D02*
X135629600Y-80319655D01*
X135915314Y-80319655D02*
X135915314Y-79319655D01*
X135915314Y-79319655D02*
X135820076Y-79462513D01*
X135820076Y-79462513D02*
X135724838Y-79557751D01*
X135724838Y-79557751D02*
X135629600Y-79605370D01*
%TO.C,J7*%
X160677527Y-77541930D02*
X161391813Y-77541930D01*
X161391813Y-77541930D02*
X161534670Y-77589549D01*
X161534670Y-77589549D02*
X161629908Y-77684787D01*
X161629908Y-77684787D02*
X161677527Y-77827644D01*
X161677527Y-77827644D02*
X161677527Y-77922882D01*
X160677527Y-77160977D02*
X160677527Y-76494311D01*
X160677527Y-76494311D02*
X161677527Y-76922882D01*
%TO.C,J8*%
X160860626Y-98687255D02*
X161574912Y-98687255D01*
X161574912Y-98687255D02*
X161717769Y-98734874D01*
X161717769Y-98734874D02*
X161813007Y-98830112D01*
X161813007Y-98830112D02*
X161860626Y-98972969D01*
X161860626Y-98972969D02*
X161860626Y-99068207D01*
X161289198Y-98068207D02*
X161241579Y-98163445D01*
X161241579Y-98163445D02*
X161193960Y-98211064D01*
X161193960Y-98211064D02*
X161098722Y-98258683D01*
X161098722Y-98258683D02*
X161051103Y-98258683D01*
X161051103Y-98258683D02*
X160955865Y-98211064D01*
X160955865Y-98211064D02*
X160908246Y-98163445D01*
X160908246Y-98163445D02*
X160860626Y-98068207D01*
X160860626Y-98068207D02*
X160860626Y-97877731D01*
X160860626Y-97877731D02*
X160908246Y-97782493D01*
X160908246Y-97782493D02*
X160955865Y-97734874D01*
X160955865Y-97734874D02*
X161051103Y-97687255D01*
X161051103Y-97687255D02*
X161098722Y-97687255D01*
X161098722Y-97687255D02*
X161193960Y-97734874D01*
X161193960Y-97734874D02*
X161241579Y-97782493D01*
X161241579Y-97782493D02*
X161289198Y-97877731D01*
X161289198Y-97877731D02*
X161289198Y-98068207D01*
X161289198Y-98068207D02*
X161336817Y-98163445D01*
X161336817Y-98163445D02*
X161384436Y-98211064D01*
X161384436Y-98211064D02*
X161479674Y-98258683D01*
X161479674Y-98258683D02*
X161670150Y-98258683D01*
X161670150Y-98258683D02*
X161765388Y-98211064D01*
X161765388Y-98211064D02*
X161813007Y-98163445D01*
X161813007Y-98163445D02*
X161860626Y-98068207D01*
X161860626Y-98068207D02*
X161860626Y-97877731D01*
X161860626Y-97877731D02*
X161813007Y-97782493D01*
X161813007Y-97782493D02*
X161765388Y-97734874D01*
X161765388Y-97734874D02*
X161670150Y-97687255D01*
X161670150Y-97687255D02*
X161479674Y-97687255D01*
X161479674Y-97687255D02*
X161384436Y-97734874D01*
X161384436Y-97734874D02*
X161336817Y-97782493D01*
X161336817Y-97782493D02*
X161289198Y-97877731D01*
%TO.C,J4*%
X131447380Y-81613333D02*
X132161666Y-81613333D01*
X132161666Y-81613333D02*
X132304523Y-81660952D01*
X132304523Y-81660952D02*
X132399761Y-81756190D01*
X132399761Y-81756190D02*
X132447380Y-81899047D01*
X132447380Y-81899047D02*
X132447380Y-81994285D01*
X131780714Y-80708571D02*
X132447380Y-80708571D01*
X131399761Y-80946666D02*
X132114047Y-81184761D01*
X132114047Y-81184761D02*
X132114047Y-80565714D01*
%TO.C,U3*%
X148605954Y-76237425D02*
X148605954Y-77046949D01*
X148605954Y-77046949D02*
X148653573Y-77142187D01*
X148653573Y-77142187D02*
X148701192Y-77189806D01*
X148701192Y-77189806D02*
X148796430Y-77237425D01*
X148796430Y-77237425D02*
X148986906Y-77237425D01*
X148986906Y-77237425D02*
X149082144Y-77189806D01*
X149082144Y-77189806D02*
X149129763Y-77142187D01*
X149129763Y-77142187D02*
X149177382Y-77046949D01*
X149177382Y-77046949D02*
X149177382Y-76237425D01*
X149558335Y-76237425D02*
X150177382Y-76237425D01*
X150177382Y-76237425D02*
X149844049Y-76618378D01*
X149844049Y-76618378D02*
X149986906Y-76618378D01*
X149986906Y-76618378D02*
X150082144Y-76665997D01*
X150082144Y-76665997D02*
X150129763Y-76713616D01*
X150129763Y-76713616D02*
X150177382Y-76808854D01*
X150177382Y-76808854D02*
X150177382Y-77046949D01*
X150177382Y-77046949D02*
X150129763Y-77142187D01*
X150129763Y-77142187D02*
X150082144Y-77189806D01*
X150082144Y-77189806D02*
X149986906Y-77237425D01*
X149986906Y-77237425D02*
X149701192Y-77237425D01*
X149701192Y-77237425D02*
X149605954Y-77189806D01*
X149605954Y-77189806D02*
X149558335Y-77142187D01*
X158686907Y-94856473D02*
X159448812Y-94856473D01*
X159067859Y-95237425D02*
X159067859Y-94475521D01*
X158586907Y-79656473D02*
X159348812Y-79656473D01*
X160735239Y-88631949D02*
X161544763Y-88631949D01*
X161544763Y-88631949D02*
X161640001Y-88584330D01*
X161640001Y-88584330D02*
X161687620Y-88536711D01*
X161687620Y-88536711D02*
X161735239Y-88441473D01*
X161735239Y-88441473D02*
X161735239Y-88250997D01*
X161735239Y-88250997D02*
X161687620Y-88155759D01*
X161687620Y-88155759D02*
X161640001Y-88108140D01*
X161640001Y-88108140D02*
X161544763Y-88060521D01*
X161544763Y-88060521D02*
X160735239Y-88060521D01*
X161687620Y-87631949D02*
X161735239Y-87489092D01*
X161735239Y-87489092D02*
X161735239Y-87250997D01*
X161735239Y-87250997D02*
X161687620Y-87155759D01*
X161687620Y-87155759D02*
X161640001Y-87108140D01*
X161640001Y-87108140D02*
X161544763Y-87060521D01*
X161544763Y-87060521D02*
X161449525Y-87060521D01*
X161449525Y-87060521D02*
X161354287Y-87108140D01*
X161354287Y-87108140D02*
X161306668Y-87155759D01*
X161306668Y-87155759D02*
X161259049Y-87250997D01*
X161259049Y-87250997D02*
X161211430Y-87441473D01*
X161211430Y-87441473D02*
X161163811Y-87536711D01*
X161163811Y-87536711D02*
X161116192Y-87584330D01*
X161116192Y-87584330D02*
X161020954Y-87631949D01*
X161020954Y-87631949D02*
X160925716Y-87631949D01*
X160925716Y-87631949D02*
X160830478Y-87584330D01*
X160830478Y-87584330D02*
X160782859Y-87536711D01*
X160782859Y-87536711D02*
X160735239Y-87441473D01*
X160735239Y-87441473D02*
X160735239Y-87203378D01*
X160735239Y-87203378D02*
X160782859Y-87060521D01*
X161211430Y-86298616D02*
X161259049Y-86155759D01*
X161259049Y-86155759D02*
X161306668Y-86108140D01*
X161306668Y-86108140D02*
X161401906Y-86060521D01*
X161401906Y-86060521D02*
X161544763Y-86060521D01*
X161544763Y-86060521D02*
X161640001Y-86108140D01*
X161640001Y-86108140D02*
X161687620Y-86155759D01*
X161687620Y-86155759D02*
X161735239Y-86250997D01*
X161735239Y-86250997D02*
X161735239Y-86631949D01*
X161735239Y-86631949D02*
X160735239Y-86631949D01*
X160735239Y-86631949D02*
X160735239Y-86298616D01*
X160735239Y-86298616D02*
X160782859Y-86203378D01*
X160782859Y-86203378D02*
X160830478Y-86155759D01*
X160830478Y-86155759D02*
X160925716Y-86108140D01*
X160925716Y-86108140D02*
X161020954Y-86108140D01*
X161020954Y-86108140D02*
X161116192Y-86155759D01*
X161116192Y-86155759D02*
X161163811Y-86203378D01*
X161163811Y-86203378D02*
X161211430Y-86298616D01*
X161211430Y-86298616D02*
X161211430Y-86631949D01*
X140664143Y-79827577D02*
X140854619Y-79827577D01*
X140854619Y-79827577D02*
X140949857Y-79875197D01*
X140949857Y-79875197D02*
X141045095Y-79970435D01*
X141045095Y-79970435D02*
X141092714Y-80160911D01*
X141092714Y-80160911D02*
X141092714Y-80494244D01*
X141092714Y-80494244D02*
X141045095Y-80684720D01*
X141045095Y-80684720D02*
X140949857Y-80779958D01*
X140949857Y-80779958D02*
X140854619Y-80827577D01*
X140854619Y-80827577D02*
X140664143Y-80827577D01*
X140664143Y-80827577D02*
X140568905Y-80779958D01*
X140568905Y-80779958D02*
X140473667Y-80684720D01*
X140473667Y-80684720D02*
X140426048Y-80494244D01*
X140426048Y-80494244D02*
X140426048Y-80160911D01*
X140426048Y-80160911D02*
X140473667Y-79970435D01*
X140473667Y-79970435D02*
X140568905Y-79875197D01*
X140568905Y-79875197D02*
X140664143Y-79827577D01*
X141949857Y-80160911D02*
X141949857Y-80827577D01*
X141521286Y-80160911D02*
X141521286Y-80684720D01*
X141521286Y-80684720D02*
X141568905Y-80779958D01*
X141568905Y-80779958D02*
X141664143Y-80827577D01*
X141664143Y-80827577D02*
X141807000Y-80827577D01*
X141807000Y-80827577D02*
X141902238Y-80779958D01*
X141902238Y-80779958D02*
X141949857Y-80732339D01*
X142283191Y-80160911D02*
X142664143Y-80160911D01*
X142426048Y-79827577D02*
X142426048Y-80684720D01*
X142426048Y-80684720D02*
X142473667Y-80779958D01*
X142473667Y-80779958D02*
X142568905Y-80827577D01*
X142568905Y-80827577D02*
X142664143Y-80827577D01*
X142997477Y-80446625D02*
X143759382Y-80446625D01*
X140615478Y-94237425D02*
X140805954Y-94237425D01*
X140805954Y-94237425D02*
X140901192Y-94285045D01*
X140901192Y-94285045D02*
X140996430Y-94380283D01*
X140996430Y-94380283D02*
X141044049Y-94570759D01*
X141044049Y-94570759D02*
X141044049Y-94904092D01*
X141044049Y-94904092D02*
X140996430Y-95094568D01*
X140996430Y-95094568D02*
X140901192Y-95189806D01*
X140901192Y-95189806D02*
X140805954Y-95237425D01*
X140805954Y-95237425D02*
X140615478Y-95237425D01*
X140615478Y-95237425D02*
X140520240Y-95189806D01*
X140520240Y-95189806D02*
X140425002Y-95094568D01*
X140425002Y-95094568D02*
X140377383Y-94904092D01*
X140377383Y-94904092D02*
X140377383Y-94570759D01*
X140377383Y-94570759D02*
X140425002Y-94380283D01*
X140425002Y-94380283D02*
X140520240Y-94285045D01*
X140520240Y-94285045D02*
X140615478Y-94237425D01*
X141901192Y-94570759D02*
X141901192Y-95237425D01*
X141472621Y-94570759D02*
X141472621Y-95094568D01*
X141472621Y-95094568D02*
X141520240Y-95189806D01*
X141520240Y-95189806D02*
X141615478Y-95237425D01*
X141615478Y-95237425D02*
X141758335Y-95237425D01*
X141758335Y-95237425D02*
X141853573Y-95189806D01*
X141853573Y-95189806D02*
X141901192Y-95142187D01*
X142234526Y-94570759D02*
X142615478Y-94570759D01*
X142377383Y-94237425D02*
X142377383Y-95094568D01*
X142377383Y-95094568D02*
X142425002Y-95189806D01*
X142425002Y-95189806D02*
X142520240Y-95237425D01*
X142520240Y-95237425D02*
X142615478Y-95237425D01*
X142948812Y-94856473D02*
X143710717Y-94856473D01*
X143329764Y-95237425D02*
X143329764Y-94475521D01*
X140667217Y-83549846D02*
X140810074Y-83597465D01*
X140810074Y-83597465D02*
X140857693Y-83645084D01*
X140857693Y-83645084D02*
X140905312Y-83740322D01*
X140905312Y-83740322D02*
X140905312Y-83883179D01*
X140905312Y-83883179D02*
X140857693Y-83978417D01*
X140857693Y-83978417D02*
X140810074Y-84026036D01*
X140810074Y-84026036D02*
X140714836Y-84073655D01*
X140714836Y-84073655D02*
X140333884Y-84073655D01*
X140333884Y-84073655D02*
X140333884Y-83073655D01*
X140333884Y-83073655D02*
X140667217Y-83073655D01*
X140667217Y-83073655D02*
X140762455Y-83121275D01*
X140762455Y-83121275D02*
X140810074Y-83168894D01*
X140810074Y-83168894D02*
X140857693Y-83264132D01*
X140857693Y-83264132D02*
X140857693Y-83359370D01*
X140857693Y-83359370D02*
X140810074Y-83454608D01*
X140810074Y-83454608D02*
X140762455Y-83502227D01*
X140762455Y-83502227D02*
X140667217Y-83549846D01*
X140667217Y-83549846D02*
X140333884Y-83549846D01*
X141333884Y-83692703D02*
X142095789Y-83692703D01*
X140720240Y-91213616D02*
X140863097Y-91261235D01*
X140863097Y-91261235D02*
X140910716Y-91308854D01*
X140910716Y-91308854D02*
X140958335Y-91404092D01*
X140958335Y-91404092D02*
X140958335Y-91546949D01*
X140958335Y-91546949D02*
X140910716Y-91642187D01*
X140910716Y-91642187D02*
X140863097Y-91689806D01*
X140863097Y-91689806D02*
X140767859Y-91737425D01*
X140767859Y-91737425D02*
X140386907Y-91737425D01*
X140386907Y-91737425D02*
X140386907Y-90737425D01*
X140386907Y-90737425D02*
X140720240Y-90737425D01*
X140720240Y-90737425D02*
X140815478Y-90785045D01*
X140815478Y-90785045D02*
X140863097Y-90832664D01*
X140863097Y-90832664D02*
X140910716Y-90927902D01*
X140910716Y-90927902D02*
X140910716Y-91023140D01*
X140910716Y-91023140D02*
X140863097Y-91118378D01*
X140863097Y-91118378D02*
X140815478Y-91165997D01*
X140815478Y-91165997D02*
X140720240Y-91213616D01*
X140720240Y-91213616D02*
X140386907Y-91213616D01*
X141386907Y-91356473D02*
X142148812Y-91356473D01*
X141767859Y-91737425D02*
X141767859Y-90975521D01*
X161125001Y-91737425D02*
X160648811Y-91737425D01*
X160648811Y-91737425D02*
X160601192Y-92213616D01*
X160601192Y-92213616D02*
X160648811Y-92165997D01*
X160648811Y-92165997D02*
X160744049Y-92118378D01*
X160744049Y-92118378D02*
X160982144Y-92118378D01*
X160982144Y-92118378D02*
X161077382Y-92165997D01*
X161077382Y-92165997D02*
X161125001Y-92213616D01*
X161125001Y-92213616D02*
X161172620Y-92308854D01*
X161172620Y-92308854D02*
X161172620Y-92546949D01*
X161172620Y-92546949D02*
X161125001Y-92642187D01*
X161125001Y-92642187D02*
X161077382Y-92689806D01*
X161077382Y-92689806D02*
X160982144Y-92737425D01*
X160982144Y-92737425D02*
X160744049Y-92737425D01*
X160744049Y-92737425D02*
X160648811Y-92689806D01*
X160648811Y-92689806D02*
X160601192Y-92642187D01*
X161505954Y-92070759D02*
X161744049Y-92737425D01*
X161744049Y-92737425D02*
X161982144Y-92070759D01*
X160405954Y-82185045D02*
X160310716Y-82137425D01*
X160310716Y-82137425D02*
X160167859Y-82137425D01*
X160167859Y-82137425D02*
X160025002Y-82185045D01*
X160025002Y-82185045D02*
X159929764Y-82280283D01*
X159929764Y-82280283D02*
X159882145Y-82375521D01*
X159882145Y-82375521D02*
X159834526Y-82565997D01*
X159834526Y-82565997D02*
X159834526Y-82708854D01*
X159834526Y-82708854D02*
X159882145Y-82899330D01*
X159882145Y-82899330D02*
X159929764Y-82994568D01*
X159929764Y-82994568D02*
X160025002Y-83089806D01*
X160025002Y-83089806D02*
X160167859Y-83137425D01*
X160167859Y-83137425D02*
X160263097Y-83137425D01*
X160263097Y-83137425D02*
X160405954Y-83089806D01*
X160405954Y-83089806D02*
X160453573Y-83042187D01*
X160453573Y-83042187D02*
X160453573Y-82708854D01*
X160453573Y-82708854D02*
X160263097Y-82708854D01*
X160882145Y-83137425D02*
X160882145Y-82137425D01*
X160882145Y-82137425D02*
X161453573Y-83137425D01*
X161453573Y-83137425D02*
X161453573Y-82137425D01*
X161929764Y-83137425D02*
X161929764Y-82137425D01*
X161929764Y-82137425D02*
X162167859Y-82137425D01*
X162167859Y-82137425D02*
X162310716Y-82185045D01*
X162310716Y-82185045D02*
X162405954Y-82280283D01*
X162405954Y-82280283D02*
X162453573Y-82375521D01*
X162453573Y-82375521D02*
X162501192Y-82565997D01*
X162501192Y-82565997D02*
X162501192Y-82708854D01*
X162501192Y-82708854D02*
X162453573Y-82899330D01*
X162453573Y-82899330D02*
X162405954Y-82994568D01*
X162405954Y-82994568D02*
X162310716Y-83089806D01*
X162310716Y-83089806D02*
X162167859Y-83137425D01*
X162167859Y-83137425D02*
X161929764Y-83137425D01*
X138049890Y-88595688D02*
X138192747Y-88643307D01*
X138192747Y-88643307D02*
X138240366Y-88690926D01*
X138240366Y-88690926D02*
X138287985Y-88786164D01*
X138287985Y-88786164D02*
X138287985Y-88929021D01*
X138287985Y-88929021D02*
X138240366Y-89024259D01*
X138240366Y-89024259D02*
X138192747Y-89071878D01*
X138192747Y-89071878D02*
X138097509Y-89119497D01*
X138097509Y-89119497D02*
X137716557Y-89119497D01*
X137716557Y-89119497D02*
X137716557Y-88119497D01*
X137716557Y-88119497D02*
X138049890Y-88119497D01*
X138049890Y-88119497D02*
X138145128Y-88167117D01*
X138145128Y-88167117D02*
X138192747Y-88214736D01*
X138192747Y-88214736D02*
X138240366Y-88309974D01*
X138240366Y-88309974D02*
X138240366Y-88405212D01*
X138240366Y-88405212D02*
X138192747Y-88500450D01*
X138192747Y-88500450D02*
X138145128Y-88548069D01*
X138145128Y-88548069D02*
X138049890Y-88595688D01*
X138049890Y-88595688D02*
X137716557Y-88595688D01*
X139145128Y-89119497D02*
X139145128Y-88595688D01*
X139145128Y-88595688D02*
X139097509Y-88500450D01*
X139097509Y-88500450D02*
X139002271Y-88452831D01*
X139002271Y-88452831D02*
X138811795Y-88452831D01*
X138811795Y-88452831D02*
X138716557Y-88500450D01*
X139145128Y-89071878D02*
X139049890Y-89119497D01*
X139049890Y-89119497D02*
X138811795Y-89119497D01*
X138811795Y-89119497D02*
X138716557Y-89071878D01*
X138716557Y-89071878D02*
X138668938Y-88976640D01*
X138668938Y-88976640D02*
X138668938Y-88881402D01*
X138668938Y-88881402D02*
X138716557Y-88786164D01*
X138716557Y-88786164D02*
X138811795Y-88738545D01*
X138811795Y-88738545D02*
X139049890Y-88738545D01*
X139049890Y-88738545D02*
X139145128Y-88690926D01*
X139478462Y-88452831D02*
X139859414Y-88452831D01*
X139621319Y-88119497D02*
X139621319Y-88976640D01*
X139621319Y-88976640D02*
X139668938Y-89071878D01*
X139668938Y-89071878D02*
X139764176Y-89119497D01*
X139764176Y-89119497D02*
X139859414Y-89119497D01*
X140049891Y-88452831D02*
X140430843Y-88452831D01*
X140192748Y-88119497D02*
X140192748Y-88976640D01*
X140192748Y-88976640D02*
X140240367Y-89071878D01*
X140240367Y-89071878D02*
X140335605Y-89119497D01*
X140335605Y-89119497D02*
X140430843Y-89119497D01*
X141145129Y-89071878D02*
X141049891Y-89119497D01*
X141049891Y-89119497D02*
X140859415Y-89119497D01*
X140859415Y-89119497D02*
X140764177Y-89071878D01*
X140764177Y-89071878D02*
X140716558Y-88976640D01*
X140716558Y-88976640D02*
X140716558Y-88595688D01*
X140716558Y-88595688D02*
X140764177Y-88500450D01*
X140764177Y-88500450D02*
X140859415Y-88452831D01*
X140859415Y-88452831D02*
X141049891Y-88452831D01*
X141049891Y-88452831D02*
X141145129Y-88500450D01*
X141145129Y-88500450D02*
X141192748Y-88595688D01*
X141192748Y-88595688D02*
X141192748Y-88690926D01*
X141192748Y-88690926D02*
X140716558Y-88786164D01*
X141621320Y-89119497D02*
X141621320Y-88452831D01*
X141621320Y-88643307D02*
X141668939Y-88548069D01*
X141668939Y-88548069D02*
X141716558Y-88500450D01*
X141716558Y-88500450D02*
X141811796Y-88452831D01*
X141811796Y-88452831D02*
X141907034Y-88452831D01*
X142145130Y-88452831D02*
X142383225Y-89119497D01*
X142621320Y-88452831D02*
X142383225Y-89119497D01*
X142383225Y-89119497D02*
X142287987Y-89357593D01*
X142287987Y-89357593D02*
X142240368Y-89405212D01*
X142240368Y-89405212D02*
X142145130Y-89452831D01*
X144173701Y-89024259D02*
X144126082Y-89071878D01*
X144126082Y-89071878D02*
X143983225Y-89119497D01*
X143983225Y-89119497D02*
X143887987Y-89119497D01*
X143887987Y-89119497D02*
X143745130Y-89071878D01*
X143745130Y-89071878D02*
X143649892Y-88976640D01*
X143649892Y-88976640D02*
X143602273Y-88881402D01*
X143602273Y-88881402D02*
X143554654Y-88690926D01*
X143554654Y-88690926D02*
X143554654Y-88548069D01*
X143554654Y-88548069D02*
X143602273Y-88357593D01*
X143602273Y-88357593D02*
X143649892Y-88262355D01*
X143649892Y-88262355D02*
X143745130Y-88167117D01*
X143745130Y-88167117D02*
X143887987Y-88119497D01*
X143887987Y-88119497D02*
X143983225Y-88119497D01*
X143983225Y-88119497D02*
X144126082Y-88167117D01*
X144126082Y-88167117D02*
X144173701Y-88214736D01*
X144602273Y-89119497D02*
X144602273Y-88119497D01*
X145030844Y-89119497D02*
X145030844Y-88595688D01*
X145030844Y-88595688D02*
X144983225Y-88500450D01*
X144983225Y-88500450D02*
X144887987Y-88452831D01*
X144887987Y-88452831D02*
X144745130Y-88452831D01*
X144745130Y-88452831D02*
X144649892Y-88500450D01*
X144649892Y-88500450D02*
X144602273Y-88548069D01*
X145935606Y-89119497D02*
X145935606Y-88595688D01*
X145935606Y-88595688D02*
X145887987Y-88500450D01*
X145887987Y-88500450D02*
X145792749Y-88452831D01*
X145792749Y-88452831D02*
X145602273Y-88452831D01*
X145602273Y-88452831D02*
X145507035Y-88500450D01*
X145935606Y-89071878D02*
X145840368Y-89119497D01*
X145840368Y-89119497D02*
X145602273Y-89119497D01*
X145602273Y-89119497D02*
X145507035Y-89071878D01*
X145507035Y-89071878D02*
X145459416Y-88976640D01*
X145459416Y-88976640D02*
X145459416Y-88881402D01*
X145459416Y-88881402D02*
X145507035Y-88786164D01*
X145507035Y-88786164D02*
X145602273Y-88738545D01*
X145602273Y-88738545D02*
X145840368Y-88738545D01*
X145840368Y-88738545D02*
X145935606Y-88690926D01*
X146411797Y-89119497D02*
X146411797Y-88452831D01*
X146411797Y-88643307D02*
X146459416Y-88548069D01*
X146459416Y-88548069D02*
X146507035Y-88500450D01*
X146507035Y-88500450D02*
X146602273Y-88452831D01*
X146602273Y-88452831D02*
X146697511Y-88452831D01*
X147459416Y-88452831D02*
X147459416Y-89262355D01*
X147459416Y-89262355D02*
X147411797Y-89357593D01*
X147411797Y-89357593D02*
X147364178Y-89405212D01*
X147364178Y-89405212D02*
X147268940Y-89452831D01*
X147268940Y-89452831D02*
X147126083Y-89452831D01*
X147126083Y-89452831D02*
X147030845Y-89405212D01*
X147459416Y-89071878D02*
X147364178Y-89119497D01*
X147364178Y-89119497D02*
X147173702Y-89119497D01*
X147173702Y-89119497D02*
X147078464Y-89071878D01*
X147078464Y-89071878D02*
X147030845Y-89024259D01*
X147030845Y-89024259D02*
X146983226Y-88929021D01*
X146983226Y-88929021D02*
X146983226Y-88643307D01*
X146983226Y-88643307D02*
X147030845Y-88548069D01*
X147030845Y-88548069D02*
X147078464Y-88500450D01*
X147078464Y-88500450D02*
X147173702Y-88452831D01*
X147173702Y-88452831D02*
X147364178Y-88452831D01*
X147364178Y-88452831D02*
X147459416Y-88500450D01*
X148316559Y-89071878D02*
X148221321Y-89119497D01*
X148221321Y-89119497D02*
X148030845Y-89119497D01*
X148030845Y-89119497D02*
X147935607Y-89071878D01*
X147935607Y-89071878D02*
X147887988Y-88976640D01*
X147887988Y-88976640D02*
X147887988Y-88595688D01*
X147887988Y-88595688D02*
X147935607Y-88500450D01*
X147935607Y-88500450D02*
X148030845Y-88452831D01*
X148030845Y-88452831D02*
X148221321Y-88452831D01*
X148221321Y-88452831D02*
X148316559Y-88500450D01*
X148316559Y-88500450D02*
X148364178Y-88595688D01*
X148364178Y-88595688D02*
X148364178Y-88690926D01*
X148364178Y-88690926D02*
X147887988Y-88786164D01*
X148792750Y-89119497D02*
X148792750Y-88452831D01*
X148792750Y-88643307D02*
X148840369Y-88548069D01*
X148840369Y-88548069D02*
X148887988Y-88500450D01*
X148887988Y-88500450D02*
X148983226Y-88452831D01*
X148983226Y-88452831D02*
X149078464Y-88452831D01*
X150535607Y-89119497D02*
X149964179Y-89119497D01*
X150249893Y-89119497D02*
X150249893Y-88119497D01*
X150249893Y-88119497D02*
X150154655Y-88262355D01*
X150154655Y-88262355D02*
X150059417Y-88357593D01*
X150059417Y-88357593D02*
X149964179Y-88405212D01*
X150916560Y-88833783D02*
X151392750Y-88833783D01*
X150821322Y-89119497D02*
X151154655Y-88119497D01*
X151154655Y-88119497D02*
X151487988Y-89119497D01*
%TO.C,J1*%
X113093276Y-86634818D02*
X113807562Y-86634818D01*
X113807562Y-86634818D02*
X113950419Y-86682437D01*
X113950419Y-86682437D02*
X114045657Y-86777675D01*
X114045657Y-86777675D02*
X114093276Y-86920532D01*
X114093276Y-86920532D02*
X114093276Y-87015770D01*
X114093276Y-85634818D02*
X114093276Y-86206246D01*
X114093276Y-85920532D02*
X113093276Y-85920532D01*
X113093276Y-85920532D02*
X113236134Y-86015770D01*
X113236134Y-86015770D02*
X113331372Y-86111008D01*
X113331372Y-86111008D02*
X113378991Y-86206246D01*
%TO.C,J3*%
X113663498Y-93069003D02*
X114377784Y-93069003D01*
X114377784Y-93069003D02*
X114520641Y-93116622D01*
X114520641Y-93116622D02*
X114615879Y-93211860D01*
X114615879Y-93211860D02*
X114663498Y-93354717D01*
X114663498Y-93354717D02*
X114663498Y-93449955D01*
X113663498Y-92688050D02*
X113663498Y-92069003D01*
X113663498Y-92069003D02*
X114044451Y-92402336D01*
X114044451Y-92402336D02*
X114044451Y-92259479D01*
X114044451Y-92259479D02*
X114092070Y-92164241D01*
X114092070Y-92164241D02*
X114139689Y-92116622D01*
X114139689Y-92116622D02*
X114234927Y-92069003D01*
X114234927Y-92069003D02*
X114473022Y-92069003D01*
X114473022Y-92069003D02*
X114568260Y-92116622D01*
X114568260Y-92116622D02*
X114615879Y-92164241D01*
X114615879Y-92164241D02*
X114663498Y-92259479D01*
X114663498Y-92259479D02*
X114663498Y-92545193D01*
X114663498Y-92545193D02*
X114615879Y-92640431D01*
X114615879Y-92640431D02*
X114568260Y-92688050D01*
%TO.C,J2*%
X112906080Y-80192893D02*
X113620366Y-80192893D01*
X113620366Y-80192893D02*
X113763223Y-80240512D01*
X113763223Y-80240512D02*
X113858461Y-80335750D01*
X113858461Y-80335750D02*
X113906080Y-80478607D01*
X113906080Y-80478607D02*
X113906080Y-80573845D01*
X113001319Y-79764321D02*
X112953700Y-79716702D01*
X112953700Y-79716702D02*
X112906080Y-79621464D01*
X112906080Y-79621464D02*
X112906080Y-79383369D01*
X112906080Y-79383369D02*
X112953700Y-79288131D01*
X112953700Y-79288131D02*
X113001319Y-79240512D01*
X113001319Y-79240512D02*
X113096557Y-79192893D01*
X113096557Y-79192893D02*
X113191795Y-79192893D01*
X113191795Y-79192893D02*
X113334652Y-79240512D01*
X113334652Y-79240512D02*
X113906080Y-79811940D01*
X113906080Y-79811940D02*
X113906080Y-79192893D01*
D11*
%TO.C,U2*%
X153640000Y-74940000D02*
X105440000Y-74940000D01*
X105440000Y-74940000D02*
X105440000Y-83300000D01*
X153640000Y-79890000D02*
X153640000Y-74940000D01*
D12*
X153640000Y-79890000D02*
X153654129Y-97114122D01*
D11*
X105440000Y-83300000D02*
X104540000Y-83300000D01*
X104540000Y-83300000D02*
X104540000Y-91430000D01*
X105440000Y-91430000D02*
X105438672Y-100149624D01*
X104540000Y-91430000D02*
X105440000Y-91430000D01*
X153654269Y-99993750D02*
X153654129Y-97114122D01*
X105438672Y-100149624D02*
X153654269Y-99993750D01*
%TO.C,U1*%
X156206451Y-98526525D02*
X153666451Y-98526525D01*
X156206451Y-94950525D02*
X156206451Y-98526525D01*
X156206451Y-76526525D02*
X156206451Y-80102525D01*
D12*
X153666451Y-98526525D02*
X153666451Y-76526525D01*
D11*
X153666451Y-76526525D02*
X156206451Y-76526525D01*
D13*
X157706451Y-93876525D02*
G75*
G03*
X157706451Y-93876525I-100000J0D01*
G01*
D12*
%TO.C,J6*%
X150763933Y-81108811D02*
G75*
G03*
X150763933Y-81108811I-1500833J0D01*
G01*
%TO.C,J5*%
X150763933Y-86188811D02*
G75*
G03*
X150763933Y-86188811I-1500833J0D01*
G01*
%TO.C,J10*%
X105350000Y-97730000D02*
X105350000Y-100390000D01*
X153730000Y-99060000D02*
X153730000Y-100390000D01*
X151130000Y-97730000D02*
X151130000Y-100390000D01*
X153730000Y-100390000D02*
X152400000Y-100390000D01*
X151130000Y-100390000D02*
X105350000Y-100390000D01*
X151130000Y-97730000D02*
X105350000Y-97730000D01*
%TO.C,J9*%
X105350000Y-74870000D02*
X105350000Y-77530000D01*
X153730000Y-76200000D02*
X153730000Y-77530000D01*
X151130000Y-74870000D02*
X151130000Y-77530000D01*
X153730000Y-77530000D02*
X152400000Y-77530000D01*
X151130000Y-77530000D02*
X105350000Y-77530000D01*
X151130000Y-74870000D02*
X105350000Y-74870000D01*
%TO.C,J14*%
X137053438Y-89932264D02*
X138383438Y-89932264D01*
X137053438Y-92532264D02*
X139713438Y-92532264D01*
X137053438Y-92592264D02*
X139713438Y-92592264D01*
X139713438Y-92532264D02*
X139713438Y-92592264D01*
X137053438Y-92532264D02*
X137053438Y-92592264D01*
X137053438Y-91262264D02*
X137053438Y-89932264D01*
%TO.C,J13*%
X137060984Y-93439936D02*
X138390984Y-93439936D01*
X137060984Y-96039936D02*
X139720984Y-96039936D01*
X137060984Y-96099936D02*
X139720984Y-96099936D01*
X139720984Y-96039936D02*
X139720984Y-96099936D01*
X137060984Y-96039936D02*
X137060984Y-96099936D01*
X137060984Y-94769936D02*
X137060984Y-93439936D01*
%TO.C,J12*%
X137027668Y-82344215D02*
X138357668Y-82344215D01*
X137027668Y-84944215D02*
X139687668Y-84944215D01*
X137027668Y-85004215D02*
X139687668Y-85004215D01*
X139687668Y-84944215D02*
X139687668Y-85004215D01*
X137027668Y-84944215D02*
X137027668Y-85004215D01*
X137027668Y-83674215D02*
X137027668Y-82344215D01*
%TO.C,J11*%
X137059338Y-78935284D02*
X138389338Y-78935284D01*
X137059338Y-81535284D02*
X139719338Y-81535284D01*
X137059338Y-81595284D02*
X139719338Y-81595284D01*
X139719338Y-81535284D02*
X139719338Y-81595284D01*
X137059338Y-81535284D02*
X137059338Y-81595284D01*
X137059338Y-80265284D02*
X137059338Y-78935284D01*
%TO.C,J7*%
X162566545Y-79227199D02*
X162566545Y-80557199D01*
X159966545Y-79227199D02*
X159966545Y-81887199D01*
X159906545Y-79227199D02*
X159906545Y-81887199D01*
X159966545Y-81887199D02*
X159906545Y-81887199D01*
X159966545Y-79227199D02*
X159906545Y-79227199D01*
X161236545Y-79227199D02*
X162566545Y-79227199D01*
%TO.C,J8*%
X162580994Y-93450292D02*
X162580994Y-94780292D01*
X159980994Y-93450292D02*
X159980994Y-96110292D01*
X159920994Y-93450292D02*
X159920994Y-96110292D01*
X159980994Y-96110292D02*
X159920994Y-96110292D01*
X159980994Y-93450292D02*
X159920994Y-93450292D01*
X161250994Y-93450292D02*
X162580994Y-93450292D01*
%TO.C,J4*%
X133712791Y-83625468D02*
X131052791Y-83625468D01*
X133712791Y-88765468D02*
X133712791Y-83625468D01*
X133712791Y-90035468D02*
X133712791Y-91365468D01*
X131052791Y-88765468D02*
X131052791Y-83625468D01*
X133712791Y-91365468D02*
X132382791Y-91365468D01*
X133712791Y-88765468D02*
X131052791Y-88765468D01*
D10*
%TO.C,U3*%
X162967859Y-96470045D02*
X136667859Y-96470045D01*
X162567859Y-85470045D02*
X162567859Y-89170045D01*
X160067859Y-85470045D02*
X162567859Y-85470045D01*
X160067859Y-89270045D02*
X160067859Y-85470045D01*
X162567859Y-89270045D02*
X160067859Y-89270045D01*
X162967859Y-78670045D02*
X162967859Y-96470045D01*
X134567859Y-78670045D02*
X162967859Y-78670045D01*
X134567859Y-80770045D02*
X134567859Y-78670045D01*
X134567859Y-93970045D02*
X136867859Y-93970045D01*
X134567859Y-96470045D02*
X134567859Y-93970045D01*
X136667859Y-96470045D02*
X134567859Y-96470045D01*
X134567859Y-81070045D02*
X134567859Y-80770045D01*
X136667859Y-81070045D02*
X134567859Y-81070045D01*
X136867859Y-81070045D02*
X136567859Y-81070045D01*
X136867859Y-93970045D02*
X136867859Y-81070045D01*
D12*
%TO.C,J1*%
X105431992Y-89832120D02*
X105431992Y-89582120D01*
X115671992Y-89832120D02*
X105431992Y-89832120D01*
X104031992Y-89582120D02*
X104031992Y-85502120D01*
X105431992Y-89582120D02*
X104031992Y-89582120D01*
X105431992Y-85502120D02*
X104031992Y-85502120D01*
X105431992Y-85502120D02*
X105431992Y-85252120D01*
X105431992Y-85252120D02*
X115671992Y-85252120D01*
X115671992Y-85252120D02*
X115671992Y-89832120D01*
%TO.C,J3*%
X105476876Y-96355071D02*
X105476876Y-96105071D01*
X115716876Y-96355071D02*
X105476876Y-96355071D01*
X104076876Y-96105071D02*
X104076876Y-92025071D01*
X105476876Y-96105071D02*
X104076876Y-96105071D01*
X105476876Y-92025071D02*
X104076876Y-92025071D01*
X105476876Y-92025071D02*
X105476876Y-91775071D01*
X105476876Y-91775071D02*
X115716876Y-91775071D01*
X115716876Y-91775071D02*
X115716876Y-96355071D01*
%TO.C,J2*%
X105431992Y-83362368D02*
X105431992Y-83112368D01*
X115671992Y-83362368D02*
X105431992Y-83362368D01*
X104031992Y-83112368D02*
X104031992Y-79032368D01*
X105431992Y-83112368D02*
X104031992Y-83112368D01*
X105431992Y-79032368D02*
X104031992Y-79032368D01*
X105431992Y-79032368D02*
X105431992Y-78782368D01*
X105431992Y-78782368D02*
X115671992Y-78782368D01*
X115671992Y-78782368D02*
X115671992Y-83362368D01*
%TD*%
M02*
