%TF.GenerationSoftware,KiCad,Pcbnew,(7.0.0)*%
%TF.CreationDate,2023-03-09T18:41:40-05:00*%
%TF.ProjectId,Intervalometer,496e7465-7276-4616-9c6f-6d657465722e,rev?*%
%TF.SameCoordinates,Original*%
%TF.FileFunction,Copper,L2,Bot*%
%TF.FilePolarity,Positive*%
%FSLAX46Y46*%
G04 Gerber Fmt 4.6, Leading zero omitted, Abs format (unit mm)*
G04 Created by KiCad (PCBNEW (7.0.0)) date 2023-03-09 18:41:40*
%MOMM*%
%LPD*%
G01*
G04 APERTURE LIST*
G04 Aperture macros list*
%AMRoundRect*
0 Rectangle with rounded corners*
0 $1 Rounding radius*
0 $2 $3 $4 $5 $6 $7 $8 $9 X,Y pos of 4 corners*
0 Add a 4 corners polygon primitive as box body*
4,1,4,$2,$3,$4,$5,$6,$7,$8,$9,$2,$3,0*
0 Add four circle primitives for the rounded corners*
1,1,$1+$1,$2,$3*
1,1,$1+$1,$4,$5*
1,1,$1+$1,$6,$7*
1,1,$1+$1,$8,$9*
0 Add four rect primitives between the rounded corners*
20,1,$1+$1,$2,$3,$4,$5,0*
20,1,$1+$1,$4,$5,$6,$7,0*
20,1,$1+$1,$6,$7,$8,$9,0*
20,1,$1+$1,$8,$9,$2,$3,0*%
G04 Aperture macros list end*
%ADD10C,0.300000*%
%TA.AperFunction,NonConductor*%
%ADD11C,0.300000*%
%TD*%
%TA.AperFunction,ComponentPad*%
%ADD12R,1.530000X1.530000*%
%TD*%
%TA.AperFunction,ComponentPad*%
%ADD13C,1.530000*%
%TD*%
%TA.AperFunction,ComponentPad*%
%ADD14R,1.508000X1.508000*%
%TD*%
%TA.AperFunction,ComponentPad*%
%ADD15C,1.508000*%
%TD*%
%TA.AperFunction,ComponentPad*%
%ADD16C,2.400000*%
%TD*%
%TA.AperFunction,ComponentPad*%
%ADD17R,1.700000X1.700000*%
%TD*%
%TA.AperFunction,ComponentPad*%
%ADD18O,1.700000X1.700000*%
%TD*%
%TA.AperFunction,ComponentPad*%
%ADD19R,2.800000X2.800000*%
%TD*%
%TA.AperFunction,ComponentPad*%
%ADD20C,1.800000*%
%TD*%
%TA.AperFunction,SMDPad,CuDef*%
%ADD21RoundRect,0.250000X0.262500X0.450000X-0.262500X0.450000X-0.262500X-0.450000X0.262500X-0.450000X0*%
%TD*%
%TA.AperFunction,SMDPad,CuDef*%
%ADD22RoundRect,0.250000X0.450000X-0.262500X0.450000X0.262500X-0.450000X0.262500X-0.450000X-0.262500X0*%
%TD*%
%TA.AperFunction,SMDPad,CuDef*%
%ADD23RoundRect,0.150000X0.587500X0.150000X-0.587500X0.150000X-0.587500X-0.150000X0.587500X-0.150000X0*%
%TD*%
%TA.AperFunction,ViaPad*%
%ADD24C,0.800000*%
%TD*%
%TA.AperFunction,Conductor*%
%ADD25C,0.250000*%
%TD*%
%TA.AperFunction,Conductor*%
%ADD26C,1.000000*%
%TD*%
G04 APERTURE END LIST*
D10*
D11*
X109009870Y-102869706D02*
X107867013Y-102869706D01*
X108438441Y-103441135D02*
X108438441Y-102298278D01*
D10*
D11*
X109019671Y-72575924D02*
X107876814Y-72575924D01*
X108448242Y-73147353D02*
X108448242Y-72004496D01*
D10*
D11*
X160655200Y-72541632D02*
X159512343Y-72541632D01*
X160083771Y-73113061D02*
X160083771Y-71970204D01*
D10*
D11*
X160633148Y-102863246D02*
X159490291Y-102863246D01*
X160061719Y-103434675D02*
X160061719Y-102291818D01*
D12*
%TO.P,U2,1,3V3*%
%TO.N,+3.3V*%
X152389999Y-76189999D03*
D13*
%TO.P,U2,2,EN*%
%TO.N,Net-(J9-Pin_2)*%
X149850000Y-76190000D03*
%TO.P,U2,3,SENSOR_VP*%
%TO.N,Net-(J9-Pin_3)*%
X147310000Y-76190000D03*
%TO.P,U2,4,SENSOR_VN*%
%TO.N,Net-(J9-Pin_4)*%
X144770000Y-76190000D03*
%TO.P,U2,5,IO34*%
%TO.N,Net-(J9-Pin_5)*%
X142230000Y-76190000D03*
%TO.P,U2,6,IO35*%
%TO.N,Net-(J9-Pin_6)*%
X139690000Y-76190000D03*
%TO.P,U2,7,IO32*%
%TO.N,Net-(J9-Pin_7)*%
X137150000Y-76190000D03*
%TO.P,U2,8,IO33*%
%TO.N,Net-(J9-Pin_8)*%
X134610000Y-76190000D03*
%TO.P,U2,9,IO25*%
%TO.N,Net-(J9-Pin_9)*%
X132070000Y-76190000D03*
%TO.P,U2,10,IO26*%
%TO.N,Net-(J9-Pin_10)*%
X129530000Y-76190000D03*
%TO.P,U2,11,IO27*%
%TO.N,Net-(J9-Pin_11)*%
X126990000Y-76190000D03*
%TO.P,U2,12,IO14*%
%TO.N,Net-(J9-Pin_12)*%
X124450000Y-76190000D03*
%TO.P,U2,13,IO12*%
%TO.N,Net-(J9-Pin_13)*%
X121910000Y-76190000D03*
%TO.P,U2,14,GND1*%
%TO.N,GND*%
X119370000Y-76190000D03*
%TO.P,U2,15,IO13*%
%TO.N,Net-(J9-Pin_15)*%
X116830000Y-76190000D03*
%TO.P,U2,16,SD2*%
%TO.N,Net-(J9-Pin_16)*%
X114290000Y-76190000D03*
%TO.P,U2,17,SD3*%
%TO.N,Net-(J9-Pin_17)*%
X111750000Y-76190000D03*
%TO.P,U2,18,CMD*%
%TO.N,Net-(J9-Pin_18)*%
X109210000Y-76190000D03*
%TO.P,U2,19,EXT_5V*%
%TO.N,+5V*%
X106670000Y-76190000D03*
%TO.P,U2,20,CLK*%
%TO.N,Net-(J10-Pin_19)*%
X106670000Y-99050000D03*
%TO.P,U2,21,SD0*%
%TO.N,Net-(J10-Pin_18)*%
X109210000Y-99050000D03*
%TO.P,U2,22,SD1*%
%TO.N,Net-(J10-Pin_17)*%
X111750000Y-99050000D03*
%TO.P,U2,23,IO15*%
%TO.N,Net-(J10-Pin_16)*%
X114290000Y-99050000D03*
%TO.P,U2,24,IO2*%
%TO.N,Net-(J10-Pin_15)*%
X116830000Y-99050000D03*
%TO.P,U2,25,IO0*%
%TO.N,Net-(J10-Pin_14)*%
X119370000Y-99050000D03*
%TO.P,U2,26,IO4*%
%TO.N,+3.3V*%
X121910000Y-99050000D03*
%TO.P,U2,27,IO16*%
%TO.N,Net-(J10-Pin_12)*%
X124450000Y-99050000D03*
%TO.P,U2,28,IO17*%
%TO.N,Net-(J10-Pin_11)*%
X126990000Y-99050000D03*
%TO.P,U2,29,IO5*%
%TO.N,Net-(J10-Pin_10)*%
X129530000Y-99050000D03*
%TO.P,U2,30,IO18*%
%TO.N,Net-(J10-Pin_9)*%
X132070000Y-99050000D03*
%TO.P,U2,31,IO19*%
%TO.N,Net-(J10-Pin_8)*%
X134610000Y-99050000D03*
%TO.P,U2,32,GND2*%
%TO.N,GND*%
X137150000Y-99050000D03*
%TO.P,U2,33,IO21*%
%TO.N,Net-(J10-Pin_6)*%
X139690000Y-99050000D03*
%TO.P,U2,34,RXD0*%
%TO.N,Net-(J10-Pin_5)*%
X142230000Y-99050000D03*
%TO.P,U2,35,TXD0*%
%TO.N,Net-(J10-Pin_4)*%
X144770000Y-99050000D03*
%TO.P,U2,36,IO22*%
%TO.N,Net-(J10-Pin_3)*%
X147310000Y-99050000D03*
%TO.P,U2,37,IO23*%
%TO.N,Net-(J10-Pin_2)*%
X149850000Y-99050000D03*
%TO.P,U2,38,GND3*%
%TO.N,GND*%
X152390000Y-99050000D03*
%TD*%
D14*
%TO.P,U1,1,32K*%
%TO.N,unconnected-(U1-32K-Pad1)*%
X156206450Y-93876524D03*
D15*
%TO.P,U1,2,SQW*%
%TO.N,unconnected-(U1-SQW-Pad2)*%
X156206451Y-91336525D03*
%TO.P,U1,3,SCL*%
%TO.N,Net-(J10-Pin_3)*%
X156206451Y-88796525D03*
%TO.P,U1,4,SDA*%
%TO.N,Net-(J10-Pin_6)*%
X156206451Y-86256525D03*
%TO.P,U1,5,VCC*%
%TO.N,+3.3V*%
X156206451Y-83716525D03*
%TO.P,U1,6,GND*%
%TO.N,GND*%
X156206451Y-81176525D03*
%TD*%
D16*
%TO.P,J6,1,Pin_1*%
%TO.N,Net-(J12-Pin_1)*%
X149263100Y-81108811D03*
%TD*%
%TO.P,J5,1,Pin_1*%
%TO.N,Net-(J14-Pin_1)*%
X149263100Y-86188811D03*
%TD*%
D17*
%TO.P,J10,1,Pin_1*%
%TO.N,GND*%
X152399999Y-99059999D03*
D18*
%TO.P,J10,2,Pin_2*%
%TO.N,Net-(J10-Pin_2)*%
X149859999Y-99059999D03*
%TO.P,J10,3,Pin_3*%
%TO.N,Net-(J10-Pin_3)*%
X147319999Y-99059999D03*
%TO.P,J10,4,Pin_4*%
%TO.N,Net-(J10-Pin_4)*%
X144779999Y-99059999D03*
%TO.P,J10,5,Pin_5*%
%TO.N,Net-(J10-Pin_5)*%
X142239999Y-99059999D03*
%TO.P,J10,6,Pin_6*%
%TO.N,Net-(J10-Pin_6)*%
X139699999Y-99059999D03*
%TO.P,J10,7,Pin_7*%
%TO.N,GND*%
X137159999Y-99059999D03*
%TO.P,J10,8,Pin_8*%
%TO.N,Net-(J10-Pin_8)*%
X134619999Y-99059999D03*
%TO.P,J10,9,Pin_9*%
%TO.N,Net-(J10-Pin_9)*%
X132079999Y-99059999D03*
%TO.P,J10,10,Pin_10*%
%TO.N,Net-(J10-Pin_10)*%
X129539999Y-99059999D03*
%TO.P,J10,11,Pin_11*%
%TO.N,Net-(J10-Pin_11)*%
X126999999Y-99059999D03*
%TO.P,J10,12,Pin_12*%
%TO.N,Net-(J10-Pin_12)*%
X124459999Y-99059999D03*
%TO.P,J10,13,Pin_13*%
%TO.N,+3.3V*%
X121919999Y-99059999D03*
%TO.P,J10,14,Pin_14*%
%TO.N,Net-(J10-Pin_14)*%
X119379999Y-99059999D03*
%TO.P,J10,15,Pin_15*%
%TO.N,Net-(J10-Pin_15)*%
X116839999Y-99059999D03*
%TO.P,J10,16,Pin_16*%
%TO.N,Net-(J10-Pin_16)*%
X114299999Y-99059999D03*
%TO.P,J10,17,Pin_17*%
%TO.N,Net-(J10-Pin_17)*%
X111759999Y-99059999D03*
%TO.P,J10,18,Pin_18*%
%TO.N,Net-(J10-Pin_18)*%
X109219999Y-99059999D03*
%TO.P,J10,19,Pin_19*%
%TO.N,Net-(J10-Pin_19)*%
X106679999Y-99059999D03*
%TD*%
D17*
%TO.P,J9,1,Pin_1*%
%TO.N,+3.3V*%
X152399999Y-76199999D03*
D18*
%TO.P,J9,2,Pin_2*%
%TO.N,Net-(J9-Pin_2)*%
X149859999Y-76199999D03*
%TO.P,J9,3,Pin_3*%
%TO.N,Net-(J9-Pin_3)*%
X147319999Y-76199999D03*
%TO.P,J9,4,Pin_4*%
%TO.N,Net-(J9-Pin_4)*%
X144779999Y-76199999D03*
%TO.P,J9,5,Pin_5*%
%TO.N,Net-(J9-Pin_5)*%
X142239999Y-76199999D03*
%TO.P,J9,6,Pin_6*%
%TO.N,Net-(J9-Pin_6)*%
X139699999Y-76199999D03*
%TO.P,J9,7,Pin_7*%
%TO.N,Net-(J9-Pin_7)*%
X137159999Y-76199999D03*
%TO.P,J9,8,Pin_8*%
%TO.N,Net-(J9-Pin_8)*%
X134619999Y-76199999D03*
%TO.P,J9,9,Pin_9*%
%TO.N,Net-(J9-Pin_9)*%
X132079999Y-76199999D03*
%TO.P,J9,10,Pin_10*%
%TO.N,Net-(J9-Pin_10)*%
X129539999Y-76199999D03*
%TO.P,J9,11,Pin_11*%
%TO.N,Net-(J9-Pin_11)*%
X126999999Y-76199999D03*
%TO.P,J9,12,Pin_12*%
%TO.N,Net-(J9-Pin_12)*%
X124459999Y-76199999D03*
%TO.P,J9,13,Pin_13*%
%TO.N,Net-(J9-Pin_13)*%
X121919999Y-76199999D03*
%TO.P,J9,14,Pin_14*%
%TO.N,GND*%
X119379999Y-76199999D03*
%TO.P,J9,15,Pin_15*%
%TO.N,Net-(J9-Pin_15)*%
X116839999Y-76199999D03*
%TO.P,J9,16,Pin_16*%
%TO.N,Net-(J9-Pin_16)*%
X114299999Y-76199999D03*
%TO.P,J9,17,Pin_17*%
%TO.N,Net-(J9-Pin_17)*%
X111759999Y-76199999D03*
%TO.P,J9,18,Pin_18*%
%TO.N,Net-(J9-Pin_18)*%
X109219999Y-76199999D03*
%TO.P,J9,19,Pin_19*%
%TO.N,+5V*%
X106679999Y-76199999D03*
%TD*%
D17*
%TO.P,J14,1,Pin_1*%
%TO.N,Net-(J14-Pin_1)*%
X138383437Y-91262263D03*
%TD*%
%TO.P,J13,1,Pin_1*%
%TO.N,+4V*%
X138390983Y-94769935D03*
%TD*%
%TO.P,J12,1,Pin_1*%
%TO.N,Net-(J12-Pin_1)*%
X138357667Y-83674214D03*
%TD*%
%TO.P,J11,1,Pin_1*%
%TO.N,GND*%
X138389337Y-80265283D03*
%TD*%
%TO.P,J7,1,Pin_1*%
%TO.N,GND*%
X161236544Y-80557198D03*
%TD*%
%TO.P,J8,1,Pin_1*%
%TO.N,Net-(J8-Pin_1)*%
X161250993Y-94780291D03*
%TD*%
%TO.P,J4,1,Pin_1*%
%TO.N,+4V*%
X132382790Y-90035467D03*
D18*
%TO.P,J4,2,Pin_2*%
%TO.N,GND*%
X132382790Y-87495467D03*
%TO.P,J4,3,Pin_3*%
%TO.N,+5V*%
X132382790Y-84955467D03*
%TD*%
D19*
%TO.P,U3,1,in_USB_5v*%
%TO.N,Net-(J8-Pin_1)*%
X161267858Y-94770044D03*
%TO.P,U3,2,GND*%
%TO.N,GND*%
X161267858Y-80570044D03*
%TO.P,U3,3,Out_+*%
%TO.N,+4V*%
X138367858Y-94770044D03*
%TO.P,U3,4,Out_-*%
%TO.N,GND*%
X138367858Y-80270044D03*
%TO.P,U3,5,Bat_+*%
%TO.N,Net-(J14-Pin_1)*%
X138367858Y-91270044D03*
%TO.P,U3,6,Bat_-*%
%TO.N,Net-(J12-Pin_1)*%
X138367858Y-83670044D03*
%TD*%
D20*
%TO.P,J1,R*%
%TO.N,unconnected-(J1-PadR)*%
X109071992Y-85219026D03*
%TO.P,J1,S*%
%TO.N,GND*%
X107025855Y-89823643D03*
%TO.P,J1,T*%
%TO.N,Net-(Q2-C)*%
X115656745Y-87513036D03*
%TD*%
%TO.P,J3,R*%
%TO.N,unconnected-(J3-PadR)*%
X109116876Y-91741977D03*
%TO.P,J3,S*%
%TO.N,GND*%
X107070739Y-96346594D03*
%TO.P,J3,T*%
%TO.N,Net-(J3-PadT)*%
X115701629Y-94035987D03*
%TD*%
%TO.P,J2,R*%
%TO.N,unconnected-(J2-PadR)*%
X109071992Y-78749274D03*
%TO.P,J2,S*%
%TO.N,GND*%
X107025855Y-83353891D03*
%TO.P,J2,T*%
%TO.N,Net-(Q1-C)*%
X115656745Y-81043284D03*
%TD*%
D21*
%TO.P,R6,1*%
%TO.N,+3.3V*%
X120292500Y-93980000D03*
%TO.P,R6,2*%
%TO.N,Net-(J3-PadT)*%
X118467500Y-93980000D03*
%TD*%
D22*
%TO.P,R2,1*%
%TO.N,Net-(Q2-B)*%
X124460000Y-84732500D03*
%TO.P,R2,2*%
%TO.N,Net-(J9-Pin_10)*%
X124460000Y-82907500D03*
%TD*%
D21*
%TO.P,R3,1*%
%TO.N,Net-(J9-Pin_11)*%
X124923659Y-79445320D03*
%TO.P,R3,2*%
%TO.N,Net-(Q1-B)*%
X123098659Y-79445320D03*
%TD*%
D23*
%TO.P,Q1,1,B*%
%TO.N,Net-(Q1-B)*%
X120317500Y-80330000D03*
%TO.P,Q1,2,E*%
%TO.N,GND*%
X120317500Y-82230000D03*
%TO.P,Q1,3,C*%
%TO.N,Net-(Q1-C)*%
X118442500Y-81280000D03*
%TD*%
%TO.P,Q2,1,B*%
%TO.N,Net-(Q2-B)*%
X120317500Y-85410000D03*
%TO.P,Q2,2,E*%
%TO.N,GND*%
X120317500Y-87310000D03*
%TO.P,Q2,3,C*%
%TO.N,Net-(Q2-C)*%
X118442500Y-86360000D03*
%TD*%
D24*
%TO.N,*%
X108456214Y-72555239D03*
X108448526Y-102872975D03*
X160060917Y-102861341D03*
X160074556Y-72555239D03*
%TD*%
D25*
%TO.N,+3.3V*%
X121920000Y-99060000D02*
X121910000Y-99050000D01*
%TO.N,GND*%
X152400000Y-100477293D02*
X152400000Y-99060000D01*
X152207012Y-100670281D02*
X152400000Y-100477293D01*
X138770281Y-100670281D02*
X152207012Y-100670281D01*
X137160000Y-99060000D02*
X138770281Y-100670281D01*
%TO.N,+3.3V*%
X157480000Y-80180000D02*
X153500000Y-76200000D01*
X157480000Y-84990074D02*
X157480000Y-80180000D01*
X153500000Y-76200000D02*
X152400000Y-76200000D01*
X157480000Y-84990074D02*
X156206451Y-83716525D01*
X157480000Y-101600000D02*
X157480000Y-84990074D01*
X124460000Y-101600000D02*
X157480000Y-101600000D01*
X121920000Y-99060000D02*
X124460000Y-101600000D01*
%TO.N,GND*%
X147320000Y-78740000D02*
X153769926Y-78740000D01*
X145794716Y-80265284D02*
X147320000Y-78740000D01*
X138389338Y-80265284D02*
X145794716Y-80265284D01*
X153769926Y-78740000D02*
X156206451Y-81176525D01*
D26*
X121900000Y-73660000D02*
X119370000Y-76190000D01*
X156757814Y-73660000D02*
X121900000Y-73660000D01*
X161267859Y-78170045D02*
X156757814Y-73660000D01*
X161267859Y-80570045D02*
X161267859Y-78170045D01*
D25*
X117676497Y-89124672D02*
X119491169Y-87310000D01*
X114850289Y-89124672D02*
X117676497Y-89124672D01*
X114521661Y-88796044D02*
X114850289Y-89124672D01*
X113601499Y-88796044D02*
X114521661Y-88796044D01*
X113601499Y-83121499D02*
X113601499Y-88796044D01*
X119491169Y-87310000D02*
X120317500Y-87310000D01*
X116840000Y-78740000D02*
X119380000Y-76200000D01*
X113601499Y-79438501D02*
X114300000Y-78740000D01*
X113601499Y-83121499D02*
X113601499Y-79438501D01*
X118727500Y-83820000D02*
X114300000Y-83820000D01*
X114300000Y-78740000D02*
X116840000Y-78740000D01*
X114300000Y-83820000D02*
X113601499Y-83121499D01*
X120317500Y-82230000D02*
X118727500Y-83820000D01*
D26*
%TO.N,+5V*%
X111760000Y-90220594D02*
X124888697Y-90220594D01*
X111760000Y-81280000D02*
X111760000Y-90220594D01*
X106680000Y-81280000D02*
X111760000Y-81280000D01*
X106670000Y-81270000D02*
X106680000Y-81280000D01*
X106670000Y-76190000D02*
X106670000Y-81270000D01*
X124888697Y-90220594D02*
X130153823Y-84955468D01*
X130153823Y-84955468D02*
X132382791Y-84955468D01*
D25*
%TO.N,GND*%
X127000000Y-91440000D02*
X129540000Y-93980000D01*
X114300000Y-91440000D02*
X127000000Y-91440000D01*
X109393406Y-96346594D02*
X114300000Y-91440000D01*
X107070739Y-96346594D02*
X109393406Y-96346594D01*
X107025855Y-96301710D02*
X107070739Y-96346594D01*
X107025855Y-89823643D02*
X107025855Y-96301710D01*
X107025855Y-83353891D02*
X107025855Y-89823643D01*
D26*
X137150000Y-98076410D02*
X137150000Y-99050000D01*
X135593590Y-96520000D02*
X137150000Y-98076410D01*
X132080000Y-96520000D02*
X135593590Y-96520000D01*
X129540000Y-93980000D02*
X132080000Y-96520000D01*
X130944532Y-87495468D02*
X129540000Y-88900000D01*
X132382791Y-87495468D02*
X130944532Y-87495468D01*
X129540000Y-88900000D02*
X129540000Y-93980000D01*
X134620000Y-86360000D02*
X134620000Y-81280000D01*
X134620000Y-81280000D02*
X135629955Y-80270045D01*
X135629955Y-80270045D02*
X138367859Y-80270045D01*
X133484532Y-87495468D02*
X134620000Y-86360000D01*
X132382791Y-87495468D02*
X133484532Y-87495468D01*
%TO.N,Net-(J14-Pin_1)*%
X144181866Y-91270045D02*
X149263100Y-86188811D01*
X138367859Y-91270045D02*
X144181866Y-91270045D01*
%TO.N,Net-(J12-Pin_1)*%
X138367859Y-83670045D02*
X146701866Y-83670045D01*
X146701866Y-83670045D02*
X149263100Y-81108811D01*
D25*
%TO.N,Net-(Q1-B)*%
X122213979Y-80330000D02*
X120317500Y-80330000D01*
X123098659Y-79445320D02*
X122213979Y-80330000D01*
%TO.N,Net-(J9-Pin_11)*%
X126990000Y-77378979D02*
X126990000Y-76190000D01*
X124923659Y-79445320D02*
X126990000Y-77378979D01*
D26*
%TO.N,+4V*%
X137117259Y-94769936D02*
X132382791Y-90035468D01*
X138390984Y-94769936D02*
X137117259Y-94769936D01*
D25*
%TO.N,Net-(J9-Pin_10)*%
X129530000Y-77837500D02*
X129530000Y-76190000D01*
X124460000Y-82907500D02*
X129530000Y-77837500D01*
%TO.N,Net-(Q2-B)*%
X120995000Y-84732500D02*
X124460000Y-84732500D01*
X120317500Y-85410000D02*
X120995000Y-84732500D01*
%TO.N,Net-(Q1-C)*%
X118205784Y-81043284D02*
X118442500Y-81280000D01*
X115656745Y-81043284D02*
X118205784Y-81043284D01*
%TO.N,Net-(Q2-C)*%
X115656745Y-87513036D02*
X116809781Y-86360000D01*
X116809781Y-86360000D02*
X118442500Y-86360000D01*
%TO.N,+3.3V*%
X121910000Y-95597500D02*
X121910000Y-99050000D01*
X120292500Y-93980000D02*
X121910000Y-95597500D01*
%TO.N,Net-(J3-PadT)*%
X118411513Y-94035987D02*
X118467500Y-93980000D01*
X115701629Y-94035987D02*
X118411513Y-94035987D01*
%TO.N,Net-(J10-Pin_6)*%
X155043475Y-86256525D02*
X156206451Y-86256525D01*
X144770000Y-96530000D02*
X155043475Y-86256525D01*
X139690000Y-96530000D02*
X144770000Y-96530000D01*
X139690000Y-99050000D02*
X139690000Y-96530000D01*
%TO.N,Net-(J10-Pin_3)*%
X155043475Y-88796525D02*
X156206451Y-88796525D01*
X147310000Y-96530000D02*
X155043475Y-88796525D01*
X147310000Y-99050000D02*
X147310000Y-96530000D01*
%TD*%
%TA.AperFunction,Conductor*%
%TO.N,GND*%
G36*
X163152654Y-73665968D02*
G01*
X163198059Y-73711357D01*
X163214679Y-73773370D01*
X163214679Y-78707091D01*
X163196174Y-78772258D01*
X163146183Y-78817975D01*
X163079626Y-78830597D01*
X163016368Y-78806358D01*
X162917048Y-78732007D01*
X162901636Y-78723592D01*
X162782500Y-78679156D01*
X162767526Y-78675618D01*
X162718973Y-78670398D01*
X162712377Y-78670045D01*
X161534185Y-78670045D01*
X161521309Y-78673495D01*
X161517859Y-78686371D01*
X161517859Y-82453719D01*
X161521309Y-82466594D01*
X161534185Y-82470045D01*
X162712377Y-82470045D01*
X162718973Y-82469691D01*
X162767526Y-82464471D01*
X162782500Y-82460933D01*
X162901636Y-82416497D01*
X162917048Y-82408082D01*
X163016368Y-82333732D01*
X163079626Y-82309493D01*
X163146183Y-82322115D01*
X163196174Y-82367832D01*
X163214679Y-82432999D01*
X163214679Y-92906467D01*
X163196174Y-92971634D01*
X163146183Y-93017351D01*
X163079626Y-93029973D01*
X163016368Y-93005734D01*
X162917290Y-92931564D01*
X162917289Y-92931563D01*
X162910190Y-92926249D01*
X162775342Y-92875954D01*
X162767629Y-92875124D01*
X162767626Y-92875124D01*
X162719039Y-92869900D01*
X162719028Y-92869899D01*
X162715732Y-92869545D01*
X162712409Y-92869545D01*
X159823298Y-92869545D01*
X159823279Y-92869545D01*
X159819987Y-92869546D01*
X159816709Y-92869898D01*
X159816697Y-92869899D01*
X159768090Y-92875124D01*
X159768084Y-92875125D01*
X159760376Y-92875954D01*
X159753111Y-92878663D01*
X159753105Y-92878665D01*
X159633839Y-92923149D01*
X159633837Y-92923149D01*
X159625528Y-92926249D01*
X159618431Y-92931561D01*
X159618427Y-92931564D01*
X159517409Y-93007186D01*
X159517405Y-93007189D01*
X159510313Y-93012499D01*
X159505003Y-93019591D01*
X159505000Y-93019595D01*
X159429378Y-93120613D01*
X159429375Y-93120617D01*
X159424063Y-93127714D01*
X159420963Y-93136023D01*
X159420963Y-93136025D01*
X159376479Y-93255292D01*
X159376478Y-93255295D01*
X159373768Y-93262562D01*
X159372938Y-93270272D01*
X159372938Y-93270277D01*
X159367714Y-93318864D01*
X159367713Y-93318876D01*
X159367359Y-93322172D01*
X159367359Y-93325484D01*
X159367359Y-93325491D01*
X159367359Y-96214605D01*
X159367359Y-96214623D01*
X159367360Y-96217917D01*
X159367712Y-96221195D01*
X159367713Y-96221206D01*
X159372938Y-96269813D01*
X159372939Y-96269818D01*
X159373768Y-96277528D01*
X159376478Y-96284794D01*
X159376479Y-96284798D01*
X159395469Y-96335711D01*
X159424063Y-96412376D01*
X159429377Y-96419475D01*
X159429378Y-96419476D01*
X159447308Y-96443428D01*
X159510313Y-96527591D01*
X159625528Y-96613841D01*
X159760376Y-96664136D01*
X159819986Y-96670545D01*
X162715731Y-96670544D01*
X162775342Y-96664136D01*
X162910190Y-96613841D01*
X163016368Y-96534355D01*
X163079626Y-96510117D01*
X163146183Y-96522739D01*
X163196174Y-96568456D01*
X163214679Y-96633623D01*
X163214679Y-101571758D01*
X163198068Y-101633755D01*
X163152686Y-101679141D01*
X163090691Y-101695757D01*
X161829088Y-101695876D01*
X161767084Y-101679268D01*
X161721692Y-101633880D01*
X161705077Y-101571877D01*
X161705077Y-100812644D01*
X161705077Y-100796318D01*
X161688751Y-100796318D01*
X158229500Y-100796318D01*
X158167500Y-100779705D01*
X158122113Y-100734318D01*
X158105500Y-100672318D01*
X158105500Y-85067845D01*
X158106020Y-85056792D01*
X158107672Y-85049406D01*
X158105561Y-84982218D01*
X158105500Y-84978324D01*
X158105500Y-82014563D01*
X159367859Y-82014563D01*
X159368212Y-82021159D01*
X159373432Y-82069712D01*
X159376970Y-82084686D01*
X159421406Y-82203822D01*
X159429821Y-82219234D01*
X159505357Y-82320137D01*
X159517766Y-82332546D01*
X159618669Y-82408082D01*
X159634081Y-82416497D01*
X159753217Y-82460933D01*
X159768191Y-82464471D01*
X159816744Y-82469691D01*
X159823341Y-82470045D01*
X161001533Y-82470045D01*
X161014408Y-82466594D01*
X161017859Y-82453719D01*
X161017859Y-80836371D01*
X161014408Y-80823495D01*
X161001533Y-80820045D01*
X159384185Y-80820045D01*
X159371309Y-80823495D01*
X159367859Y-80836371D01*
X159367859Y-82014563D01*
X158105500Y-82014563D01*
X158105500Y-80303719D01*
X159367859Y-80303719D01*
X159371309Y-80316594D01*
X159384185Y-80320045D01*
X161001533Y-80320045D01*
X161014408Y-80316594D01*
X161017859Y-80303719D01*
X161017859Y-78686371D01*
X161014408Y-78673495D01*
X161001533Y-78670045D01*
X159823341Y-78670045D01*
X159816744Y-78670398D01*
X159768191Y-78675618D01*
X159753217Y-78679156D01*
X159634081Y-78723592D01*
X159618669Y-78732007D01*
X159517766Y-78807543D01*
X159505357Y-78819952D01*
X159429821Y-78920855D01*
X159421406Y-78936267D01*
X159376970Y-79055403D01*
X159373432Y-79070377D01*
X159368212Y-79118930D01*
X159367859Y-79125527D01*
X159367859Y-80303719D01*
X158105500Y-80303719D01*
X158105500Y-80257775D01*
X158106021Y-80246719D01*
X158107673Y-80239333D01*
X158105561Y-80172127D01*
X158105500Y-80168232D01*
X158105500Y-80144541D01*
X158105500Y-80140650D01*
X158104998Y-80136677D01*
X158104080Y-80125018D01*
X158104008Y-80122738D01*
X158102709Y-80081373D01*
X158097120Y-80062140D01*
X158093174Y-80043083D01*
X158091641Y-80030944D01*
X158090664Y-80023208D01*
X158074582Y-79982591D01*
X158070803Y-79971551D01*
X158060795Y-79937102D01*
X158060793Y-79937099D01*
X158058618Y-79929610D01*
X158048417Y-79912360D01*
X158039863Y-79894901D01*
X158032486Y-79876268D01*
X158006808Y-79840925D01*
X158000401Y-79831171D01*
X157982142Y-79800296D01*
X157982141Y-79800294D01*
X157978170Y-79793580D01*
X157964003Y-79779413D01*
X157951370Y-79764622D01*
X157939594Y-79748413D01*
X157933583Y-79743440D01*
X157933581Y-79743438D01*
X157905941Y-79720573D01*
X157897300Y-79712710D01*
X153997286Y-75812695D01*
X153989842Y-75804514D01*
X153985786Y-75798123D01*
X153936775Y-75752098D01*
X153933978Y-75749387D01*
X153917227Y-75732636D01*
X153914471Y-75729880D01*
X153911290Y-75727412D01*
X153902414Y-75719830D01*
X153876269Y-75695278D01*
X153876267Y-75695276D01*
X153870582Y-75689938D01*
X153863749Y-75686182D01*
X153863743Y-75686177D01*
X153853025Y-75680285D01*
X153836766Y-75669606D01*
X153836190Y-75669159D01*
X153820936Y-75657327D01*
X153813773Y-75654227D01*
X153811377Y-75652810D01*
X153766788Y-75607515D01*
X153750499Y-75546078D01*
X153750499Y-75305439D01*
X153750499Y-75302128D01*
X153744091Y-75242517D01*
X153693796Y-75107669D01*
X153607546Y-74992454D01*
X153517030Y-74924694D01*
X153499431Y-74911519D01*
X153499430Y-74911518D01*
X153492331Y-74906204D01*
X153385442Y-74866337D01*
X153364752Y-74858620D01*
X153364750Y-74858619D01*
X153357483Y-74855909D01*
X153349770Y-74855079D01*
X153349767Y-74855079D01*
X153301180Y-74849855D01*
X153301169Y-74849854D01*
X153297873Y-74849500D01*
X153294550Y-74849500D01*
X151505439Y-74849500D01*
X151505420Y-74849500D01*
X151502128Y-74849501D01*
X151498850Y-74849853D01*
X151498838Y-74849854D01*
X151450231Y-74855079D01*
X151450225Y-74855080D01*
X151442517Y-74855909D01*
X151435252Y-74858618D01*
X151435246Y-74858620D01*
X151315980Y-74903104D01*
X151315978Y-74903104D01*
X151307669Y-74906204D01*
X151300572Y-74911516D01*
X151300568Y-74911519D01*
X151199550Y-74987141D01*
X151199546Y-74987144D01*
X151192454Y-74992454D01*
X151187144Y-74999546D01*
X151187141Y-74999550D01*
X151111519Y-75100568D01*
X151111516Y-75100572D01*
X151106204Y-75107669D01*
X151103104Y-75115978D01*
X151103105Y-75115978D01*
X151057189Y-75239083D01*
X151022210Y-75289462D01*
X150967365Y-75316915D01*
X150906072Y-75314726D01*
X150853326Y-75283430D01*
X150735232Y-75165336D01*
X150735230Y-75165334D01*
X150731401Y-75161505D01*
X150726970Y-75158402D01*
X150726966Y-75158399D01*
X150542259Y-75029066D01*
X150542257Y-75029064D01*
X150537830Y-75025965D01*
X150532933Y-75023681D01*
X150532927Y-75023678D01*
X150328572Y-74928386D01*
X150328570Y-74928385D01*
X150323663Y-74926097D01*
X150318438Y-74924697D01*
X150318430Y-74924694D01*
X150100634Y-74866337D01*
X150100630Y-74866336D01*
X150095408Y-74864937D01*
X150090020Y-74864465D01*
X150090017Y-74864465D01*
X149865395Y-74844813D01*
X149860000Y-74844341D01*
X149854605Y-74844813D01*
X149629982Y-74864465D01*
X149629977Y-74864465D01*
X149624592Y-74864937D01*
X149619371Y-74866335D01*
X149619365Y-74866337D01*
X149401569Y-74924694D01*
X149401557Y-74924698D01*
X149396337Y-74926097D01*
X149391432Y-74928383D01*
X149391427Y-74928386D01*
X149187081Y-75023675D01*
X149187077Y-75023677D01*
X149182171Y-75025965D01*
X149177738Y-75029068D01*
X149177731Y-75029073D01*
X148993034Y-75158399D01*
X148993029Y-75158402D01*
X148988599Y-75161505D01*
X148984775Y-75165328D01*
X148984769Y-75165334D01*
X148825334Y-75324769D01*
X148825328Y-75324775D01*
X148821505Y-75328599D01*
X148818402Y-75333029D01*
X148818399Y-75333034D01*
X148691575Y-75514159D01*
X148647257Y-75553025D01*
X148590000Y-75567036D01*
X148532743Y-75553025D01*
X148488425Y-75514159D01*
X148382602Y-75363028D01*
X148358495Y-75328599D01*
X148191401Y-75161505D01*
X148186970Y-75158402D01*
X148186966Y-75158399D01*
X148002259Y-75029066D01*
X148002257Y-75029064D01*
X147997830Y-75025965D01*
X147992933Y-75023681D01*
X147992927Y-75023678D01*
X147788572Y-74928386D01*
X147788570Y-74928385D01*
X147783663Y-74926097D01*
X147778438Y-74924697D01*
X147778430Y-74924694D01*
X147560634Y-74866337D01*
X147560630Y-74866336D01*
X147555408Y-74864937D01*
X147550020Y-74864465D01*
X147550017Y-74864465D01*
X147325395Y-74844813D01*
X147320000Y-74844341D01*
X147314605Y-74844813D01*
X147089982Y-74864465D01*
X147089977Y-74864465D01*
X147084592Y-74864937D01*
X147079371Y-74866335D01*
X147079365Y-74866337D01*
X146861569Y-74924694D01*
X146861557Y-74924698D01*
X146856337Y-74926097D01*
X146851432Y-74928383D01*
X146851427Y-74928386D01*
X146647081Y-75023675D01*
X146647077Y-75023677D01*
X146642171Y-75025965D01*
X146637738Y-75029068D01*
X146637731Y-75029073D01*
X146453034Y-75158399D01*
X146453029Y-75158402D01*
X146448599Y-75161505D01*
X146444775Y-75165328D01*
X146444769Y-75165334D01*
X146285334Y-75324769D01*
X146285328Y-75324775D01*
X146281505Y-75328599D01*
X146278402Y-75333029D01*
X146278399Y-75333034D01*
X146151575Y-75514159D01*
X146107257Y-75553025D01*
X146050000Y-75567036D01*
X145992743Y-75553025D01*
X145948425Y-75514159D01*
X145842602Y-75363028D01*
X145818495Y-75328599D01*
X145651401Y-75161505D01*
X145646970Y-75158402D01*
X145646966Y-75158399D01*
X145462259Y-75029066D01*
X145462257Y-75029064D01*
X145457830Y-75025965D01*
X145452933Y-75023681D01*
X145452927Y-75023678D01*
X145248572Y-74928386D01*
X145248570Y-74928385D01*
X145243663Y-74926097D01*
X145238438Y-74924697D01*
X145238430Y-74924694D01*
X145020634Y-74866337D01*
X145020630Y-74866336D01*
X145015408Y-74864937D01*
X145010020Y-74864465D01*
X145010017Y-74864465D01*
X144785395Y-74844813D01*
X144780000Y-74844341D01*
X144774605Y-74844813D01*
X144549982Y-74864465D01*
X144549977Y-74864465D01*
X144544592Y-74864937D01*
X144539371Y-74866335D01*
X144539365Y-74866337D01*
X144321569Y-74924694D01*
X144321557Y-74924698D01*
X144316337Y-74926097D01*
X144311432Y-74928383D01*
X144311427Y-74928386D01*
X144107081Y-75023675D01*
X144107077Y-75023677D01*
X144102171Y-75025965D01*
X144097738Y-75029068D01*
X144097731Y-75029073D01*
X143913034Y-75158399D01*
X143913029Y-75158402D01*
X143908599Y-75161505D01*
X143904775Y-75165328D01*
X143904769Y-75165334D01*
X143745334Y-75324769D01*
X143745328Y-75324775D01*
X143741505Y-75328599D01*
X143738402Y-75333029D01*
X143738399Y-75333034D01*
X143611575Y-75514159D01*
X143567257Y-75553025D01*
X143510000Y-75567036D01*
X143452743Y-75553025D01*
X143408425Y-75514159D01*
X143302602Y-75363028D01*
X143278495Y-75328599D01*
X143111401Y-75161505D01*
X143106970Y-75158402D01*
X143106966Y-75158399D01*
X142922259Y-75029066D01*
X142922257Y-75029064D01*
X142917830Y-75025965D01*
X142912933Y-75023681D01*
X142912927Y-75023678D01*
X142708572Y-74928386D01*
X142708570Y-74928385D01*
X142703663Y-74926097D01*
X142698438Y-74924697D01*
X142698430Y-74924694D01*
X142480634Y-74866337D01*
X142480630Y-74866336D01*
X142475408Y-74864937D01*
X142470020Y-74864465D01*
X142470017Y-74864465D01*
X142245395Y-74844813D01*
X142240000Y-74844341D01*
X142234605Y-74844813D01*
X142009982Y-74864465D01*
X142009977Y-74864465D01*
X142004592Y-74864937D01*
X141999371Y-74866335D01*
X141999365Y-74866337D01*
X141781569Y-74924694D01*
X141781557Y-74924698D01*
X141776337Y-74926097D01*
X141771432Y-74928383D01*
X141771427Y-74928386D01*
X141567081Y-75023675D01*
X141567077Y-75023677D01*
X141562171Y-75025965D01*
X141557738Y-75029068D01*
X141557731Y-75029073D01*
X141373034Y-75158399D01*
X141373029Y-75158402D01*
X141368599Y-75161505D01*
X141364775Y-75165328D01*
X141364769Y-75165334D01*
X141205334Y-75324769D01*
X141205328Y-75324775D01*
X141201505Y-75328599D01*
X141198402Y-75333029D01*
X141198399Y-75333034D01*
X141071575Y-75514159D01*
X141027257Y-75553025D01*
X140970000Y-75567036D01*
X140912743Y-75553025D01*
X140868425Y-75514159D01*
X140762602Y-75363028D01*
X140738495Y-75328599D01*
X140571401Y-75161505D01*
X140566970Y-75158402D01*
X140566966Y-75158399D01*
X140382259Y-75029066D01*
X140382257Y-75029064D01*
X140377830Y-75025965D01*
X140372933Y-75023681D01*
X140372927Y-75023678D01*
X140168572Y-74928386D01*
X140168570Y-74928385D01*
X140163663Y-74926097D01*
X140158438Y-74924697D01*
X140158430Y-74924694D01*
X139940634Y-74866337D01*
X139940630Y-74866336D01*
X139935408Y-74864937D01*
X139930020Y-74864465D01*
X139930017Y-74864465D01*
X139705395Y-74844813D01*
X139700000Y-74844341D01*
X139694605Y-74844813D01*
X139469982Y-74864465D01*
X139469977Y-74864465D01*
X139464592Y-74864937D01*
X139459371Y-74866335D01*
X139459365Y-74866337D01*
X139241569Y-74924694D01*
X139241557Y-74924698D01*
X139236337Y-74926097D01*
X139231432Y-74928383D01*
X139231427Y-74928386D01*
X139027081Y-75023675D01*
X139027077Y-75023677D01*
X139022171Y-75025965D01*
X139017738Y-75029068D01*
X139017731Y-75029073D01*
X138833034Y-75158399D01*
X138833029Y-75158402D01*
X138828599Y-75161505D01*
X138824775Y-75165328D01*
X138824769Y-75165334D01*
X138665334Y-75324769D01*
X138665328Y-75324775D01*
X138661505Y-75328599D01*
X138658402Y-75333029D01*
X138658399Y-75333034D01*
X138531575Y-75514159D01*
X138487257Y-75553025D01*
X138430000Y-75567036D01*
X138372743Y-75553025D01*
X138328425Y-75514159D01*
X138222602Y-75363028D01*
X138198495Y-75328599D01*
X138031401Y-75161505D01*
X138026970Y-75158402D01*
X138026966Y-75158399D01*
X137842259Y-75029066D01*
X137842257Y-75029064D01*
X137837830Y-75025965D01*
X137832933Y-75023681D01*
X137832927Y-75023678D01*
X137628572Y-74928386D01*
X137628570Y-74928385D01*
X137623663Y-74926097D01*
X137618438Y-74924697D01*
X137618430Y-74924694D01*
X137400634Y-74866337D01*
X137400630Y-74866336D01*
X137395408Y-74864937D01*
X137390020Y-74864465D01*
X137390017Y-74864465D01*
X137165395Y-74844813D01*
X137160000Y-74844341D01*
X137154605Y-74844813D01*
X136929982Y-74864465D01*
X136929977Y-74864465D01*
X136924592Y-74864937D01*
X136919371Y-74866335D01*
X136919365Y-74866337D01*
X136701569Y-74924694D01*
X136701557Y-74924698D01*
X136696337Y-74926097D01*
X136691432Y-74928383D01*
X136691427Y-74928386D01*
X136487081Y-75023675D01*
X136487077Y-75023677D01*
X136482171Y-75025965D01*
X136477738Y-75029068D01*
X136477731Y-75029073D01*
X136293034Y-75158399D01*
X136293029Y-75158402D01*
X136288599Y-75161505D01*
X136284775Y-75165328D01*
X136284769Y-75165334D01*
X136125334Y-75324769D01*
X136125328Y-75324775D01*
X136121505Y-75328599D01*
X136118402Y-75333029D01*
X136118399Y-75333034D01*
X135991575Y-75514159D01*
X135947257Y-75553025D01*
X135890000Y-75567036D01*
X135832743Y-75553025D01*
X135788425Y-75514159D01*
X135682602Y-75363028D01*
X135658495Y-75328599D01*
X135491401Y-75161505D01*
X135486970Y-75158402D01*
X135486966Y-75158399D01*
X135302259Y-75029066D01*
X135302257Y-75029064D01*
X135297830Y-75025965D01*
X135292933Y-75023681D01*
X135292927Y-75023678D01*
X135088572Y-74928386D01*
X135088570Y-74928385D01*
X135083663Y-74926097D01*
X135078438Y-74924697D01*
X135078430Y-74924694D01*
X134860634Y-74866337D01*
X134860630Y-74866336D01*
X134855408Y-74864937D01*
X134850020Y-74864465D01*
X134850017Y-74864465D01*
X134625395Y-74844813D01*
X134620000Y-74844341D01*
X134614605Y-74844813D01*
X134389982Y-74864465D01*
X134389977Y-74864465D01*
X134384592Y-74864937D01*
X134379371Y-74866335D01*
X134379365Y-74866337D01*
X134161569Y-74924694D01*
X134161557Y-74924698D01*
X134156337Y-74926097D01*
X134151432Y-74928383D01*
X134151427Y-74928386D01*
X133947081Y-75023675D01*
X133947077Y-75023677D01*
X133942171Y-75025965D01*
X133937738Y-75029068D01*
X133937731Y-75029073D01*
X133753034Y-75158399D01*
X133753029Y-75158402D01*
X133748599Y-75161505D01*
X133744775Y-75165328D01*
X133744769Y-75165334D01*
X133585334Y-75324769D01*
X133585328Y-75324775D01*
X133581505Y-75328599D01*
X133578402Y-75333029D01*
X133578399Y-75333034D01*
X133451575Y-75514159D01*
X133407257Y-75553025D01*
X133350000Y-75567036D01*
X133292743Y-75553025D01*
X133248425Y-75514159D01*
X133142602Y-75363028D01*
X133118495Y-75328599D01*
X132951401Y-75161505D01*
X132946970Y-75158402D01*
X132946966Y-75158399D01*
X132762259Y-75029066D01*
X132762257Y-75029064D01*
X132757830Y-75025965D01*
X132752933Y-75023681D01*
X132752927Y-75023678D01*
X132548572Y-74928386D01*
X132548570Y-74928385D01*
X132543663Y-74926097D01*
X132538438Y-74924697D01*
X132538430Y-74924694D01*
X132320634Y-74866337D01*
X132320630Y-74866336D01*
X132315408Y-74864937D01*
X132310020Y-74864465D01*
X132310017Y-74864465D01*
X132085395Y-74844813D01*
X132080000Y-74844341D01*
X132074605Y-74844813D01*
X131849982Y-74864465D01*
X131849977Y-74864465D01*
X131844592Y-74864937D01*
X131839371Y-74866335D01*
X131839365Y-74866337D01*
X131621569Y-74924694D01*
X131621557Y-74924698D01*
X131616337Y-74926097D01*
X131611432Y-74928383D01*
X131611427Y-74928386D01*
X131407081Y-75023675D01*
X131407077Y-75023677D01*
X131402171Y-75025965D01*
X131397738Y-75029068D01*
X131397731Y-75029073D01*
X131213034Y-75158399D01*
X131213029Y-75158402D01*
X131208599Y-75161505D01*
X131204775Y-75165328D01*
X131204769Y-75165334D01*
X131045334Y-75324769D01*
X131045328Y-75324775D01*
X131041505Y-75328599D01*
X131038402Y-75333029D01*
X131038399Y-75333034D01*
X130911575Y-75514159D01*
X130867257Y-75553025D01*
X130810000Y-75567036D01*
X130752743Y-75553025D01*
X130708425Y-75514159D01*
X130602602Y-75363028D01*
X130578495Y-75328599D01*
X130411401Y-75161505D01*
X130406970Y-75158402D01*
X130406966Y-75158399D01*
X130222259Y-75029066D01*
X130222257Y-75029064D01*
X130217830Y-75025965D01*
X130212933Y-75023681D01*
X130212927Y-75023678D01*
X130008572Y-74928386D01*
X130008570Y-74928385D01*
X130003663Y-74926097D01*
X129998438Y-74924697D01*
X129998430Y-74924694D01*
X129780634Y-74866337D01*
X129780630Y-74866336D01*
X129775408Y-74864937D01*
X129770020Y-74864465D01*
X129770017Y-74864465D01*
X129545395Y-74844813D01*
X129540000Y-74844341D01*
X129534605Y-74844813D01*
X129309982Y-74864465D01*
X129309977Y-74864465D01*
X129304592Y-74864937D01*
X129299371Y-74866335D01*
X129299365Y-74866337D01*
X129081569Y-74924694D01*
X129081557Y-74924698D01*
X129076337Y-74926097D01*
X129071432Y-74928383D01*
X129071427Y-74928386D01*
X128867081Y-75023675D01*
X128867077Y-75023677D01*
X128862171Y-75025965D01*
X128857738Y-75029068D01*
X128857731Y-75029073D01*
X128673034Y-75158399D01*
X128673029Y-75158402D01*
X128668599Y-75161505D01*
X128664775Y-75165328D01*
X128664769Y-75165334D01*
X128505334Y-75324769D01*
X128505328Y-75324775D01*
X128501505Y-75328599D01*
X128498402Y-75333029D01*
X128498399Y-75333034D01*
X128371575Y-75514159D01*
X128327257Y-75553025D01*
X128270000Y-75567036D01*
X128212743Y-75553025D01*
X128168425Y-75514159D01*
X128062602Y-75363028D01*
X128038495Y-75328599D01*
X127871401Y-75161505D01*
X127866970Y-75158402D01*
X127866966Y-75158399D01*
X127682259Y-75029066D01*
X127682257Y-75029064D01*
X127677830Y-75025965D01*
X127672933Y-75023681D01*
X127672927Y-75023678D01*
X127468572Y-74928386D01*
X127468570Y-74928385D01*
X127463663Y-74926097D01*
X127458438Y-74924697D01*
X127458430Y-74924694D01*
X127240634Y-74866337D01*
X127240630Y-74866336D01*
X127235408Y-74864937D01*
X127230020Y-74864465D01*
X127230017Y-74864465D01*
X127005395Y-74844813D01*
X127000000Y-74844341D01*
X126994605Y-74844813D01*
X126769982Y-74864465D01*
X126769977Y-74864465D01*
X126764592Y-74864937D01*
X126759371Y-74866335D01*
X126759365Y-74866337D01*
X126541569Y-74924694D01*
X126541557Y-74924698D01*
X126536337Y-74926097D01*
X126531432Y-74928383D01*
X126531427Y-74928386D01*
X126327081Y-75023675D01*
X126327077Y-75023677D01*
X126322171Y-75025965D01*
X126317738Y-75029068D01*
X126317731Y-75029073D01*
X126133034Y-75158399D01*
X126133029Y-75158402D01*
X126128599Y-75161505D01*
X126124775Y-75165328D01*
X126124769Y-75165334D01*
X125965334Y-75324769D01*
X125965328Y-75324775D01*
X125961505Y-75328599D01*
X125958402Y-75333029D01*
X125958399Y-75333034D01*
X125831575Y-75514159D01*
X125787257Y-75553025D01*
X125730000Y-75567036D01*
X125672743Y-75553025D01*
X125628425Y-75514159D01*
X125522602Y-75363028D01*
X125498495Y-75328599D01*
X125331401Y-75161505D01*
X125326970Y-75158402D01*
X125326966Y-75158399D01*
X125142259Y-75029066D01*
X125142257Y-75029064D01*
X125137830Y-75025965D01*
X125132933Y-75023681D01*
X125132927Y-75023678D01*
X124928572Y-74928386D01*
X124928570Y-74928385D01*
X124923663Y-74926097D01*
X124918438Y-74924697D01*
X124918430Y-74924694D01*
X124700634Y-74866337D01*
X124700630Y-74866336D01*
X124695408Y-74864937D01*
X124690020Y-74864465D01*
X124690017Y-74864465D01*
X124465395Y-74844813D01*
X124460000Y-74844341D01*
X124454605Y-74844813D01*
X124229982Y-74864465D01*
X124229977Y-74864465D01*
X124224592Y-74864937D01*
X124219371Y-74866335D01*
X124219365Y-74866337D01*
X124001569Y-74924694D01*
X124001557Y-74924698D01*
X123996337Y-74926097D01*
X123991432Y-74928383D01*
X123991427Y-74928386D01*
X123787081Y-75023675D01*
X123787077Y-75023677D01*
X123782171Y-75025965D01*
X123777738Y-75029068D01*
X123777731Y-75029073D01*
X123593034Y-75158399D01*
X123593029Y-75158402D01*
X123588599Y-75161505D01*
X123584775Y-75165328D01*
X123584769Y-75165334D01*
X123425334Y-75324769D01*
X123425328Y-75324775D01*
X123421505Y-75328599D01*
X123418402Y-75333029D01*
X123418399Y-75333034D01*
X123291575Y-75514159D01*
X123247257Y-75553025D01*
X123190000Y-75567036D01*
X123132743Y-75553025D01*
X123088425Y-75514159D01*
X122982602Y-75363028D01*
X122958495Y-75328599D01*
X122791401Y-75161505D01*
X122786970Y-75158402D01*
X122786966Y-75158399D01*
X122602259Y-75029066D01*
X122602257Y-75029064D01*
X122597830Y-75025965D01*
X122592933Y-75023681D01*
X122592927Y-75023678D01*
X122388572Y-74928386D01*
X122388570Y-74928385D01*
X122383663Y-74926097D01*
X122378438Y-74924697D01*
X122378430Y-74924694D01*
X122160634Y-74866337D01*
X122160630Y-74866336D01*
X122155408Y-74864937D01*
X122150020Y-74864465D01*
X122150017Y-74864465D01*
X121925395Y-74844813D01*
X121920000Y-74844341D01*
X121914605Y-74844813D01*
X121689982Y-74864465D01*
X121689977Y-74864465D01*
X121684592Y-74864937D01*
X121679371Y-74866335D01*
X121679365Y-74866337D01*
X121461569Y-74924694D01*
X121461557Y-74924698D01*
X121456337Y-74926097D01*
X121451432Y-74928383D01*
X121451427Y-74928386D01*
X121247081Y-75023675D01*
X121247077Y-75023677D01*
X121242171Y-75025965D01*
X121237738Y-75029068D01*
X121237731Y-75029073D01*
X121053034Y-75158399D01*
X121053029Y-75158402D01*
X121048599Y-75161505D01*
X121044775Y-75165328D01*
X121044769Y-75165334D01*
X120885334Y-75324769D01*
X120885328Y-75324775D01*
X120881505Y-75328599D01*
X120878403Y-75333028D01*
X120878403Y-75333029D01*
X120751269Y-75514596D01*
X120706951Y-75553461D01*
X120649694Y-75567472D01*
X120592437Y-75553461D01*
X120548119Y-75514595D01*
X120421215Y-75333357D01*
X120414280Y-75325092D01*
X120254909Y-75165721D01*
X120246643Y-75158784D01*
X120062008Y-75029501D01*
X120052676Y-75024113D01*
X119848397Y-74928856D01*
X119838263Y-74925168D01*
X119643780Y-74873056D01*
X119632551Y-74872688D01*
X119630000Y-74883631D01*
X119630000Y-77516369D01*
X119632551Y-77527311D01*
X119643780Y-77526943D01*
X119838263Y-77474831D01*
X119848397Y-77471143D01*
X120052676Y-77375886D01*
X120062008Y-77370498D01*
X120246643Y-77241215D01*
X120254909Y-77234278D01*
X120414278Y-77074909D01*
X120421219Y-77066638D01*
X120548119Y-76885406D01*
X120592437Y-76846540D01*
X120649694Y-76832529D01*
X120706951Y-76846540D01*
X120751269Y-76885405D01*
X120878399Y-77066966D01*
X120878402Y-77066970D01*
X120881505Y-77071401D01*
X121048599Y-77238495D01*
X121053031Y-77241598D01*
X121053033Y-77241600D01*
X121178189Y-77329235D01*
X121242170Y-77374035D01*
X121247070Y-77376320D01*
X121247072Y-77376321D01*
X121265303Y-77384822D01*
X121456337Y-77473903D01*
X121461567Y-77475304D01*
X121461569Y-77475305D01*
X121473590Y-77478526D01*
X121684592Y-77535063D01*
X121920000Y-77555659D01*
X122155408Y-77535063D01*
X122383663Y-77473903D01*
X122597830Y-77374035D01*
X122791401Y-77238495D01*
X122958495Y-77071401D01*
X123088424Y-76885842D01*
X123132743Y-76846976D01*
X123190000Y-76832965D01*
X123247257Y-76846976D01*
X123291575Y-76885842D01*
X123418395Y-77066961D01*
X123418401Y-77066968D01*
X123421505Y-77071401D01*
X123588599Y-77238495D01*
X123593031Y-77241598D01*
X123593033Y-77241600D01*
X123718189Y-77329235D01*
X123782170Y-77374035D01*
X123787070Y-77376320D01*
X123787072Y-77376321D01*
X123805303Y-77384822D01*
X123996337Y-77473903D01*
X124001567Y-77475304D01*
X124001569Y-77475305D01*
X124013590Y-77478526D01*
X124224592Y-77535063D01*
X124460000Y-77555659D01*
X124695408Y-77535063D01*
X124923663Y-77473903D01*
X125137830Y-77374035D01*
X125331401Y-77238495D01*
X125498495Y-77071401D01*
X125628424Y-76885842D01*
X125672743Y-76846976D01*
X125730000Y-76832965D01*
X125787257Y-76846976D01*
X125831575Y-76885842D01*
X125958395Y-77066961D01*
X125958401Y-77066968D01*
X125961505Y-77071401D01*
X125965336Y-77075232D01*
X126099564Y-77209460D01*
X126131658Y-77265047D01*
X126131658Y-77329235D01*
X126099564Y-77384822D01*
X125275885Y-78208501D01*
X125235657Y-78235381D01*
X125188204Y-78244820D01*
X124614300Y-78244820D01*
X124614280Y-78244820D01*
X124611151Y-78244821D01*
X124608019Y-78245140D01*
X124608017Y-78245141D01*
X124515097Y-78254632D01*
X124515087Y-78254633D01*
X124508362Y-78255321D01*
X124501940Y-78257448D01*
X124501935Y-78257450D01*
X124348680Y-78308234D01*
X124348676Y-78308235D01*
X124341825Y-78310506D01*
X124335681Y-78314295D01*
X124335678Y-78314297D01*
X124198647Y-78398817D01*
X124198639Y-78398823D01*
X124192503Y-78402608D01*
X124187401Y-78407709D01*
X124187397Y-78407713D01*
X124098840Y-78496271D01*
X124043253Y-78528365D01*
X123979065Y-78528365D01*
X123923478Y-78496271D01*
X123834920Y-78407713D01*
X123829815Y-78402608D01*
X123823674Y-78398820D01*
X123823670Y-78398817D01*
X123686639Y-78314297D01*
X123680493Y-78310506D01*
X123642583Y-78297944D01*
X123520384Y-78257451D01*
X123520383Y-78257450D01*
X123513956Y-78255321D01*
X123507223Y-78254633D01*
X123507218Y-78254632D01*
X123414299Y-78245139D01*
X123414282Y-78245138D01*
X123411168Y-78244820D01*
X123408019Y-78244820D01*
X122789300Y-78244820D01*
X122789280Y-78244820D01*
X122786151Y-78244821D01*
X122783019Y-78245140D01*
X122783017Y-78245141D01*
X122690097Y-78254632D01*
X122690087Y-78254633D01*
X122683362Y-78255321D01*
X122676940Y-78257448D01*
X122676935Y-78257450D01*
X122523680Y-78308234D01*
X122523676Y-78308235D01*
X122516825Y-78310506D01*
X122510681Y-78314295D01*
X122510678Y-78314297D01*
X122373647Y-78398817D01*
X122373639Y-78398823D01*
X122367503Y-78402608D01*
X122362401Y-78407709D01*
X122362397Y-78407713D01*
X122248552Y-78521558D01*
X122248548Y-78521562D01*
X122243447Y-78526664D01*
X122239662Y-78532800D01*
X122239656Y-78532808D01*
X122155136Y-78669839D01*
X122151345Y-78675986D01*
X122149074Y-78682837D01*
X122149073Y-78682841D01*
X122111831Y-78795231D01*
X122096160Y-78842523D01*
X122095472Y-78849253D01*
X122095471Y-78849260D01*
X122085978Y-78942179D01*
X122085977Y-78942197D01*
X122085659Y-78945311D01*
X122085659Y-78948460D01*
X122085659Y-79522365D01*
X122076220Y-79569817D01*
X122049341Y-79610045D01*
X121991207Y-79668180D01*
X121950978Y-79695061D01*
X121903525Y-79704500D01*
X121400808Y-79704500D01*
X121353355Y-79695061D01*
X121318757Y-79671943D01*
X121318545Y-79672217D01*
X121314677Y-79669217D01*
X121313127Y-79668181D01*
X121312383Y-79667437D01*
X121306865Y-79661919D01*
X121300151Y-79657948D01*
X121300148Y-79657946D01*
X121172113Y-79582227D01*
X121172111Y-79582226D01*
X121165398Y-79578256D01*
X121149813Y-79573728D01*
X121013657Y-79534170D01*
X121013650Y-79534168D01*
X121007569Y-79532402D01*
X121001258Y-79531905D01*
X121001251Y-79531904D01*
X120973128Y-79529691D01*
X120973114Y-79529690D01*
X120970694Y-79529500D01*
X119664306Y-79529500D01*
X119661886Y-79529690D01*
X119661871Y-79529691D01*
X119633748Y-79531904D01*
X119633739Y-79531905D01*
X119627431Y-79532402D01*
X119621351Y-79534168D01*
X119621342Y-79534170D01*
X119477094Y-79576079D01*
X119477091Y-79576080D01*
X119469602Y-79578256D01*
X119462891Y-79582224D01*
X119462886Y-79582227D01*
X119334851Y-79657946D01*
X119334844Y-79657950D01*
X119328135Y-79661919D01*
X119322620Y-79667433D01*
X119322616Y-79667437D01*
X119217437Y-79772616D01*
X119217433Y-79772620D01*
X119211919Y-79778135D01*
X119207950Y-79784844D01*
X119207946Y-79784851D01*
X119132227Y-79912886D01*
X119132224Y-79912891D01*
X119128256Y-79919602D01*
X119126080Y-79927091D01*
X119126079Y-79927094D01*
X119084170Y-80071342D01*
X119084168Y-80071351D01*
X119082402Y-80077431D01*
X119081905Y-80083739D01*
X119081904Y-80083748D01*
X119079691Y-80111871D01*
X119079690Y-80111886D01*
X119079500Y-80114306D01*
X119079500Y-80116751D01*
X119079500Y-80355500D01*
X119062887Y-80417500D01*
X119017500Y-80462887D01*
X118955500Y-80479500D01*
X118510483Y-80479500D01*
X118450744Y-80464161D01*
X118444714Y-80460846D01*
X118444712Y-80460845D01*
X118437876Y-80457087D01*
X118430316Y-80455146D01*
X118430314Y-80455145D01*
X118418472Y-80452104D01*
X118400068Y-80445803D01*
X118388841Y-80440944D01*
X118388834Y-80440942D01*
X118381680Y-80437846D01*
X118373976Y-80436625D01*
X118373974Y-80436625D01*
X118338543Y-80431013D01*
X118327108Y-80428645D01*
X118292355Y-80419722D01*
X118292347Y-80419721D01*
X118284803Y-80417784D01*
X118277007Y-80417784D01*
X118264767Y-80417784D01*
X118245381Y-80416258D01*
X118225588Y-80413124D01*
X118217822Y-80413858D01*
X118217819Y-80413858D01*
X118182108Y-80417234D01*
X118170439Y-80417784D01*
X116988096Y-80417784D01*
X116929078Y-80402839D01*
X116884287Y-80361605D01*
X116768529Y-80184423D01*
X116768523Y-80184415D01*
X116765724Y-80180131D01*
X116608529Y-80009371D01*
X116601267Y-80003719D01*
X116429417Y-79869963D01*
X116429416Y-79869962D01*
X116425371Y-79866814D01*
X116290047Y-79793580D01*
X116225752Y-79758785D01*
X116225747Y-79758783D01*
X116221248Y-79756348D01*
X116216402Y-79754684D01*
X116216399Y-79754683D01*
X116006579Y-79682652D01*
X116006578Y-79682651D01*
X116001726Y-79680986D01*
X115996676Y-79680143D01*
X115996667Y-79680141D01*
X115777856Y-79643628D01*
X115777847Y-79643627D01*
X115772794Y-79642784D01*
X115540696Y-79642784D01*
X115535643Y-79643627D01*
X115535633Y-79643628D01*
X115316822Y-79680141D01*
X115316810Y-79680143D01*
X115311764Y-79680986D01*
X115306914Y-79682650D01*
X115306910Y-79682652D01*
X115097090Y-79754683D01*
X115097082Y-79754686D01*
X115092242Y-79756348D01*
X115087746Y-79758780D01*
X115087737Y-79758785D01*
X114892627Y-79864374D01*
X114892623Y-79864376D01*
X114888119Y-79866814D01*
X114884079Y-79869958D01*
X114884072Y-79869963D01*
X114709008Y-80006220D01*
X114709000Y-80006227D01*
X114704961Y-80009371D01*
X114701491Y-80013139D01*
X114701487Y-80013144D01*
X114551236Y-80176361D01*
X114551233Y-80176364D01*
X114547766Y-80180131D01*
X114544971Y-80184408D01*
X114544964Y-80184418D01*
X114427654Y-80363976D01*
X114420821Y-80374435D01*
X114418766Y-80379119D01*
X114418761Y-80379129D01*
X114330472Y-80580409D01*
X114327588Y-80586984D01*
X114326330Y-80591949D01*
X114326329Y-80591954D01*
X114271870Y-80807004D01*
X114271868Y-80807013D01*
X114270611Y-80811979D01*
X114270187Y-80817086D01*
X114270186Y-80817097D01*
X114254861Y-81002053D01*
X114251445Y-81043284D01*
X114251869Y-81048401D01*
X114270186Y-81269470D01*
X114270187Y-81269479D01*
X114270611Y-81274589D01*
X114271868Y-81279556D01*
X114271870Y-81279563D01*
X114326329Y-81494613D01*
X114327588Y-81499584D01*
X114329648Y-81504280D01*
X114418761Y-81707438D01*
X114418764Y-81707443D01*
X114420821Y-81712133D01*
X114470912Y-81788803D01*
X114544964Y-81902149D01*
X114544967Y-81902153D01*
X114547766Y-81906437D01*
X114704961Y-82077197D01*
X114709007Y-82080346D01*
X114709008Y-82080347D01*
X114763309Y-82122611D01*
X114888119Y-82219754D01*
X115092242Y-82330220D01*
X115311764Y-82405582D01*
X115540696Y-82443784D01*
X115767661Y-82443784D01*
X115772794Y-82443784D01*
X116001726Y-82405582D01*
X116221248Y-82330220D01*
X116425371Y-82219754D01*
X116608529Y-82077197D01*
X116765724Y-81906437D01*
X116779690Y-81885061D01*
X116884287Y-81724963D01*
X116929078Y-81683729D01*
X116988096Y-81668784D01*
X117169745Y-81668784D01*
X117231182Y-81685074D01*
X117276477Y-81729663D01*
X117309125Y-81784867D01*
X117336919Y-81831865D01*
X117453135Y-81948081D01*
X117459849Y-81952052D01*
X117459851Y-81952053D01*
X117479501Y-81963674D01*
X117594602Y-82031744D01*
X117752431Y-82077598D01*
X117789306Y-82080500D01*
X119093249Y-82080500D01*
X119095694Y-82080500D01*
X119132569Y-82077598D01*
X119290398Y-82031744D01*
X119348693Y-81997268D01*
X119411815Y-81980000D01*
X120051174Y-81980000D01*
X120064049Y-81976549D01*
X120067500Y-81963674D01*
X120567500Y-81963674D01*
X120570950Y-81976549D01*
X120583826Y-81980000D01*
X121535144Y-81980000D01*
X121548286Y-81976293D01*
X121549692Y-81969223D01*
X121508458Y-81827294D01*
X121502310Y-81813087D01*
X121426655Y-81685161D01*
X121417164Y-81672925D01*
X121312074Y-81567835D01*
X121299838Y-81558344D01*
X121171912Y-81482689D01*
X121157705Y-81476541D01*
X121013579Y-81434668D01*
X121001173Y-81432402D01*
X120973076Y-81430191D01*
X120968197Y-81430000D01*
X120583826Y-81430000D01*
X120570950Y-81433450D01*
X120567500Y-81446326D01*
X120567500Y-81963674D01*
X120067500Y-81963674D01*
X120067500Y-81446326D01*
X120064049Y-81433450D01*
X120051174Y-81430000D01*
X119804500Y-81430000D01*
X119742500Y-81413387D01*
X119697113Y-81368000D01*
X119680500Y-81306000D01*
X119680500Y-81254500D01*
X119697113Y-81192500D01*
X119742500Y-81147113D01*
X119804500Y-81130500D01*
X120968249Y-81130500D01*
X120970694Y-81130500D01*
X121007569Y-81127598D01*
X121165398Y-81081744D01*
X121306865Y-80998081D01*
X121313126Y-80991819D01*
X121314677Y-80990782D01*
X121318545Y-80987783D01*
X121318757Y-80988056D01*
X121353355Y-80964939D01*
X121400808Y-80955500D01*
X122136204Y-80955500D01*
X122147259Y-80956021D01*
X122154646Y-80957673D01*
X122221851Y-80955561D01*
X122225747Y-80955500D01*
X122249427Y-80955500D01*
X122253329Y-80955500D01*
X122257292Y-80954999D01*
X122268942Y-80954080D01*
X122312606Y-80952709D01*
X122331840Y-80947119D01*
X122350896Y-80943174D01*
X122370771Y-80940664D01*
X122411374Y-80924587D01*
X122422429Y-80920802D01*
X122464369Y-80908618D01*
X122481608Y-80898422D01*
X122499082Y-80889862D01*
X122510453Y-80885360D01*
X122510455Y-80885358D01*
X122517711Y-80882486D01*
X122553048Y-80856811D01*
X122562803Y-80850403D01*
X122600399Y-80828170D01*
X122614563Y-80814005D01*
X122629358Y-80801368D01*
X122645566Y-80789594D01*
X122673407Y-80755938D01*
X122681258Y-80747309D01*
X122746432Y-80682135D01*
X122786657Y-80655258D01*
X122834105Y-80645819D01*
X123411167Y-80645819D01*
X123513956Y-80635319D01*
X123680493Y-80580134D01*
X123829815Y-80488032D01*
X123923478Y-80394369D01*
X123979065Y-80362275D01*
X124043253Y-80362275D01*
X124098840Y-80394369D01*
X124192503Y-80488032D01*
X124198644Y-80491820D01*
X124198647Y-80491822D01*
X124249998Y-80523495D01*
X124341825Y-80580134D01*
X124508362Y-80635319D01*
X124611150Y-80645820D01*
X125236167Y-80645819D01*
X125338956Y-80635319D01*
X125505493Y-80580134D01*
X125639326Y-80497585D01*
X125696011Y-80479410D01*
X125754636Y-80489747D01*
X125801689Y-80526215D01*
X125826323Y-80580409D01*
X125822861Y-80639838D01*
X125792102Y-80690805D01*
X124624726Y-81858181D01*
X124584498Y-81885061D01*
X124537045Y-81894500D01*
X123963141Y-81894500D01*
X123963121Y-81894500D01*
X123959992Y-81894501D01*
X123956860Y-81894820D01*
X123956858Y-81894821D01*
X123863938Y-81904312D01*
X123863928Y-81904313D01*
X123857203Y-81905001D01*
X123850781Y-81907128D01*
X123850776Y-81907130D01*
X123697521Y-81957914D01*
X123697517Y-81957915D01*
X123690666Y-81960186D01*
X123684522Y-81963975D01*
X123684519Y-81963977D01*
X123547488Y-82048497D01*
X123547480Y-82048503D01*
X123541344Y-82052288D01*
X123536242Y-82057389D01*
X123536238Y-82057393D01*
X123422393Y-82171238D01*
X123422389Y-82171242D01*
X123417288Y-82176344D01*
X123413503Y-82182480D01*
X123413497Y-82182488D01*
X123328977Y-82319519D01*
X123325186Y-82325666D01*
X123322915Y-82332517D01*
X123322914Y-82332521D01*
X123272131Y-82485774D01*
X123270001Y-82492203D01*
X123269313Y-82498933D01*
X123269312Y-82498940D01*
X123259819Y-82591859D01*
X123259818Y-82591877D01*
X123259500Y-82594991D01*
X123259500Y-82598138D01*
X123259500Y-82598139D01*
X123259500Y-83216858D01*
X123259500Y-83216877D01*
X123259501Y-83220008D01*
X123259820Y-83223140D01*
X123259821Y-83223141D01*
X123269312Y-83316061D01*
X123269313Y-83316069D01*
X123270001Y-83322797D01*
X123272129Y-83329219D01*
X123272130Y-83329223D01*
X123282000Y-83359008D01*
X123325186Y-83489334D01*
X123328977Y-83495480D01*
X123413497Y-83632511D01*
X123413500Y-83632515D01*
X123417288Y-83638656D01*
X123422392Y-83643760D01*
X123422393Y-83643761D01*
X123510951Y-83732319D01*
X123543045Y-83787906D01*
X123543045Y-83852094D01*
X123510951Y-83907681D01*
X123422399Y-83996232D01*
X123422395Y-83996236D01*
X123417288Y-84001344D01*
X123413498Y-84007487D01*
X123413492Y-84007496D01*
X123388451Y-84048096D01*
X123343344Y-84091277D01*
X123282912Y-84107000D01*
X121072775Y-84107000D01*
X121061719Y-84106478D01*
X121054333Y-84104827D01*
X121046545Y-84105071D01*
X121046538Y-84105071D01*
X120987113Y-84106939D01*
X120983219Y-84107000D01*
X120955650Y-84107000D01*
X120951794Y-84107486D01*
X120951791Y-84107487D01*
X120951735Y-84107494D01*
X120951662Y-84107503D01*
X120940044Y-84108417D01*
X120904165Y-84109545D01*
X120904164Y-84109545D01*
X120896373Y-84109790D01*
X120888888Y-84111964D01*
X120888884Y-84111965D01*
X120877125Y-84115381D01*
X120858087Y-84119323D01*
X120845949Y-84120857D01*
X120845941Y-84120858D01*
X120838208Y-84121836D01*
X120830960Y-84124705D01*
X120830954Y-84124707D01*
X120797597Y-84137913D01*
X120786554Y-84141694D01*
X120752100Y-84151705D01*
X120752094Y-84151707D01*
X120744610Y-84153882D01*
X120737898Y-84157851D01*
X120737896Y-84157852D01*
X120727364Y-84164080D01*
X120709904Y-84172634D01*
X120698519Y-84177142D01*
X120698513Y-84177144D01*
X120691268Y-84180014D01*
X120684963Y-84184594D01*
X120684955Y-84184599D01*
X120655932Y-84205685D01*
X120646174Y-84212095D01*
X120615296Y-84230357D01*
X120615290Y-84230361D01*
X120608580Y-84234330D01*
X120603067Y-84239841D01*
X120603060Y-84239848D01*
X120594410Y-84248498D01*
X120579627Y-84261124D01*
X120569726Y-84268317D01*
X120569716Y-84268326D01*
X120563413Y-84272906D01*
X120558444Y-84278911D01*
X120558441Y-84278915D01*
X120535572Y-84306559D01*
X120527711Y-84315197D01*
X120269726Y-84573183D01*
X120229501Y-84600061D01*
X120182048Y-84609500D01*
X119664306Y-84609500D01*
X119661886Y-84609690D01*
X119661871Y-84609691D01*
X119633748Y-84611904D01*
X119633739Y-84611905D01*
X119627431Y-84612402D01*
X119621351Y-84614168D01*
X119621342Y-84614170D01*
X119477094Y-84656079D01*
X119477091Y-84656080D01*
X119469602Y-84658256D01*
X119462891Y-84662224D01*
X119462886Y-84662227D01*
X119334851Y-84737946D01*
X119334844Y-84737950D01*
X119328135Y-84741919D01*
X119322620Y-84747433D01*
X119322616Y-84747437D01*
X119217437Y-84852616D01*
X119217433Y-84852620D01*
X119211919Y-84858135D01*
X119207950Y-84864844D01*
X119207946Y-84864851D01*
X119132227Y-84992886D01*
X119132224Y-84992891D01*
X119128256Y-84999602D01*
X119126080Y-85007091D01*
X119126079Y-85007094D01*
X119084170Y-85151342D01*
X119084168Y-85151351D01*
X119082402Y-85157431D01*
X119081905Y-85163739D01*
X119081904Y-85163748D01*
X119079691Y-85191871D01*
X119079690Y-85191886D01*
X119079500Y-85194306D01*
X119079500Y-85196751D01*
X119079500Y-85435500D01*
X119062887Y-85497500D01*
X119017500Y-85542887D01*
X118955500Y-85559500D01*
X117789306Y-85559500D01*
X117786886Y-85559690D01*
X117786871Y-85559691D01*
X117758748Y-85561904D01*
X117758739Y-85561905D01*
X117752431Y-85562402D01*
X117746351Y-85564168D01*
X117746342Y-85564170D01*
X117602094Y-85606079D01*
X117602091Y-85606080D01*
X117594602Y-85608256D01*
X117587891Y-85612224D01*
X117587886Y-85612227D01*
X117459851Y-85687946D01*
X117459844Y-85687950D01*
X117453135Y-85691919D01*
X117447620Y-85697433D01*
X117447616Y-85697437D01*
X117446873Y-85698181D01*
X117445322Y-85699217D01*
X117441455Y-85702217D01*
X117441242Y-85701943D01*
X117406645Y-85725061D01*
X117359192Y-85734500D01*
X116887553Y-85734500D01*
X116876500Y-85733979D01*
X116869114Y-85732328D01*
X116861316Y-85732573D01*
X116801926Y-85734439D01*
X116798032Y-85734500D01*
X116770431Y-85734500D01*
X116766580Y-85734986D01*
X116766549Y-85734988D01*
X116766421Y-85735005D01*
X116754810Y-85735918D01*
X116718953Y-85737045D01*
X116718946Y-85737046D01*
X116711154Y-85737291D01*
X116703669Y-85739465D01*
X116703653Y-85739468D01*
X116691907Y-85742881D01*
X116672864Y-85746825D01*
X116660730Y-85748358D01*
X116660729Y-85748358D01*
X116652989Y-85749336D01*
X116645739Y-85752205D01*
X116645732Y-85752208D01*
X116612379Y-85765413D01*
X116601335Y-85769194D01*
X116566886Y-85779203D01*
X116566876Y-85779207D01*
X116559391Y-85781382D01*
X116552681Y-85785349D01*
X116552679Y-85785351D01*
X116549286Y-85787357D01*
X116542141Y-85791583D01*
X116524681Y-85800136D01*
X116506049Y-85807514D01*
X116499746Y-85812092D01*
X116499739Y-85812097D01*
X116470720Y-85833181D01*
X116460960Y-85839592D01*
X116430075Y-85857857D01*
X116430065Y-85857864D01*
X116423360Y-85861830D01*
X116417844Y-85867345D01*
X116417841Y-85867348D01*
X116409188Y-85876000D01*
X116394405Y-85888626D01*
X116384508Y-85895817D01*
X116384501Y-85895823D01*
X116378194Y-85900406D01*
X116373227Y-85906408D01*
X116373216Y-85906420D01*
X116350351Y-85934059D01*
X116342491Y-85942697D01*
X116155264Y-86129924D01*
X116095533Y-86163052D01*
X116027322Y-86159525D01*
X116006576Y-86152403D01*
X116006575Y-86152402D01*
X116001726Y-86150738D01*
X115996676Y-86149895D01*
X115996667Y-86149893D01*
X115777856Y-86113380D01*
X115777847Y-86113379D01*
X115772794Y-86112536D01*
X115540696Y-86112536D01*
X115535643Y-86113379D01*
X115535633Y-86113380D01*
X115316822Y-86149893D01*
X115316810Y-86149895D01*
X115311764Y-86150738D01*
X115306914Y-86152402D01*
X115306910Y-86152404D01*
X115097090Y-86224435D01*
X115097082Y-86224438D01*
X115092242Y-86226100D01*
X115087746Y-86228532D01*
X115087737Y-86228537D01*
X114892627Y-86334126D01*
X114892623Y-86334128D01*
X114888119Y-86336566D01*
X114884079Y-86339710D01*
X114884072Y-86339715D01*
X114709008Y-86475972D01*
X114709000Y-86475979D01*
X114704961Y-86479123D01*
X114701491Y-86482891D01*
X114701487Y-86482896D01*
X114551236Y-86646113D01*
X114551233Y-86646116D01*
X114547766Y-86649883D01*
X114544971Y-86654160D01*
X114544964Y-86654170D01*
X114440902Y-86813450D01*
X114420821Y-86844187D01*
X114418766Y-86848871D01*
X114418761Y-86848881D01*
X114329648Y-87052039D01*
X114327588Y-87056736D01*
X114326330Y-87061701D01*
X114326329Y-87061706D01*
X114271870Y-87276756D01*
X114271868Y-87276765D01*
X114270611Y-87281731D01*
X114270187Y-87286838D01*
X114270186Y-87286849D01*
X114264801Y-87351843D01*
X114251445Y-87513036D01*
X114251869Y-87518153D01*
X114270186Y-87739222D01*
X114270187Y-87739231D01*
X114270611Y-87744341D01*
X114271868Y-87749308D01*
X114271870Y-87749315D01*
X114326329Y-87964365D01*
X114327588Y-87969336D01*
X114329648Y-87974032D01*
X114418761Y-88177190D01*
X114418764Y-88177195D01*
X114420821Y-88181885D01*
X114478197Y-88269706D01*
X114544964Y-88371901D01*
X114544967Y-88371905D01*
X114547766Y-88376189D01*
X114704961Y-88546949D01*
X114888119Y-88689506D01*
X115092242Y-88799972D01*
X115311764Y-88875334D01*
X115540696Y-88913536D01*
X115767661Y-88913536D01*
X115772794Y-88913536D01*
X116001726Y-88875334D01*
X116221248Y-88799972D01*
X116425371Y-88689506D01*
X116608529Y-88546949D01*
X116765724Y-88376189D01*
X116892669Y-88181885D01*
X116985902Y-87969336D01*
X117042879Y-87744341D01*
X117057261Y-87570776D01*
X119085307Y-87570776D01*
X119126541Y-87712705D01*
X119132689Y-87726912D01*
X119208344Y-87854838D01*
X119217835Y-87867074D01*
X119322925Y-87972164D01*
X119335161Y-87981655D01*
X119463087Y-88057310D01*
X119477294Y-88063458D01*
X119621420Y-88105331D01*
X119633826Y-88107597D01*
X119661923Y-88109808D01*
X119666803Y-88110000D01*
X120051174Y-88110000D01*
X120064049Y-88106549D01*
X120067500Y-88093674D01*
X120567500Y-88093674D01*
X120570950Y-88106549D01*
X120583826Y-88110000D01*
X120968197Y-88110000D01*
X120973076Y-88109808D01*
X121001173Y-88107597D01*
X121013579Y-88105331D01*
X121157705Y-88063458D01*
X121171912Y-88057310D01*
X121299838Y-87981655D01*
X121312074Y-87972164D01*
X121417164Y-87867074D01*
X121426655Y-87854838D01*
X121502310Y-87726912D01*
X121508458Y-87712705D01*
X121549692Y-87570776D01*
X121548286Y-87563706D01*
X121535144Y-87560000D01*
X120583826Y-87560000D01*
X120570950Y-87563450D01*
X120567500Y-87576326D01*
X120567500Y-88093674D01*
X120067500Y-88093674D01*
X120067500Y-87576326D01*
X120064049Y-87563450D01*
X120051174Y-87560000D01*
X119099856Y-87560000D01*
X119086713Y-87563706D01*
X119085307Y-87570776D01*
X117057261Y-87570776D01*
X117062045Y-87513036D01*
X117042879Y-87281731D01*
X117006971Y-87139940D01*
X117005816Y-87084054D01*
X117029323Y-87033338D01*
X117072716Y-86998100D01*
X117127177Y-86985500D01*
X117359192Y-86985500D01*
X117406645Y-86994939D01*
X117441242Y-87018056D01*
X117441455Y-87017783D01*
X117445322Y-87020782D01*
X117446873Y-87021819D01*
X117453135Y-87028081D01*
X117459849Y-87032052D01*
X117459851Y-87032053D01*
X117523868Y-87069912D01*
X117594602Y-87111744D01*
X117752431Y-87157598D01*
X117789306Y-87160500D01*
X119093249Y-87160500D01*
X119095694Y-87160500D01*
X119132569Y-87157598D01*
X119290398Y-87111744D01*
X119348693Y-87077268D01*
X119411815Y-87060000D01*
X120051174Y-87060000D01*
X120064049Y-87056549D01*
X120067500Y-87043674D01*
X120567500Y-87043674D01*
X120570950Y-87056549D01*
X120583826Y-87060000D01*
X121535144Y-87060000D01*
X121548286Y-87056293D01*
X121549692Y-87049223D01*
X121508458Y-86907294D01*
X121502310Y-86893087D01*
X121426655Y-86765161D01*
X121417164Y-86752925D01*
X121312074Y-86647835D01*
X121299838Y-86638344D01*
X121171912Y-86562689D01*
X121157705Y-86556541D01*
X121013579Y-86514668D01*
X121001173Y-86512402D01*
X120973076Y-86510191D01*
X120968197Y-86510000D01*
X120583826Y-86510000D01*
X120570950Y-86513450D01*
X120567500Y-86526326D01*
X120567500Y-87043674D01*
X120067500Y-87043674D01*
X120067500Y-86526326D01*
X120064049Y-86513450D01*
X120051174Y-86510000D01*
X119804500Y-86510000D01*
X119742500Y-86493387D01*
X119697113Y-86448000D01*
X119680500Y-86386000D01*
X119680500Y-86334500D01*
X119697113Y-86272500D01*
X119742500Y-86227113D01*
X119804500Y-86210500D01*
X120968249Y-86210500D01*
X120970694Y-86210500D01*
X121007569Y-86207598D01*
X121165398Y-86161744D01*
X121306865Y-86078081D01*
X121423081Y-85961865D01*
X121506744Y-85820398D01*
X121552598Y-85662569D01*
X121555500Y-85625694D01*
X121555500Y-85482000D01*
X121572113Y-85420000D01*
X121617500Y-85374613D01*
X121679500Y-85358000D01*
X123282912Y-85358000D01*
X123343344Y-85373723D01*
X123388451Y-85416904D01*
X123413492Y-85457503D01*
X123413495Y-85457507D01*
X123417288Y-85463656D01*
X123541344Y-85587712D01*
X123547485Y-85591500D01*
X123547488Y-85591502D01*
X123574651Y-85608256D01*
X123690666Y-85679814D01*
X123857203Y-85734999D01*
X123959991Y-85745500D01*
X124960008Y-85745499D01*
X125062797Y-85734999D01*
X125229334Y-85679814D01*
X125378656Y-85587712D01*
X125502712Y-85463656D01*
X125594814Y-85314334D01*
X125649999Y-85147797D01*
X125660500Y-85045009D01*
X125660499Y-84419992D01*
X125649999Y-84317203D01*
X125594814Y-84150666D01*
X125523077Y-84034361D01*
X125506502Y-84007488D01*
X125506500Y-84007485D01*
X125502712Y-84001344D01*
X125409049Y-83907681D01*
X125376955Y-83852094D01*
X125376955Y-83787906D01*
X125409049Y-83732319D01*
X125430238Y-83711130D01*
X125502712Y-83638656D01*
X125594814Y-83489334D01*
X125649999Y-83322797D01*
X125660500Y-83220009D01*
X125660499Y-82642950D01*
X125669938Y-82595498D01*
X125696815Y-82555273D01*
X128248369Y-80003719D01*
X136467859Y-80003719D01*
X136471309Y-80016594D01*
X136484185Y-80020045D01*
X138101533Y-80020045D01*
X138114408Y-80016594D01*
X138117859Y-80003719D01*
X138617859Y-80003719D01*
X138621309Y-80016594D01*
X138634185Y-80020045D01*
X140251533Y-80020045D01*
X140264408Y-80016594D01*
X140267859Y-80003719D01*
X140267859Y-78825527D01*
X140267505Y-78818930D01*
X140262285Y-78770377D01*
X140258747Y-78755403D01*
X140214311Y-78636267D01*
X140205896Y-78620855D01*
X140130360Y-78519952D01*
X140117951Y-78507543D01*
X140017048Y-78432007D01*
X140001636Y-78423592D01*
X139882500Y-78379156D01*
X139867526Y-78375618D01*
X139818973Y-78370398D01*
X139812377Y-78370045D01*
X138634185Y-78370045D01*
X138621309Y-78373495D01*
X138617859Y-78386371D01*
X138617859Y-80003719D01*
X138117859Y-80003719D01*
X138117859Y-78386371D01*
X138114408Y-78373495D01*
X138101533Y-78370045D01*
X136923341Y-78370045D01*
X136916744Y-78370398D01*
X136868191Y-78375618D01*
X136853217Y-78379156D01*
X136734081Y-78423592D01*
X136718669Y-78432007D01*
X136617766Y-78507543D01*
X136605357Y-78519952D01*
X136529821Y-78620855D01*
X136521406Y-78636267D01*
X136476970Y-78755403D01*
X136473432Y-78770377D01*
X136468212Y-78818930D01*
X136467859Y-78825527D01*
X136467859Y-80003719D01*
X128248369Y-80003719D01*
X129917306Y-78334782D01*
X129925482Y-78327343D01*
X129931877Y-78323286D01*
X129977933Y-78274240D01*
X129980550Y-78271538D01*
X130000120Y-78251970D01*
X130002565Y-78248816D01*
X130010155Y-78239928D01*
X130040062Y-78208082D01*
X130049709Y-78190532D01*
X130060393Y-78174266D01*
X130072674Y-78158436D01*
X130090018Y-78118351D01*
X130095160Y-78107856D01*
X130116197Y-78069592D01*
X130121179Y-78050189D01*
X130127480Y-78031783D01*
X130135438Y-78013395D01*
X130142269Y-77970256D01*
X130144639Y-77958815D01*
X130153560Y-77924074D01*
X130153559Y-77924074D01*
X130155500Y-77916519D01*
X130155500Y-77896483D01*
X130157025Y-77877097D01*
X130160160Y-77857304D01*
X130156050Y-77813824D01*
X130155500Y-77802155D01*
X130155500Y-77481068D01*
X130172114Y-77419067D01*
X130216550Y-77374631D01*
X130217830Y-77374035D01*
X130411401Y-77238495D01*
X130578495Y-77071401D01*
X130708424Y-76885842D01*
X130752743Y-76846976D01*
X130810000Y-76832965D01*
X130867257Y-76846976D01*
X130911575Y-76885842D01*
X131038395Y-77066961D01*
X131038401Y-77066968D01*
X131041505Y-77071401D01*
X131208599Y-77238495D01*
X131213031Y-77241598D01*
X131213033Y-77241600D01*
X131338189Y-77329235D01*
X131402170Y-77374035D01*
X131407070Y-77376320D01*
X131407072Y-77376321D01*
X131425303Y-77384822D01*
X131616337Y-77473903D01*
X131621567Y-77475304D01*
X131621569Y-77475305D01*
X131633590Y-77478526D01*
X131844592Y-77535063D01*
X132080000Y-77555659D01*
X132315408Y-77535063D01*
X132543663Y-77473903D01*
X132757830Y-77374035D01*
X132951401Y-77238495D01*
X133118495Y-77071401D01*
X133248424Y-76885842D01*
X133292743Y-76846976D01*
X133350000Y-76832965D01*
X133407257Y-76846976D01*
X133451575Y-76885842D01*
X133578395Y-77066961D01*
X133578401Y-77066968D01*
X133581505Y-77071401D01*
X133748599Y-77238495D01*
X133753031Y-77241598D01*
X133753033Y-77241600D01*
X133878189Y-77329235D01*
X133942170Y-77374035D01*
X133947070Y-77376320D01*
X133947072Y-77376321D01*
X133965303Y-77384822D01*
X134156337Y-77473903D01*
X134161567Y-77475304D01*
X134161569Y-77475305D01*
X134173590Y-77478526D01*
X134384592Y-77535063D01*
X134620000Y-77555659D01*
X134855408Y-77535063D01*
X135083663Y-77473903D01*
X135297830Y-77374035D01*
X135491401Y-77238495D01*
X135658495Y-77071401D01*
X135788424Y-76885842D01*
X135832743Y-76846976D01*
X135890000Y-76832965D01*
X135947257Y-76846976D01*
X135991575Y-76885842D01*
X136118395Y-77066961D01*
X136118401Y-77066968D01*
X136121505Y-77071401D01*
X136288599Y-77238495D01*
X136293031Y-77241598D01*
X136293033Y-77241600D01*
X136418189Y-77329235D01*
X136482170Y-77374035D01*
X136487070Y-77376320D01*
X136487072Y-77376321D01*
X136505303Y-77384822D01*
X136696337Y-77473903D01*
X136701567Y-77475304D01*
X136701569Y-77475305D01*
X136713590Y-77478526D01*
X136924592Y-77535063D01*
X137160000Y-77555659D01*
X137395408Y-77535063D01*
X137623663Y-77473903D01*
X137837830Y-77374035D01*
X138031401Y-77238495D01*
X138198495Y-77071401D01*
X138328424Y-76885842D01*
X138372743Y-76846976D01*
X138430000Y-76832965D01*
X138487257Y-76846976D01*
X138531575Y-76885842D01*
X138658395Y-77066961D01*
X138658401Y-77066968D01*
X138661505Y-77071401D01*
X138828599Y-77238495D01*
X138833031Y-77241598D01*
X138833033Y-77241600D01*
X138958189Y-77329235D01*
X139022170Y-77374035D01*
X139027070Y-77376320D01*
X139027072Y-77376321D01*
X139045303Y-77384822D01*
X139236337Y-77473903D01*
X139241567Y-77475304D01*
X139241569Y-77475305D01*
X139253590Y-77478526D01*
X139464592Y-77535063D01*
X139700000Y-77555659D01*
X139935408Y-77535063D01*
X140163663Y-77473903D01*
X140377830Y-77374035D01*
X140571401Y-77238495D01*
X140738495Y-77071401D01*
X140868424Y-76885842D01*
X140912743Y-76846976D01*
X140970000Y-76832965D01*
X141027257Y-76846976D01*
X141071575Y-76885842D01*
X141198395Y-77066961D01*
X141198401Y-77066968D01*
X141201505Y-77071401D01*
X141368599Y-77238495D01*
X141373031Y-77241598D01*
X141373033Y-77241600D01*
X141498189Y-77329235D01*
X141562170Y-77374035D01*
X141567070Y-77376320D01*
X141567072Y-77376321D01*
X141585303Y-77384822D01*
X141776337Y-77473903D01*
X141781567Y-77475304D01*
X141781569Y-77475305D01*
X141793590Y-77478526D01*
X142004592Y-77535063D01*
X142240000Y-77555659D01*
X142475408Y-77535063D01*
X142703663Y-77473903D01*
X142917830Y-77374035D01*
X143111401Y-77238495D01*
X143278495Y-77071401D01*
X143408424Y-76885842D01*
X143452743Y-76846976D01*
X143510000Y-76832965D01*
X143567257Y-76846976D01*
X143611575Y-76885842D01*
X143738395Y-77066961D01*
X143738401Y-77066968D01*
X143741505Y-77071401D01*
X143908599Y-77238495D01*
X143913031Y-77241598D01*
X143913033Y-77241600D01*
X144038189Y-77329235D01*
X144102170Y-77374035D01*
X144107070Y-77376320D01*
X144107072Y-77376321D01*
X144125303Y-77384822D01*
X144316337Y-77473903D01*
X144321567Y-77475304D01*
X144321569Y-77475305D01*
X144333590Y-77478526D01*
X144544592Y-77535063D01*
X144780000Y-77555659D01*
X145015408Y-77535063D01*
X145243663Y-77473903D01*
X145457830Y-77374035D01*
X145651401Y-77238495D01*
X145818495Y-77071401D01*
X145948424Y-76885842D01*
X145992743Y-76846976D01*
X146050000Y-76832965D01*
X146107257Y-76846976D01*
X146151575Y-76885842D01*
X146278395Y-77066961D01*
X146278401Y-77066968D01*
X146281505Y-77071401D01*
X146448599Y-77238495D01*
X146453031Y-77241598D01*
X146453033Y-77241600D01*
X146578189Y-77329235D01*
X146642170Y-77374035D01*
X146647070Y-77376320D01*
X146647072Y-77376321D01*
X146665303Y-77384822D01*
X146856337Y-77473903D01*
X146861567Y-77475304D01*
X146861569Y-77475305D01*
X146873590Y-77478526D01*
X147084592Y-77535063D01*
X147320000Y-77555659D01*
X147555408Y-77535063D01*
X147783663Y-77473903D01*
X147997830Y-77374035D01*
X148191401Y-77238495D01*
X148358495Y-77071401D01*
X148488424Y-76885842D01*
X148532743Y-76846976D01*
X148590000Y-76832965D01*
X148647257Y-76846976D01*
X148691575Y-76885842D01*
X148818395Y-77066961D01*
X148818401Y-77066968D01*
X148821505Y-77071401D01*
X148988599Y-77238495D01*
X148993031Y-77241598D01*
X148993033Y-77241600D01*
X149118189Y-77329235D01*
X149182170Y-77374035D01*
X149187070Y-77376320D01*
X149187072Y-77376321D01*
X149205303Y-77384822D01*
X149396337Y-77473903D01*
X149401567Y-77475304D01*
X149401569Y-77475305D01*
X149413590Y-77478526D01*
X149624592Y-77535063D01*
X149860000Y-77555659D01*
X150095408Y-77535063D01*
X150323663Y-77473903D01*
X150537830Y-77374035D01*
X150731401Y-77238495D01*
X150853329Y-77116566D01*
X150906072Y-77085273D01*
X150967365Y-77083084D01*
X151022210Y-77110537D01*
X151057189Y-77160916D01*
X151106204Y-77292331D01*
X151111518Y-77299430D01*
X151111519Y-77299431D01*
X151185993Y-77398916D01*
X151192454Y-77407546D01*
X151307669Y-77493796D01*
X151442517Y-77544091D01*
X151502127Y-77550500D01*
X153297872Y-77550499D01*
X153357483Y-77544091D01*
X153492331Y-77493796D01*
X153607546Y-77407546D01*
X153614007Y-77398914D01*
X153616897Y-77396410D01*
X153619132Y-77394176D01*
X153619291Y-77394335D01*
X153653847Y-77364394D01*
X153704428Y-77349542D01*
X153756607Y-77357044D01*
X153800954Y-77385544D01*
X156134919Y-79719510D01*
X156168299Y-79780351D01*
X156163760Y-79849600D01*
X156122725Y-79905565D01*
X156058047Y-79930718D01*
X155993253Y-79936387D01*
X155982639Y-79938259D01*
X155781151Y-79992246D01*
X155771009Y-79995938D01*
X155581964Y-80084092D01*
X155572619Y-80089487D01*
X155525130Y-80122738D01*
X155517697Y-80130849D01*
X155523608Y-80140128D01*
X156206451Y-80822972D01*
X156472323Y-81088844D01*
X156504417Y-81144431D01*
X156504417Y-81208619D01*
X156472323Y-81264206D01*
X155523608Y-82212920D01*
X155517697Y-82222199D01*
X155525130Y-82230310D01*
X155572616Y-82263560D01*
X155581966Y-82268958D01*
X155721163Y-82333867D01*
X155773338Y-82379624D01*
X155792758Y-82446249D01*
X155773339Y-82512874D01*
X155721163Y-82558631D01*
X155581708Y-82623659D01*
X155581701Y-82623662D01*
X155576805Y-82625946D01*
X155572381Y-82629043D01*
X155572370Y-82629050D01*
X155401429Y-82748745D01*
X155401424Y-82748748D01*
X155396994Y-82751851D01*
X155393170Y-82755674D01*
X155393164Y-82755680D01*
X155245606Y-82903238D01*
X155245600Y-82903244D01*
X155241777Y-82907068D01*
X155238674Y-82911498D01*
X155238671Y-82911503D01*
X155118976Y-83082444D01*
X155118969Y-83082455D01*
X155115872Y-83086879D01*
X155113587Y-83091778D01*
X155113583Y-83091786D01*
X155025390Y-83280918D01*
X155025387Y-83280925D01*
X155023104Y-83285822D01*
X155021707Y-83291032D01*
X155021704Y-83291043D01*
X154967691Y-83492618D01*
X154967688Y-83492631D01*
X154966290Y-83497851D01*
X154965818Y-83503240D01*
X154965817Y-83503249D01*
X154950017Y-83683854D01*
X154947159Y-83716525D01*
X154947631Y-83721920D01*
X154965817Y-83929800D01*
X154965818Y-83929807D01*
X154966290Y-83935199D01*
X154967689Y-83940420D01*
X154967691Y-83940431D01*
X155021704Y-84142006D01*
X155021706Y-84142013D01*
X155023104Y-84147228D01*
X155025388Y-84152128D01*
X155025390Y-84152131D01*
X155112460Y-84338855D01*
X155115872Y-84346171D01*
X155118972Y-84350599D01*
X155118976Y-84350605D01*
X155202938Y-84470514D01*
X155241777Y-84525982D01*
X155396994Y-84681199D01*
X155460191Y-84725450D01*
X155572370Y-84803999D01*
X155572373Y-84804000D01*
X155576805Y-84807104D01*
X155700645Y-84864851D01*
X155720572Y-84874143D01*
X155772748Y-84919900D01*
X155792167Y-84986525D01*
X155772748Y-85053150D01*
X155720572Y-85098907D01*
X155581708Y-85163659D01*
X155581701Y-85163662D01*
X155576805Y-85165946D01*
X155572381Y-85169043D01*
X155572370Y-85169050D01*
X155401429Y-85288745D01*
X155401424Y-85288748D01*
X155396994Y-85291851D01*
X155393170Y-85295674D01*
X155393164Y-85295680D01*
X155245606Y-85443238D01*
X155245600Y-85443244D01*
X155241777Y-85447068D01*
X155155318Y-85570545D01*
X155150370Y-85577611D01*
X155107774Y-85615563D01*
X155052694Y-85630426D01*
X155039087Y-85630854D01*
X155035583Y-85630964D01*
X155031694Y-85631025D01*
X155004125Y-85631025D01*
X155000269Y-85631511D01*
X155000266Y-85631512D01*
X155000210Y-85631519D01*
X155000137Y-85631528D01*
X154988519Y-85632442D01*
X154952640Y-85633570D01*
X154952639Y-85633570D01*
X154944848Y-85633815D01*
X154937363Y-85635989D01*
X154937359Y-85635990D01*
X154925600Y-85639406D01*
X154906562Y-85643348D01*
X154894424Y-85644882D01*
X154894416Y-85644883D01*
X154886683Y-85645861D01*
X154879435Y-85648730D01*
X154879429Y-85648732D01*
X154846072Y-85661938D01*
X154835029Y-85665719D01*
X154800575Y-85675730D01*
X154800569Y-85675732D01*
X154793085Y-85677907D01*
X154786373Y-85681876D01*
X154786371Y-85681877D01*
X154775839Y-85688105D01*
X154758379Y-85696659D01*
X154746994Y-85701167D01*
X154746988Y-85701169D01*
X154739743Y-85704039D01*
X154733438Y-85708619D01*
X154733430Y-85708624D01*
X154704407Y-85729710D01*
X154694649Y-85736120D01*
X154663771Y-85754382D01*
X154663765Y-85754386D01*
X154657055Y-85758355D01*
X154651542Y-85763866D01*
X154651535Y-85763873D01*
X154642885Y-85772523D01*
X154628102Y-85785149D01*
X154618201Y-85792342D01*
X154618191Y-85792351D01*
X154611888Y-85796931D01*
X154606919Y-85802936D01*
X154606916Y-85802940D01*
X154584047Y-85830584D01*
X154576186Y-85839222D01*
X144547228Y-95868181D01*
X144507000Y-95895061D01*
X144459547Y-95904500D01*
X140392359Y-95904500D01*
X140330359Y-95887887D01*
X140284972Y-95842500D01*
X140268359Y-95780500D01*
X140268358Y-93325484D01*
X140268358Y-93322173D01*
X140261950Y-93262562D01*
X140211655Y-93127714D01*
X140186683Y-93094356D01*
X140164783Y-93046404D01*
X140164783Y-92993686D01*
X140186684Y-92945732D01*
X140189184Y-92942393D01*
X140211655Y-92912376D01*
X140261950Y-92777528D01*
X140268359Y-92717918D01*
X140268359Y-92394545D01*
X140284972Y-92332545D01*
X140330359Y-92287158D01*
X140392359Y-92270545D01*
X144167588Y-92270545D01*
X144170728Y-92270584D01*
X144258229Y-92272802D01*
X144316324Y-92262389D01*
X144325605Y-92261087D01*
X144384304Y-92255119D01*
X144413330Y-92246011D01*
X144428579Y-92242269D01*
X144458519Y-92236903D01*
X144513289Y-92215025D01*
X144522169Y-92211863D01*
X144578454Y-92194204D01*
X144605060Y-92179435D01*
X144619228Y-92172707D01*
X144647483Y-92161422D01*
X144696757Y-92128947D01*
X144704776Y-92124088D01*
X144756368Y-92095454D01*
X144767827Y-92085615D01*
X144779449Y-92075639D01*
X144791991Y-92066182D01*
X144817385Y-92049447D01*
X144859104Y-92007726D01*
X144865988Y-92001346D01*
X144910761Y-91962911D01*
X144929390Y-91938843D01*
X144939750Y-91927080D01*
X148953971Y-87912858D01*
X149002891Y-87882754D01*
X149060132Y-87877926D01*
X149092163Y-87882754D01*
X149135665Y-87889311D01*
X149385900Y-87889311D01*
X149390535Y-87889311D01*
X149642558Y-87851324D01*
X149886104Y-87776200D01*
X150115734Y-87665616D01*
X150326317Y-87522043D01*
X150513150Y-87348688D01*
X150672059Y-87149423D01*
X150799493Y-86928699D01*
X150892608Y-86691448D01*
X150949322Y-86442968D01*
X150968368Y-86188811D01*
X150949322Y-85934654D01*
X150892608Y-85686174D01*
X150799493Y-85448923D01*
X150672059Y-85228199D01*
X150513150Y-85028934D01*
X150326317Y-84855579D01*
X150115734Y-84712006D01*
X150064137Y-84687158D01*
X149890283Y-84603434D01*
X149890277Y-84603431D01*
X149886104Y-84601422D01*
X149881682Y-84600058D01*
X149881672Y-84600054D01*
X149646991Y-84527665D01*
X149646986Y-84527663D01*
X149642558Y-84526298D01*
X149637978Y-84525607D01*
X149637971Y-84525606D01*
X149395118Y-84489001D01*
X149395107Y-84489000D01*
X149390535Y-84488311D01*
X149135665Y-84488311D01*
X149131093Y-84489000D01*
X149131081Y-84489001D01*
X148888228Y-84525606D01*
X148888218Y-84525608D01*
X148883642Y-84526298D01*
X148879216Y-84527662D01*
X148879208Y-84527665D01*
X148644527Y-84600054D01*
X148644512Y-84600059D01*
X148640096Y-84601422D01*
X148635927Y-84603429D01*
X148635916Y-84603434D01*
X148414651Y-84709990D01*
X148414644Y-84709993D01*
X148410466Y-84712006D01*
X148406633Y-84714619D01*
X148406630Y-84714621D01*
X148291036Y-84793432D01*
X148199883Y-84855579D01*
X148196491Y-84858725D01*
X148196485Y-84858731D01*
X148036588Y-85007094D01*
X148013050Y-85028934D01*
X148010160Y-85032556D01*
X148010157Y-85032561D01*
X147857033Y-85224572D01*
X147854141Y-85228199D01*
X147851822Y-85232214D01*
X147851821Y-85232217D01*
X147729028Y-85444902D01*
X147729025Y-85444907D01*
X147726707Y-85448923D01*
X147725013Y-85453237D01*
X147725011Y-85453243D01*
X147635289Y-85681849D01*
X147633592Y-85686174D01*
X147632559Y-85690695D01*
X147632558Y-85690702D01*
X147577909Y-85930134D01*
X147577907Y-85930142D01*
X147576878Y-85934654D01*
X147576531Y-85939273D01*
X147576531Y-85939279D01*
X147566543Y-86072562D01*
X147557832Y-86188811D01*
X147558179Y-86193441D01*
X147558179Y-86193442D01*
X147573822Y-86402191D01*
X147566424Y-86454593D01*
X147537850Y-86499138D01*
X143803765Y-90233226D01*
X143763537Y-90260106D01*
X143716084Y-90269545D01*
X140392358Y-90269545D01*
X140330358Y-90252932D01*
X140284971Y-90207545D01*
X140268358Y-90145545D01*
X140268358Y-89825484D01*
X140268358Y-89822173D01*
X140261950Y-89762562D01*
X140211655Y-89627714D01*
X140125405Y-89512499D01*
X140062236Y-89465211D01*
X140017290Y-89431564D01*
X140017289Y-89431563D01*
X140010190Y-89426249D01*
X139875342Y-89375954D01*
X139867629Y-89375124D01*
X139867626Y-89375124D01*
X139819039Y-89369900D01*
X139819028Y-89369899D01*
X139815732Y-89369545D01*
X139812409Y-89369545D01*
X136923298Y-89369545D01*
X136923279Y-89369545D01*
X136919987Y-89369546D01*
X136916709Y-89369898D01*
X136916697Y-89369899D01*
X136868090Y-89375124D01*
X136868084Y-89375125D01*
X136860376Y-89375954D01*
X136853111Y-89378663D01*
X136853105Y-89378665D01*
X136733839Y-89423149D01*
X136733837Y-89423149D01*
X136725528Y-89426249D01*
X136718431Y-89431561D01*
X136718427Y-89431564D01*
X136617409Y-89507186D01*
X136617405Y-89507189D01*
X136610313Y-89512499D01*
X136605003Y-89519591D01*
X136605000Y-89519595D01*
X136529378Y-89620613D01*
X136529375Y-89620617D01*
X136524063Y-89627714D01*
X136520963Y-89636023D01*
X136520963Y-89636025D01*
X136476479Y-89755292D01*
X136476478Y-89755295D01*
X136473768Y-89762562D01*
X136472938Y-89770272D01*
X136472938Y-89770277D01*
X136467714Y-89818864D01*
X136467713Y-89818876D01*
X136467359Y-89822172D01*
X136467359Y-89825494D01*
X136467359Y-92405754D01*
X136453844Y-92462049D01*
X136416244Y-92506072D01*
X136362757Y-92528227D01*
X136305041Y-92523685D01*
X136255678Y-92493435D01*
X133769609Y-90007366D01*
X133742729Y-89967138D01*
X133733290Y-89919685D01*
X133733290Y-89140907D01*
X133733290Y-89137596D01*
X133726882Y-89077985D01*
X133676587Y-88943137D01*
X133590337Y-88827922D01*
X133555223Y-88801636D01*
X133482222Y-88746987D01*
X133482221Y-88746986D01*
X133475122Y-88741672D01*
X133425429Y-88723137D01*
X133343192Y-88692465D01*
X133292812Y-88657486D01*
X133265359Y-88602641D01*
X133267548Y-88541348D01*
X133298844Y-88488601D01*
X133417075Y-88370370D01*
X133424006Y-88362111D01*
X133553289Y-88177476D01*
X133558677Y-88168144D01*
X133653934Y-87963865D01*
X133657622Y-87953731D01*
X133709734Y-87759248D01*
X133710102Y-87748019D01*
X133699160Y-87745468D01*
X131066422Y-87745468D01*
X131055479Y-87748019D01*
X131055847Y-87759248D01*
X131107959Y-87953731D01*
X131111647Y-87963865D01*
X131206904Y-88168144D01*
X131212292Y-88177476D01*
X131341575Y-88362111D01*
X131348512Y-88370377D01*
X131466737Y-88488602D01*
X131498033Y-88541348D01*
X131500222Y-88602641D01*
X131472769Y-88657486D01*
X131422390Y-88692465D01*
X131315447Y-88732352D01*
X131290460Y-88741672D01*
X131283363Y-88746984D01*
X131283359Y-88746987D01*
X131182341Y-88822609D01*
X131182337Y-88822612D01*
X131175245Y-88827922D01*
X131169935Y-88835014D01*
X131169932Y-88835018D01*
X131094310Y-88936036D01*
X131094307Y-88936040D01*
X131088995Y-88943137D01*
X131085895Y-88951446D01*
X131085895Y-88951448D01*
X131041411Y-89070715D01*
X131041410Y-89070718D01*
X131038700Y-89077985D01*
X131037870Y-89085695D01*
X131037870Y-89085700D01*
X131032646Y-89134287D01*
X131032645Y-89134299D01*
X131032291Y-89137595D01*
X131032291Y-89140916D01*
X131032291Y-89140917D01*
X131032291Y-90930028D01*
X131032291Y-90930046D01*
X131032292Y-90933340D01*
X131032644Y-90936618D01*
X131032645Y-90936629D01*
X131037870Y-90985236D01*
X131037871Y-90985241D01*
X131038700Y-90992951D01*
X131041410Y-91000217D01*
X131041411Y-91000221D01*
X131067004Y-91068839D01*
X131088995Y-91127799D01*
X131094309Y-91134898D01*
X131094310Y-91134899D01*
X131161018Y-91224010D01*
X131175245Y-91243014D01*
X131290460Y-91329264D01*
X131425308Y-91379559D01*
X131484918Y-91385968D01*
X132267007Y-91385967D01*
X132314460Y-91395406D01*
X132354688Y-91422286D01*
X136399690Y-95467287D01*
X136401883Y-95469536D01*
X136433233Y-95502516D01*
X136458512Y-95541950D01*
X136467359Y-95587948D01*
X136467359Y-96214605D01*
X136467359Y-96214623D01*
X136467360Y-96217917D01*
X136467712Y-96221195D01*
X136467713Y-96221206D01*
X136472938Y-96269813D01*
X136472939Y-96269818D01*
X136473768Y-96277528D01*
X136476478Y-96284794D01*
X136476479Y-96284798D01*
X136495469Y-96335711D01*
X136524063Y-96412376D01*
X136529377Y-96419475D01*
X136529378Y-96419476D01*
X136547308Y-96443428D01*
X136610313Y-96527591D01*
X136725528Y-96613841D01*
X136860376Y-96664136D01*
X136919986Y-96670545D01*
X138940500Y-96670544D01*
X139002500Y-96687157D01*
X139047887Y-96732544D01*
X139064500Y-96794544D01*
X139064500Y-97791776D01*
X139050489Y-97849033D01*
X139011623Y-97893351D01*
X138833034Y-98018399D01*
X138833029Y-98018402D01*
X138828599Y-98021505D01*
X138824775Y-98025328D01*
X138824769Y-98025334D01*
X138665334Y-98184769D01*
X138665328Y-98184775D01*
X138661505Y-98188599D01*
X138658403Y-98193028D01*
X138658403Y-98193029D01*
X138531269Y-98374596D01*
X138486951Y-98413461D01*
X138429694Y-98427472D01*
X138372437Y-98413461D01*
X138328119Y-98374595D01*
X138201215Y-98193357D01*
X138194280Y-98185092D01*
X138034909Y-98025721D01*
X138026643Y-98018784D01*
X137842008Y-97889501D01*
X137832676Y-97884113D01*
X137628397Y-97788856D01*
X137618263Y-97785168D01*
X137423780Y-97733056D01*
X137412551Y-97732688D01*
X137410000Y-97743631D01*
X137410000Y-100376369D01*
X137412551Y-100387311D01*
X137423780Y-100386943D01*
X137618263Y-100334831D01*
X137628397Y-100331143D01*
X137832676Y-100235886D01*
X137842008Y-100230498D01*
X138026643Y-100101215D01*
X138034909Y-100094278D01*
X138194278Y-99934909D01*
X138201219Y-99926638D01*
X138328119Y-99745406D01*
X138372437Y-99706540D01*
X138429694Y-99692529D01*
X138486951Y-99706540D01*
X138531269Y-99745405D01*
X138658399Y-99926966D01*
X138658402Y-99926970D01*
X138661505Y-99931401D01*
X138828599Y-100098495D01*
X139022170Y-100234035D01*
X139236337Y-100333903D01*
X139464592Y-100395063D01*
X139700000Y-100415659D01*
X139935408Y-100395063D01*
X140163663Y-100333903D01*
X140377830Y-100234035D01*
X140571401Y-100098495D01*
X140738495Y-99931401D01*
X140868424Y-99745842D01*
X140912743Y-99706976D01*
X140970000Y-99692965D01*
X141027257Y-99706976D01*
X141071575Y-99745842D01*
X141198395Y-99926961D01*
X141198401Y-99926968D01*
X141201505Y-99931401D01*
X141368599Y-100098495D01*
X141562170Y-100234035D01*
X141776337Y-100333903D01*
X142004592Y-100395063D01*
X142240000Y-100415659D01*
X142475408Y-100395063D01*
X142703663Y-100333903D01*
X142917830Y-100234035D01*
X143111401Y-100098495D01*
X143278495Y-99931401D01*
X143408424Y-99745842D01*
X143452743Y-99706976D01*
X143510000Y-99692965D01*
X143567257Y-99706976D01*
X143611575Y-99745842D01*
X143738395Y-99926961D01*
X143738401Y-99926968D01*
X143741505Y-99931401D01*
X143908599Y-100098495D01*
X144102170Y-100234035D01*
X144316337Y-100333903D01*
X144544592Y-100395063D01*
X144780000Y-100415659D01*
X145015408Y-100395063D01*
X145243663Y-100333903D01*
X145457830Y-100234035D01*
X145651401Y-100098495D01*
X145818495Y-99931401D01*
X145948424Y-99745842D01*
X145992743Y-99706976D01*
X146050000Y-99692965D01*
X146107257Y-99706976D01*
X146151575Y-99745842D01*
X146278395Y-99926961D01*
X146278401Y-99926968D01*
X146281505Y-99931401D01*
X146448599Y-100098495D01*
X146642170Y-100234035D01*
X146856337Y-100333903D01*
X147084592Y-100395063D01*
X147320000Y-100415659D01*
X147555408Y-100395063D01*
X147783663Y-100333903D01*
X147997830Y-100234035D01*
X148191401Y-100098495D01*
X148358495Y-99931401D01*
X148488424Y-99745842D01*
X148532743Y-99706976D01*
X148590000Y-99692965D01*
X148647257Y-99706976D01*
X148691575Y-99745842D01*
X148818395Y-99926961D01*
X148818401Y-99926968D01*
X148821505Y-99931401D01*
X148988599Y-100098495D01*
X149182170Y-100234035D01*
X149396337Y-100333903D01*
X149624592Y-100395063D01*
X149860000Y-100415659D01*
X150095408Y-100395063D01*
X150323663Y-100333903D01*
X150537830Y-100234035D01*
X150731401Y-100098495D01*
X150853717Y-99976178D01*
X150906460Y-99944885D01*
X150967753Y-99942696D01*
X151022597Y-99970149D01*
X151057577Y-100020528D01*
X151103548Y-100143779D01*
X151111962Y-100159189D01*
X151187498Y-100260092D01*
X151199907Y-100272501D01*
X151300810Y-100348037D01*
X151316222Y-100356452D01*
X151435358Y-100400888D01*
X151450332Y-100404426D01*
X151498885Y-100409646D01*
X151505482Y-100410000D01*
X152133674Y-100410000D01*
X152146549Y-100406549D01*
X152150000Y-100393674D01*
X152650000Y-100393674D01*
X152653450Y-100406549D01*
X152666326Y-100410000D01*
X153294518Y-100410000D01*
X153301114Y-100409646D01*
X153349667Y-100404426D01*
X153364641Y-100400888D01*
X153483777Y-100356452D01*
X153499189Y-100348037D01*
X153600092Y-100272501D01*
X153612501Y-100260092D01*
X153688037Y-100159189D01*
X153696452Y-100143777D01*
X153740888Y-100024641D01*
X153744426Y-100009667D01*
X153749646Y-99961114D01*
X153750000Y-99954518D01*
X153750000Y-99326326D01*
X153746549Y-99313450D01*
X153733674Y-99310000D01*
X152666326Y-99310000D01*
X152653450Y-99313450D01*
X152650000Y-99326326D01*
X152650000Y-100393674D01*
X152150000Y-100393674D01*
X152150000Y-98793674D01*
X152650000Y-98793674D01*
X152653450Y-98806549D01*
X152666326Y-98810000D01*
X153733674Y-98810000D01*
X153746549Y-98806549D01*
X153750000Y-98793674D01*
X153750000Y-98165482D01*
X153749646Y-98158885D01*
X153744426Y-98110332D01*
X153740888Y-98095358D01*
X153696452Y-97976222D01*
X153688037Y-97960810D01*
X153612501Y-97859907D01*
X153600092Y-97847498D01*
X153499189Y-97771962D01*
X153483777Y-97763547D01*
X153364641Y-97719111D01*
X153349667Y-97715573D01*
X153301114Y-97710353D01*
X153294518Y-97710000D01*
X152666326Y-97710000D01*
X152653450Y-97713450D01*
X152650000Y-97726326D01*
X152650000Y-98793674D01*
X152150000Y-98793674D01*
X152150000Y-97726326D01*
X152146549Y-97713450D01*
X152133674Y-97710000D01*
X151505482Y-97710000D01*
X151498885Y-97710353D01*
X151450332Y-97715573D01*
X151435358Y-97719111D01*
X151316222Y-97763547D01*
X151300810Y-97771962D01*
X151199907Y-97847498D01*
X151187498Y-97859907D01*
X151111962Y-97960810D01*
X151103544Y-97976226D01*
X151057576Y-98099471D01*
X151022597Y-98149850D01*
X150967753Y-98177303D01*
X150906460Y-98175114D01*
X150853714Y-98143818D01*
X150735232Y-98025336D01*
X150735230Y-98025334D01*
X150731401Y-98021505D01*
X150726970Y-98018402D01*
X150726966Y-98018399D01*
X150542259Y-97889066D01*
X150542257Y-97889064D01*
X150537830Y-97885965D01*
X150532933Y-97883681D01*
X150532927Y-97883678D01*
X150328572Y-97788386D01*
X150328570Y-97788385D01*
X150323663Y-97786097D01*
X150318438Y-97784697D01*
X150318430Y-97784694D01*
X150100634Y-97726337D01*
X150100630Y-97726336D01*
X150095408Y-97724937D01*
X150090020Y-97724465D01*
X150090017Y-97724465D01*
X149865395Y-97704813D01*
X149860000Y-97704341D01*
X149854605Y-97704813D01*
X149629982Y-97724465D01*
X149629977Y-97724465D01*
X149624592Y-97724937D01*
X149619371Y-97726335D01*
X149619365Y-97726337D01*
X149401569Y-97784694D01*
X149401557Y-97784698D01*
X149396337Y-97786097D01*
X149391432Y-97788383D01*
X149391427Y-97788386D01*
X149187081Y-97883675D01*
X149187077Y-97883677D01*
X149182171Y-97885965D01*
X149177738Y-97889068D01*
X149177731Y-97889073D01*
X148993034Y-98018399D01*
X148993029Y-98018402D01*
X148988599Y-98021505D01*
X148984775Y-98025328D01*
X148984769Y-98025334D01*
X148825334Y-98184769D01*
X148825328Y-98184775D01*
X148821505Y-98188599D01*
X148818402Y-98193029D01*
X148818399Y-98193034D01*
X148691575Y-98374159D01*
X148647257Y-98413025D01*
X148590000Y-98427036D01*
X148532743Y-98413025D01*
X148488425Y-98374159D01*
X148382602Y-98223028D01*
X148358495Y-98188599D01*
X148191401Y-98021505D01*
X148186970Y-98018402D01*
X148186966Y-98018399D01*
X148002259Y-97889066D01*
X148002257Y-97889064D01*
X147997830Y-97885965D01*
X147996550Y-97885368D01*
X147952114Y-97840933D01*
X147935500Y-97778932D01*
X147935500Y-96840452D01*
X147944939Y-96792999D01*
X147971819Y-96752771D01*
X151520071Y-93204519D01*
X155092513Y-89632076D01*
X155148098Y-89599984D01*
X155212286Y-89599984D01*
X155267873Y-89632078D01*
X155396994Y-89761199D01*
X155484074Y-89822173D01*
X155572370Y-89883999D01*
X155572373Y-89884000D01*
X155576805Y-89887104D01*
X155646676Y-89919685D01*
X155720572Y-89954143D01*
X155772748Y-89999900D01*
X155792167Y-90066525D01*
X155772748Y-90133150D01*
X155720572Y-90178907D01*
X155581708Y-90243659D01*
X155581701Y-90243662D01*
X155576805Y-90245946D01*
X155572381Y-90249043D01*
X155572370Y-90249050D01*
X155401429Y-90368745D01*
X155401424Y-90368748D01*
X155396994Y-90371851D01*
X155393170Y-90375674D01*
X155393164Y-90375680D01*
X155245606Y-90523238D01*
X155245600Y-90523244D01*
X155241777Y-90527068D01*
X155238674Y-90531498D01*
X155238671Y-90531503D01*
X155118976Y-90702444D01*
X155118969Y-90702455D01*
X155115872Y-90706879D01*
X155113587Y-90711778D01*
X155113583Y-90711786D01*
X155025390Y-90900918D01*
X155025387Y-90900925D01*
X155023104Y-90905822D01*
X155021707Y-90911032D01*
X155021704Y-90911043D01*
X154967691Y-91112618D01*
X154967688Y-91112631D01*
X154966290Y-91117851D01*
X154965818Y-91123240D01*
X154965817Y-91123249D01*
X154951173Y-91290647D01*
X154947159Y-91336525D01*
X154947631Y-91341920D01*
X154965817Y-91549800D01*
X154965818Y-91549807D01*
X154966290Y-91555199D01*
X154967689Y-91560420D01*
X154967691Y-91560431D01*
X155021704Y-91762006D01*
X155021706Y-91762013D01*
X155023104Y-91767228D01*
X155115872Y-91966171D01*
X155118972Y-91970599D01*
X155118976Y-91970605D01*
X155221542Y-92117084D01*
X155241777Y-92145982D01*
X155396994Y-92301199D01*
X155441761Y-92332545D01*
X155533027Y-92396450D01*
X155573354Y-92443666D01*
X155585734Y-92504514D01*
X155567063Y-92563734D01*
X155522022Y-92606477D01*
X155461906Y-92622025D01*
X155407891Y-92622025D01*
X155407872Y-92622025D01*
X155404579Y-92622026D01*
X155401301Y-92622378D01*
X155401289Y-92622379D01*
X155352682Y-92627604D01*
X155352676Y-92627605D01*
X155344968Y-92628434D01*
X155337703Y-92631143D01*
X155337697Y-92631145D01*
X155218431Y-92675629D01*
X155218429Y-92675629D01*
X155210120Y-92678729D01*
X155203023Y-92684041D01*
X155203019Y-92684044D01*
X155102001Y-92759666D01*
X155101997Y-92759669D01*
X155094905Y-92764979D01*
X155089595Y-92772071D01*
X155089592Y-92772075D01*
X155013970Y-92873093D01*
X155013967Y-92873097D01*
X155008655Y-92880194D01*
X155005555Y-92888503D01*
X155005555Y-92888505D01*
X154961071Y-93007772D01*
X154961070Y-93007775D01*
X154958360Y-93015042D01*
X154957530Y-93022752D01*
X154957530Y-93022757D01*
X154952306Y-93071344D01*
X154952305Y-93071356D01*
X154951951Y-93074652D01*
X154951951Y-93077973D01*
X154951951Y-93077974D01*
X154951951Y-94675085D01*
X154951951Y-94675103D01*
X154951952Y-94678397D01*
X154952304Y-94681675D01*
X154952305Y-94681686D01*
X154957530Y-94730293D01*
X154957531Y-94730298D01*
X154958360Y-94738008D01*
X154961070Y-94745274D01*
X154961071Y-94745278D01*
X154983636Y-94805776D01*
X155008655Y-94872856D01*
X155013969Y-94879955D01*
X155013970Y-94879956D01*
X155026695Y-94896955D01*
X155094905Y-94988071D01*
X155210120Y-95074321D01*
X155344968Y-95124616D01*
X155404578Y-95131025D01*
X156730500Y-95131024D01*
X156792500Y-95147637D01*
X156837887Y-95193024D01*
X156854500Y-95255024D01*
X156854500Y-100850500D01*
X156837887Y-100912500D01*
X156792500Y-100957887D01*
X156730500Y-100974500D01*
X124770453Y-100974500D01*
X124723000Y-100965061D01*
X124682772Y-100938181D01*
X124371459Y-100626868D01*
X124341209Y-100577505D01*
X124336667Y-100519789D01*
X124358822Y-100466302D01*
X124402845Y-100428702D01*
X124457928Y-100415477D01*
X124460000Y-100415659D01*
X124695408Y-100395063D01*
X124923663Y-100333903D01*
X125137830Y-100234035D01*
X125331401Y-100098495D01*
X125498495Y-99931401D01*
X125628424Y-99745842D01*
X125672743Y-99706976D01*
X125730000Y-99692965D01*
X125787257Y-99706976D01*
X125831575Y-99745842D01*
X125958395Y-99926961D01*
X125958401Y-99926968D01*
X125961505Y-99931401D01*
X126128599Y-100098495D01*
X126322170Y-100234035D01*
X126536337Y-100333903D01*
X126764592Y-100395063D01*
X127000000Y-100415659D01*
X127235408Y-100395063D01*
X127463663Y-100333903D01*
X127677830Y-100234035D01*
X127871401Y-100098495D01*
X128038495Y-99931401D01*
X128168424Y-99745842D01*
X128212743Y-99706976D01*
X128270000Y-99692965D01*
X128327257Y-99706976D01*
X128371575Y-99745842D01*
X128498395Y-99926961D01*
X128498401Y-99926968D01*
X128501505Y-99931401D01*
X128668599Y-100098495D01*
X128862170Y-100234035D01*
X129076337Y-100333903D01*
X129304592Y-100395063D01*
X129540000Y-100415659D01*
X129775408Y-100395063D01*
X130003663Y-100333903D01*
X130217830Y-100234035D01*
X130411401Y-100098495D01*
X130578495Y-99931401D01*
X130708424Y-99745842D01*
X130752743Y-99706976D01*
X130810000Y-99692965D01*
X130867257Y-99706976D01*
X130911575Y-99745842D01*
X131038395Y-99926961D01*
X131038401Y-99926968D01*
X131041505Y-99931401D01*
X131208599Y-100098495D01*
X131402170Y-100234035D01*
X131616337Y-100333903D01*
X131844592Y-100395063D01*
X132080000Y-100415659D01*
X132315408Y-100395063D01*
X132543663Y-100333903D01*
X132757830Y-100234035D01*
X132951401Y-100098495D01*
X133118495Y-99931401D01*
X133248424Y-99745842D01*
X133292743Y-99706976D01*
X133350000Y-99692965D01*
X133407257Y-99706976D01*
X133451575Y-99745842D01*
X133578395Y-99926961D01*
X133578401Y-99926968D01*
X133581505Y-99931401D01*
X133748599Y-100098495D01*
X133942170Y-100234035D01*
X134156337Y-100333903D01*
X134384592Y-100395063D01*
X134620000Y-100415659D01*
X134855408Y-100395063D01*
X135083663Y-100333903D01*
X135297830Y-100234035D01*
X135491401Y-100098495D01*
X135658495Y-99931401D01*
X135788730Y-99745405D01*
X135833048Y-99706540D01*
X135890305Y-99692529D01*
X135947562Y-99706540D01*
X135991880Y-99745405D01*
X136118784Y-99926643D01*
X136125721Y-99934909D01*
X136285090Y-100094278D01*
X136293356Y-100101215D01*
X136477991Y-100230498D01*
X136487323Y-100235886D01*
X136691602Y-100331143D01*
X136701736Y-100334831D01*
X136896219Y-100386943D01*
X136907448Y-100387311D01*
X136910000Y-100376369D01*
X136910000Y-97743631D01*
X136907448Y-97732688D01*
X136896219Y-97733056D01*
X136701736Y-97785168D01*
X136691602Y-97788856D01*
X136487332Y-97884110D01*
X136477982Y-97889508D01*
X136293357Y-98018784D01*
X136285092Y-98025719D01*
X136125719Y-98185092D01*
X136118788Y-98193352D01*
X135991880Y-98374596D01*
X135947562Y-98413461D01*
X135890305Y-98427472D01*
X135833048Y-98413461D01*
X135788730Y-98374595D01*
X135788425Y-98374159D01*
X135658495Y-98188599D01*
X135491401Y-98021505D01*
X135486970Y-98018402D01*
X135486966Y-98018399D01*
X135302259Y-97889066D01*
X135302257Y-97889064D01*
X135297830Y-97885965D01*
X135292933Y-97883681D01*
X135292927Y-97883678D01*
X135088572Y-97788386D01*
X135088570Y-97788385D01*
X135083663Y-97786097D01*
X135078438Y-97784697D01*
X135078430Y-97784694D01*
X134860634Y-97726337D01*
X134860630Y-97726336D01*
X134855408Y-97724937D01*
X134850020Y-97724465D01*
X134850017Y-97724465D01*
X134625395Y-97704813D01*
X134620000Y-97704341D01*
X134614605Y-97704813D01*
X134389982Y-97724465D01*
X134389977Y-97724465D01*
X134384592Y-97724937D01*
X134379371Y-97726335D01*
X134379365Y-97726337D01*
X134161569Y-97784694D01*
X134161557Y-97784698D01*
X134156337Y-97786097D01*
X134151432Y-97788383D01*
X134151427Y-97788386D01*
X133947081Y-97883675D01*
X133947077Y-97883677D01*
X133942171Y-97885965D01*
X133937738Y-97889068D01*
X133937731Y-97889073D01*
X133753034Y-98018399D01*
X133753029Y-98018402D01*
X133748599Y-98021505D01*
X133744775Y-98025328D01*
X133744769Y-98025334D01*
X133585334Y-98184769D01*
X133585328Y-98184775D01*
X133581505Y-98188599D01*
X133578402Y-98193029D01*
X133578399Y-98193034D01*
X133451575Y-98374159D01*
X133407257Y-98413025D01*
X133350000Y-98427036D01*
X133292743Y-98413025D01*
X133248425Y-98374159D01*
X133142602Y-98223028D01*
X133118495Y-98188599D01*
X132951401Y-98021505D01*
X132946970Y-98018402D01*
X132946966Y-98018399D01*
X132762259Y-97889066D01*
X132762257Y-97889064D01*
X132757830Y-97885965D01*
X132752933Y-97883681D01*
X132752927Y-97883678D01*
X132548572Y-97788386D01*
X132548570Y-97788385D01*
X132543663Y-97786097D01*
X132538438Y-97784697D01*
X132538430Y-97784694D01*
X132320634Y-97726337D01*
X132320630Y-97726336D01*
X132315408Y-97724937D01*
X132310020Y-97724465D01*
X132310017Y-97724465D01*
X132085395Y-97704813D01*
X132080000Y-97704341D01*
X132074605Y-97704813D01*
X131849982Y-97724465D01*
X131849977Y-97724465D01*
X131844592Y-97724937D01*
X131839371Y-97726335D01*
X131839365Y-97726337D01*
X131621569Y-97784694D01*
X131621557Y-97784698D01*
X131616337Y-97786097D01*
X131611432Y-97788383D01*
X131611427Y-97788386D01*
X131407081Y-97883675D01*
X131407077Y-97883677D01*
X131402171Y-97885965D01*
X131397738Y-97889068D01*
X131397731Y-97889073D01*
X131213034Y-98018399D01*
X131213029Y-98018402D01*
X131208599Y-98021505D01*
X131204775Y-98025328D01*
X131204769Y-98025334D01*
X131045334Y-98184769D01*
X131045328Y-98184775D01*
X131041505Y-98188599D01*
X131038402Y-98193029D01*
X131038399Y-98193034D01*
X130911575Y-98374159D01*
X130867257Y-98413025D01*
X130810000Y-98427036D01*
X130752743Y-98413025D01*
X130708425Y-98374159D01*
X130602602Y-98223028D01*
X130578495Y-98188599D01*
X130411401Y-98021505D01*
X130406970Y-98018402D01*
X130406966Y-98018399D01*
X130222259Y-97889066D01*
X130222257Y-97889064D01*
X130217830Y-97885965D01*
X130212933Y-97883681D01*
X130212927Y-97883678D01*
X130008572Y-97788386D01*
X130008570Y-97788385D01*
X130003663Y-97786097D01*
X129998438Y-97784697D01*
X129998430Y-97784694D01*
X129780634Y-97726337D01*
X129780630Y-97726336D01*
X129775408Y-97724937D01*
X129770020Y-97724465D01*
X129770017Y-97724465D01*
X129545395Y-97704813D01*
X129540000Y-97704341D01*
X129534605Y-97704813D01*
X129309982Y-97724465D01*
X129309977Y-97724465D01*
X129304592Y-97724937D01*
X129299371Y-97726335D01*
X129299365Y-97726337D01*
X129081569Y-97784694D01*
X129081557Y-97784698D01*
X129076337Y-97786097D01*
X129071432Y-97788383D01*
X129071427Y-97788386D01*
X128867081Y-97883675D01*
X128867077Y-97883677D01*
X128862171Y-97885965D01*
X128857738Y-97889068D01*
X128857731Y-97889073D01*
X128673034Y-98018399D01*
X128673029Y-98018402D01*
X128668599Y-98021505D01*
X128664775Y-98025328D01*
X128664769Y-98025334D01*
X128505334Y-98184769D01*
X128505328Y-98184775D01*
X128501505Y-98188599D01*
X128498402Y-98193029D01*
X128498399Y-98193034D01*
X128371575Y-98374159D01*
X128327257Y-98413025D01*
X128270000Y-98427036D01*
X128212743Y-98413025D01*
X128168425Y-98374159D01*
X128062602Y-98223028D01*
X128038495Y-98188599D01*
X127871401Y-98021505D01*
X127866970Y-98018402D01*
X127866966Y-98018399D01*
X127682259Y-97889066D01*
X127682257Y-97889064D01*
X127677830Y-97885965D01*
X127672933Y-97883681D01*
X127672927Y-97883678D01*
X127468572Y-97788386D01*
X127468570Y-97788385D01*
X127463663Y-97786097D01*
X127458438Y-97784697D01*
X127458430Y-97784694D01*
X127240634Y-97726337D01*
X127240630Y-97726336D01*
X127235408Y-97724937D01*
X127230020Y-97724465D01*
X127230017Y-97724465D01*
X127005395Y-97704813D01*
X127000000Y-97704341D01*
X126994605Y-97704813D01*
X126769982Y-97724465D01*
X126769977Y-97724465D01*
X126764592Y-97724937D01*
X126759371Y-97726335D01*
X126759365Y-97726337D01*
X126541569Y-97784694D01*
X126541557Y-97784698D01*
X126536337Y-97786097D01*
X126531432Y-97788383D01*
X126531427Y-97788386D01*
X126327081Y-97883675D01*
X126327077Y-97883677D01*
X126322171Y-97885965D01*
X126317738Y-97889068D01*
X126317731Y-97889073D01*
X126133034Y-98018399D01*
X126133029Y-98018402D01*
X126128599Y-98021505D01*
X126124775Y-98025328D01*
X126124769Y-98025334D01*
X125965334Y-98184769D01*
X125965328Y-98184775D01*
X125961505Y-98188599D01*
X125958402Y-98193029D01*
X125958399Y-98193034D01*
X125831575Y-98374159D01*
X125787257Y-98413025D01*
X125730000Y-98427036D01*
X125672743Y-98413025D01*
X125628425Y-98374159D01*
X125522602Y-98223028D01*
X125498495Y-98188599D01*
X125331401Y-98021505D01*
X125326970Y-98018402D01*
X125326966Y-98018399D01*
X125142259Y-97889066D01*
X125142257Y-97889064D01*
X125137830Y-97885965D01*
X125132933Y-97883681D01*
X125132927Y-97883678D01*
X124928572Y-97788386D01*
X124928570Y-97788385D01*
X124923663Y-97786097D01*
X124918438Y-97784697D01*
X124918430Y-97784694D01*
X124700634Y-97726337D01*
X124700630Y-97726336D01*
X124695408Y-97724937D01*
X124690020Y-97724465D01*
X124690017Y-97724465D01*
X124465395Y-97704813D01*
X124460000Y-97704341D01*
X124454605Y-97704813D01*
X124229982Y-97724465D01*
X124229977Y-97724465D01*
X124224592Y-97724937D01*
X124219371Y-97726335D01*
X124219365Y-97726337D01*
X124001569Y-97784694D01*
X124001557Y-97784698D01*
X123996337Y-97786097D01*
X123991432Y-97788383D01*
X123991427Y-97788386D01*
X123787081Y-97883675D01*
X123787077Y-97883677D01*
X123782171Y-97885965D01*
X123777738Y-97889068D01*
X123777731Y-97889073D01*
X123593034Y-98018399D01*
X123593029Y-98018402D01*
X123588599Y-98021505D01*
X123584775Y-98025328D01*
X123584769Y-98025334D01*
X123425334Y-98184769D01*
X123425328Y-98184775D01*
X123421505Y-98188599D01*
X123418402Y-98193029D01*
X123418399Y-98193034D01*
X123291575Y-98374159D01*
X123247257Y-98413025D01*
X123190000Y-98427036D01*
X123132743Y-98413025D01*
X123088425Y-98374159D01*
X122982602Y-98223028D01*
X122958495Y-98188599D01*
X122791401Y-98021505D01*
X122786970Y-98018402D01*
X122786966Y-98018399D01*
X122602259Y-97889066D01*
X122602257Y-97889064D01*
X122597830Y-97885965D01*
X122596550Y-97885368D01*
X122552114Y-97840933D01*
X122535500Y-97778932D01*
X122535500Y-95675271D01*
X122536020Y-95664218D01*
X122537672Y-95656832D01*
X122535561Y-95589644D01*
X122535500Y-95585750D01*
X122535500Y-95562045D01*
X122535500Y-95558150D01*
X122534998Y-95554181D01*
X122534080Y-95542524D01*
X122533893Y-95536580D01*
X122532709Y-95498872D01*
X122527120Y-95479639D01*
X122523174Y-95460582D01*
X122521641Y-95448446D01*
X122520664Y-95440708D01*
X122504581Y-95400087D01*
X122500799Y-95389040D01*
X122490793Y-95354601D01*
X122488617Y-95347110D01*
X122484644Y-95340392D01*
X122478422Y-95329870D01*
X122469860Y-95312392D01*
X122465360Y-95301027D01*
X122465359Y-95301026D01*
X122462486Y-95293768D01*
X122436812Y-95258431D01*
X122430409Y-95248684D01*
X122408170Y-95211079D01*
X122394006Y-95196915D01*
X122381368Y-95182118D01*
X122374184Y-95172229D01*
X122374178Y-95172223D01*
X122369594Y-95165913D01*
X122335946Y-95138077D01*
X122327305Y-95130214D01*
X121341818Y-94144727D01*
X121314938Y-94104499D01*
X121305499Y-94057046D01*
X121305499Y-93483141D01*
X121305499Y-93479992D01*
X121294999Y-93377203D01*
X121239814Y-93210666D01*
X121184269Y-93120613D01*
X121151502Y-93067488D01*
X121151500Y-93067485D01*
X121147712Y-93061344D01*
X121023656Y-92937288D01*
X121017515Y-92933500D01*
X121017511Y-92933497D01*
X120880480Y-92848977D01*
X120874334Y-92845186D01*
X120707797Y-92790001D01*
X120701064Y-92789313D01*
X120701059Y-92789312D01*
X120608140Y-92779819D01*
X120608123Y-92779818D01*
X120605009Y-92779500D01*
X120601860Y-92779500D01*
X119983141Y-92779500D01*
X119983121Y-92779500D01*
X119979992Y-92779501D01*
X119976860Y-92779820D01*
X119976858Y-92779821D01*
X119883938Y-92789312D01*
X119883928Y-92789313D01*
X119877203Y-92790001D01*
X119870781Y-92792128D01*
X119870776Y-92792130D01*
X119717521Y-92842914D01*
X119717517Y-92842915D01*
X119710666Y-92845186D01*
X119704522Y-92848975D01*
X119704519Y-92848977D01*
X119567488Y-92933497D01*
X119567480Y-92933503D01*
X119561344Y-92937288D01*
X119556242Y-92942389D01*
X119556238Y-92942393D01*
X119467681Y-93030951D01*
X119412094Y-93063045D01*
X119347906Y-93063045D01*
X119292319Y-93030951D01*
X119203761Y-92942393D01*
X119198656Y-92937288D01*
X119192515Y-92933500D01*
X119192511Y-92933497D01*
X119055480Y-92848977D01*
X119049334Y-92845186D01*
X118882797Y-92790001D01*
X118876064Y-92789313D01*
X118876059Y-92789312D01*
X118783140Y-92779819D01*
X118783123Y-92779818D01*
X118780009Y-92779500D01*
X118776860Y-92779500D01*
X118158141Y-92779500D01*
X118158121Y-92779500D01*
X118154992Y-92779501D01*
X118151860Y-92779820D01*
X118151858Y-92779821D01*
X118058938Y-92789312D01*
X118058928Y-92789313D01*
X118052203Y-92790001D01*
X118045781Y-92792128D01*
X118045776Y-92792130D01*
X117892521Y-92842914D01*
X117892517Y-92842915D01*
X117885666Y-92845186D01*
X117879522Y-92848975D01*
X117879519Y-92848977D01*
X117742488Y-92933497D01*
X117742480Y-92933503D01*
X117736344Y-92937288D01*
X117731242Y-92942389D01*
X117731238Y-92942393D01*
X117617393Y-93056238D01*
X117617389Y-93056242D01*
X117612288Y-93061344D01*
X117608503Y-93067480D01*
X117608497Y-93067488D01*
X117523977Y-93204519D01*
X117520186Y-93210666D01*
X117517916Y-93217514D01*
X117517914Y-93217520D01*
X117505398Y-93255292D01*
X117484327Y-93318883D01*
X117482137Y-93325491D01*
X117456258Y-93369816D01*
X117414647Y-93399864D01*
X117364431Y-93410487D01*
X117032980Y-93410487D01*
X116973962Y-93395542D01*
X116929171Y-93354308D01*
X116813413Y-93177126D01*
X116813407Y-93177118D01*
X116810608Y-93172834D01*
X116653413Y-93002074D01*
X116581024Y-92945732D01*
X116474301Y-92862666D01*
X116474300Y-92862665D01*
X116470255Y-92859517D01*
X116322990Y-92779821D01*
X116270636Y-92751488D01*
X116270631Y-92751486D01*
X116266132Y-92749051D01*
X116261286Y-92747387D01*
X116261283Y-92747386D01*
X116051463Y-92675355D01*
X116051462Y-92675354D01*
X116046610Y-92673689D01*
X116041560Y-92672846D01*
X116041551Y-92672844D01*
X115822740Y-92636331D01*
X115822731Y-92636330D01*
X115817678Y-92635487D01*
X115585580Y-92635487D01*
X115580527Y-92636330D01*
X115580517Y-92636331D01*
X115361706Y-92672844D01*
X115361694Y-92672846D01*
X115356648Y-92673689D01*
X115351798Y-92675353D01*
X115351794Y-92675355D01*
X115141974Y-92747386D01*
X115141966Y-92747389D01*
X115137126Y-92749051D01*
X115132630Y-92751483D01*
X115132621Y-92751488D01*
X114937511Y-92857077D01*
X114937507Y-92857079D01*
X114933003Y-92859517D01*
X114928963Y-92862661D01*
X114928956Y-92862666D01*
X114753892Y-92998923D01*
X114753884Y-92998930D01*
X114749845Y-93002074D01*
X114746375Y-93005842D01*
X114746371Y-93005847D01*
X114596120Y-93169064D01*
X114596117Y-93169067D01*
X114592650Y-93172834D01*
X114589855Y-93177111D01*
X114589848Y-93177121D01*
X114495082Y-93322173D01*
X114465705Y-93367138D01*
X114463650Y-93371822D01*
X114463645Y-93371832D01*
X114417577Y-93476858D01*
X114372472Y-93579687D01*
X114371214Y-93584652D01*
X114371213Y-93584657D01*
X114316754Y-93799707D01*
X114316752Y-93799716D01*
X114315495Y-93804682D01*
X114315071Y-93809789D01*
X114315070Y-93809800D01*
X114296829Y-94029942D01*
X114296329Y-94035987D01*
X114296753Y-94041104D01*
X114315070Y-94262173D01*
X114315071Y-94262182D01*
X114315495Y-94267292D01*
X114316752Y-94272259D01*
X114316754Y-94272266D01*
X114371213Y-94487316D01*
X114372472Y-94492287D01*
X114374532Y-94496983D01*
X114463645Y-94700141D01*
X114463648Y-94700146D01*
X114465705Y-94704836D01*
X114529177Y-94801987D01*
X114589848Y-94894852D01*
X114589851Y-94894856D01*
X114592650Y-94899140D01*
X114749845Y-95069900D01*
X114753891Y-95073049D01*
X114753892Y-95073050D01*
X114827337Y-95130214D01*
X114933003Y-95212457D01*
X115137126Y-95322923D01*
X115356648Y-95398285D01*
X115585580Y-95436487D01*
X115812545Y-95436487D01*
X115817678Y-95436487D01*
X116046610Y-95398285D01*
X116266132Y-95322923D01*
X116470255Y-95212457D01*
X116653413Y-95069900D01*
X116810608Y-94899140D01*
X116916811Y-94736584D01*
X116929171Y-94717666D01*
X116973962Y-94676432D01*
X117032980Y-94661487D01*
X117401535Y-94661487D01*
X117451747Y-94672108D01*
X117493358Y-94702153D01*
X117513463Y-94736584D01*
X117514862Y-94735933D01*
X117517914Y-94742478D01*
X117520186Y-94749334D01*
X117523977Y-94755480D01*
X117608497Y-94892511D01*
X117608500Y-94892515D01*
X117612288Y-94898656D01*
X117736344Y-95022712D01*
X117742485Y-95026500D01*
X117742488Y-95026502D01*
X117794288Y-95058452D01*
X117885666Y-95114814D01*
X118052203Y-95169999D01*
X118154991Y-95180500D01*
X118780008Y-95180499D01*
X118882797Y-95169999D01*
X119049334Y-95114814D01*
X119198656Y-95022712D01*
X119292319Y-94929048D01*
X119347906Y-94896955D01*
X119412094Y-94896955D01*
X119467681Y-94929049D01*
X119561344Y-95022712D01*
X119567485Y-95026500D01*
X119567488Y-95026502D01*
X119619288Y-95058452D01*
X119710666Y-95114814D01*
X119877203Y-95169999D01*
X119979991Y-95180500D01*
X120557047Y-95180499D01*
X120604500Y-95189938D01*
X120644728Y-95216818D01*
X121248181Y-95820272D01*
X121275061Y-95860500D01*
X121284500Y-95907953D01*
X121284500Y-97791776D01*
X121270489Y-97849033D01*
X121231623Y-97893351D01*
X121053034Y-98018399D01*
X121053029Y-98018402D01*
X121048599Y-98021505D01*
X121044775Y-98025328D01*
X121044769Y-98025334D01*
X120885334Y-98184769D01*
X120885328Y-98184775D01*
X120881505Y-98188599D01*
X120878402Y-98193029D01*
X120878399Y-98193034D01*
X120751575Y-98374159D01*
X120707257Y-98413025D01*
X120650000Y-98427036D01*
X120592743Y-98413025D01*
X120548425Y-98374159D01*
X120442602Y-98223028D01*
X120418495Y-98188599D01*
X120251401Y-98021505D01*
X120246970Y-98018402D01*
X120246966Y-98018399D01*
X120062259Y-97889066D01*
X120062257Y-97889064D01*
X120057830Y-97885965D01*
X120052933Y-97883681D01*
X120052927Y-97883678D01*
X119848572Y-97788386D01*
X119848570Y-97788385D01*
X119843663Y-97786097D01*
X119838438Y-97784697D01*
X119838430Y-97784694D01*
X119620634Y-97726337D01*
X119620630Y-97726336D01*
X119615408Y-97724937D01*
X119610020Y-97724465D01*
X119610017Y-97724465D01*
X119385395Y-97704813D01*
X119380000Y-97704341D01*
X119374605Y-97704813D01*
X119149982Y-97724465D01*
X119149977Y-97724465D01*
X119144592Y-97724937D01*
X119139371Y-97726335D01*
X119139365Y-97726337D01*
X118921569Y-97784694D01*
X118921557Y-97784698D01*
X118916337Y-97786097D01*
X118911432Y-97788383D01*
X118911427Y-97788386D01*
X118707081Y-97883675D01*
X118707077Y-97883677D01*
X118702171Y-97885965D01*
X118697738Y-97889068D01*
X118697731Y-97889073D01*
X118513034Y-98018399D01*
X118513029Y-98018402D01*
X118508599Y-98021505D01*
X118504775Y-98025328D01*
X118504769Y-98025334D01*
X118345334Y-98184769D01*
X118345328Y-98184775D01*
X118341505Y-98188599D01*
X118338402Y-98193029D01*
X118338399Y-98193034D01*
X118211575Y-98374159D01*
X118167257Y-98413025D01*
X118110000Y-98427036D01*
X118052743Y-98413025D01*
X118008425Y-98374159D01*
X117902602Y-98223028D01*
X117878495Y-98188599D01*
X117711401Y-98021505D01*
X117706970Y-98018402D01*
X117706966Y-98018399D01*
X117522259Y-97889066D01*
X117522257Y-97889064D01*
X117517830Y-97885965D01*
X117512933Y-97883681D01*
X117512927Y-97883678D01*
X117308572Y-97788386D01*
X117308570Y-97788385D01*
X117303663Y-97786097D01*
X117298438Y-97784697D01*
X117298430Y-97784694D01*
X117080634Y-97726337D01*
X117080630Y-97726336D01*
X117075408Y-97724937D01*
X117070020Y-97724465D01*
X117070017Y-97724465D01*
X116845395Y-97704813D01*
X116840000Y-97704341D01*
X116834605Y-97704813D01*
X116609982Y-97724465D01*
X116609977Y-97724465D01*
X116604592Y-97724937D01*
X116599371Y-97726335D01*
X116599365Y-97726337D01*
X116381569Y-97784694D01*
X116381557Y-97784698D01*
X116376337Y-97786097D01*
X116371432Y-97788383D01*
X116371427Y-97788386D01*
X116167081Y-97883675D01*
X116167077Y-97883677D01*
X116162171Y-97885965D01*
X116157738Y-97889068D01*
X116157731Y-97889073D01*
X115973034Y-98018399D01*
X115973029Y-98018402D01*
X115968599Y-98021505D01*
X115964775Y-98025328D01*
X115964769Y-98025334D01*
X115805334Y-98184769D01*
X115805328Y-98184775D01*
X115801505Y-98188599D01*
X115798402Y-98193029D01*
X115798399Y-98193034D01*
X115671575Y-98374159D01*
X115627257Y-98413025D01*
X115570000Y-98427036D01*
X115512743Y-98413025D01*
X115468425Y-98374159D01*
X115362602Y-98223028D01*
X115338495Y-98188599D01*
X115171401Y-98021505D01*
X115166970Y-98018402D01*
X115166966Y-98018399D01*
X114982259Y-97889066D01*
X114982257Y-97889064D01*
X114977830Y-97885965D01*
X114972933Y-97883681D01*
X114972927Y-97883678D01*
X114768572Y-97788386D01*
X114768570Y-97788385D01*
X114763663Y-97786097D01*
X114758438Y-97784697D01*
X114758430Y-97784694D01*
X114540634Y-97726337D01*
X114540630Y-97726336D01*
X114535408Y-97724937D01*
X114530020Y-97724465D01*
X114530017Y-97724465D01*
X114305395Y-97704813D01*
X114300000Y-97704341D01*
X114294605Y-97704813D01*
X114069982Y-97724465D01*
X114069977Y-97724465D01*
X114064592Y-97724937D01*
X114059371Y-97726335D01*
X114059365Y-97726337D01*
X113841569Y-97784694D01*
X113841557Y-97784698D01*
X113836337Y-97786097D01*
X113831432Y-97788383D01*
X113831427Y-97788386D01*
X113627081Y-97883675D01*
X113627077Y-97883677D01*
X113622171Y-97885965D01*
X113617738Y-97889068D01*
X113617731Y-97889073D01*
X113433034Y-98018399D01*
X113433029Y-98018402D01*
X113428599Y-98021505D01*
X113424775Y-98025328D01*
X113424769Y-98025334D01*
X113265334Y-98184769D01*
X113265328Y-98184775D01*
X113261505Y-98188599D01*
X113258402Y-98193029D01*
X113258399Y-98193034D01*
X113131575Y-98374159D01*
X113087257Y-98413025D01*
X113030000Y-98427036D01*
X112972743Y-98413025D01*
X112928425Y-98374159D01*
X112822602Y-98223028D01*
X112798495Y-98188599D01*
X112631401Y-98021505D01*
X112626970Y-98018402D01*
X112626966Y-98018399D01*
X112442259Y-97889066D01*
X112442257Y-97889064D01*
X112437830Y-97885965D01*
X112432933Y-97883681D01*
X112432927Y-97883678D01*
X112228572Y-97788386D01*
X112228570Y-97788385D01*
X112223663Y-97786097D01*
X112218438Y-97784697D01*
X112218430Y-97784694D01*
X112000634Y-97726337D01*
X112000630Y-97726336D01*
X111995408Y-97724937D01*
X111990020Y-97724465D01*
X111990017Y-97724465D01*
X111765395Y-97704813D01*
X111760000Y-97704341D01*
X111754605Y-97704813D01*
X111529982Y-97724465D01*
X111529977Y-97724465D01*
X111524592Y-97724937D01*
X111519371Y-97726335D01*
X111519365Y-97726337D01*
X111301569Y-97784694D01*
X111301557Y-97784698D01*
X111296337Y-97786097D01*
X111291432Y-97788383D01*
X111291427Y-97788386D01*
X111087081Y-97883675D01*
X111087077Y-97883677D01*
X111082171Y-97885965D01*
X111077738Y-97889068D01*
X111077731Y-97889073D01*
X110893034Y-98018399D01*
X110893029Y-98018402D01*
X110888599Y-98021505D01*
X110884775Y-98025328D01*
X110884769Y-98025334D01*
X110725334Y-98184769D01*
X110725328Y-98184775D01*
X110721505Y-98188599D01*
X110718402Y-98193029D01*
X110718399Y-98193034D01*
X110591575Y-98374159D01*
X110547257Y-98413025D01*
X110490000Y-98427036D01*
X110432743Y-98413025D01*
X110388425Y-98374159D01*
X110282602Y-98223028D01*
X110258495Y-98188599D01*
X110091401Y-98021505D01*
X110086970Y-98018402D01*
X110086966Y-98018399D01*
X109902259Y-97889066D01*
X109902257Y-97889064D01*
X109897830Y-97885965D01*
X109892933Y-97883681D01*
X109892927Y-97883678D01*
X109688572Y-97788386D01*
X109688570Y-97788385D01*
X109683663Y-97786097D01*
X109678438Y-97784697D01*
X109678430Y-97784694D01*
X109460634Y-97726337D01*
X109460630Y-97726336D01*
X109455408Y-97724937D01*
X109450020Y-97724465D01*
X109450017Y-97724465D01*
X109225395Y-97704813D01*
X109220000Y-97704341D01*
X109214605Y-97704813D01*
X108989982Y-97724465D01*
X108989977Y-97724465D01*
X108984592Y-97724937D01*
X108979371Y-97726335D01*
X108979365Y-97726337D01*
X108761569Y-97784694D01*
X108761557Y-97784698D01*
X108756337Y-97786097D01*
X108751432Y-97788383D01*
X108751427Y-97788386D01*
X108547081Y-97883675D01*
X108547077Y-97883677D01*
X108542171Y-97885965D01*
X108537738Y-97889068D01*
X108537731Y-97889073D01*
X108353034Y-98018399D01*
X108353029Y-98018402D01*
X108348599Y-98021505D01*
X108344775Y-98025328D01*
X108344769Y-98025334D01*
X108185334Y-98184769D01*
X108185328Y-98184775D01*
X108181505Y-98188599D01*
X108178402Y-98193029D01*
X108178399Y-98193034D01*
X108051575Y-98374159D01*
X108007257Y-98413025D01*
X107950000Y-98427036D01*
X107892743Y-98413025D01*
X107848425Y-98374159D01*
X107742602Y-98223028D01*
X107718495Y-98188599D01*
X107551401Y-98021505D01*
X107546970Y-98018402D01*
X107546966Y-98018399D01*
X107406256Y-97919873D01*
X107363653Y-97867716D01*
X107354595Y-97800984D01*
X107381753Y-97739358D01*
X107437118Y-97701016D01*
X107630199Y-97634732D01*
X107639544Y-97630633D01*
X107834584Y-97525082D01*
X107843136Y-97519495D01*
X107855627Y-97509773D01*
X107863731Y-97498586D01*
X107857070Y-97486478D01*
X107082281Y-96711689D01*
X107070739Y-96705025D01*
X107059196Y-96711689D01*
X106284405Y-97486479D01*
X106277745Y-97498585D01*
X106285852Y-97509775D01*
X106298341Y-97519495D01*
X106306895Y-97525084D01*
X106325597Y-97535205D01*
X106369061Y-97574448D01*
X106389669Y-97629261D01*
X106382827Y-97687419D01*
X106350059Y-97735951D01*
X106298674Y-97764035D01*
X106221567Y-97784695D01*
X106221560Y-97784697D01*
X106216337Y-97786097D01*
X106211432Y-97788383D01*
X106211427Y-97788386D01*
X106007081Y-97883675D01*
X106007077Y-97883677D01*
X106002171Y-97885965D01*
X105997738Y-97889068D01*
X105997731Y-97889073D01*
X105813034Y-98018399D01*
X105813029Y-98018402D01*
X105808599Y-98021505D01*
X105804775Y-98025328D01*
X105804769Y-98025334D01*
X105645334Y-98184769D01*
X105645328Y-98184775D01*
X105641505Y-98188599D01*
X105638402Y-98193029D01*
X105638399Y-98193034D01*
X105567597Y-98294151D01*
X105520380Y-98334478D01*
X105459532Y-98346858D01*
X105400312Y-98328186D01*
X105357569Y-98283144D01*
X105342022Y-98223028D01*
X105342022Y-96351711D01*
X105666365Y-96351711D01*
X105684676Y-96572696D01*
X105686360Y-96582790D01*
X105740798Y-96797760D01*
X105744117Y-96807427D01*
X105833195Y-97010507D01*
X105838061Y-97019497D01*
X105911984Y-97132645D01*
X105919951Y-97140370D01*
X105929331Y-97134447D01*
X106705643Y-96358136D01*
X106712307Y-96346594D01*
X107429170Y-96346594D01*
X107435834Y-96358136D01*
X108212144Y-97134446D01*
X108221525Y-97140370D01*
X108229493Y-97132645D01*
X108303414Y-97019500D01*
X108308282Y-97010505D01*
X108397360Y-96807427D01*
X108400679Y-96797760D01*
X108455117Y-96582790D01*
X108456801Y-96572696D01*
X108475113Y-96351711D01*
X108475113Y-96341477D01*
X108456801Y-96120491D01*
X108455117Y-96110397D01*
X108400679Y-95895427D01*
X108397360Y-95885760D01*
X108308282Y-95682680D01*
X108303417Y-95673690D01*
X108229492Y-95560541D01*
X108221525Y-95552816D01*
X108212144Y-95558740D01*
X107435834Y-96335051D01*
X107429170Y-96346594D01*
X106712307Y-96346594D01*
X106705643Y-96335051D01*
X105929331Y-95558739D01*
X105919951Y-95552816D01*
X105911984Y-95560540D01*
X105838061Y-95673690D01*
X105833195Y-95682680D01*
X105744117Y-95885760D01*
X105740798Y-95895427D01*
X105686360Y-96110397D01*
X105684676Y-96120491D01*
X105666365Y-96341477D01*
X105666365Y-96351711D01*
X105342022Y-96351711D01*
X105342022Y-95194600D01*
X106277746Y-95194600D01*
X106284406Y-95206708D01*
X107059196Y-95981498D01*
X107070738Y-95988162D01*
X107082281Y-95981498D01*
X107857071Y-95206707D01*
X107863731Y-95194601D01*
X107855625Y-95183412D01*
X107843133Y-95173690D01*
X107834586Y-95168106D01*
X107639544Y-95062554D01*
X107630191Y-95058452D01*
X107420448Y-94986447D01*
X107410539Y-94983938D01*
X107191809Y-94947438D01*
X107181612Y-94946594D01*
X106959866Y-94946594D01*
X106949668Y-94947438D01*
X106730938Y-94983938D01*
X106721029Y-94986447D01*
X106511286Y-95058452D01*
X106501933Y-95062554D01*
X106306895Y-95168104D01*
X106298339Y-95173694D01*
X106285851Y-95183412D01*
X106277746Y-95194600D01*
X105342022Y-95194600D01*
X105342022Y-90975634D01*
X106232861Y-90975634D01*
X106240968Y-90986824D01*
X106253457Y-90996544D01*
X106262006Y-91002130D01*
X106457049Y-91107682D01*
X106466402Y-91111784D01*
X106676145Y-91183789D01*
X106686054Y-91186298D01*
X106904784Y-91222798D01*
X106914982Y-91223643D01*
X107136728Y-91223643D01*
X107146925Y-91222798D01*
X107365655Y-91186298D01*
X107375564Y-91183789D01*
X107585307Y-91111784D01*
X107594664Y-91107680D01*
X107632523Y-91087192D01*
X107691541Y-91072246D01*
X107750558Y-91087191D01*
X107795350Y-91128423D01*
X107815118Y-91186005D01*
X107805098Y-91246055D01*
X107789780Y-91280975D01*
X107789774Y-91280990D01*
X107787719Y-91285677D01*
X107786461Y-91290642D01*
X107786460Y-91290647D01*
X107732001Y-91505697D01*
X107731999Y-91505706D01*
X107730742Y-91510672D01*
X107730318Y-91515779D01*
X107730317Y-91515790D01*
X107712076Y-91735932D01*
X107711576Y-91741977D01*
X107712000Y-91747094D01*
X107730317Y-91968163D01*
X107730318Y-91968172D01*
X107730742Y-91973282D01*
X107731999Y-91978249D01*
X107732001Y-91978256D01*
X107777510Y-92157962D01*
X107787719Y-92198277D01*
X107789779Y-92202973D01*
X107878892Y-92406131D01*
X107878895Y-92406136D01*
X107880952Y-92410826D01*
X107914418Y-92462049D01*
X108005095Y-92600842D01*
X108005098Y-92600846D01*
X108007897Y-92605130D01*
X108165092Y-92775890D01*
X108169138Y-92779039D01*
X108169139Y-92779040D01*
X108251205Y-92842914D01*
X108348250Y-92918447D01*
X108552373Y-93028913D01*
X108771895Y-93104275D01*
X109000827Y-93142477D01*
X109227792Y-93142477D01*
X109232925Y-93142477D01*
X109461857Y-93104275D01*
X109681379Y-93028913D01*
X109885502Y-92918447D01*
X110068660Y-92775890D01*
X110225855Y-92605130D01*
X110352800Y-92410826D01*
X110446033Y-92198277D01*
X110503010Y-91973282D01*
X110522176Y-91741977D01*
X110503010Y-91510672D01*
X110446033Y-91285677D01*
X110352800Y-91073128D01*
X110235720Y-90893923D01*
X110228656Y-90883111D01*
X110228654Y-90883109D01*
X110225855Y-90878824D01*
X110068660Y-90708064D01*
X110061439Y-90702444D01*
X109889548Y-90568656D01*
X109889547Y-90568655D01*
X109885502Y-90565507D01*
X109807396Y-90523238D01*
X109685883Y-90457478D01*
X109685878Y-90457476D01*
X109681379Y-90455041D01*
X109676533Y-90453377D01*
X109676530Y-90453376D01*
X109466710Y-90381345D01*
X109466709Y-90381344D01*
X109461857Y-90379679D01*
X109456807Y-90378836D01*
X109456798Y-90378834D01*
X109237987Y-90342321D01*
X109237978Y-90342320D01*
X109232925Y-90341477D01*
X109000827Y-90341477D01*
X108995774Y-90342320D01*
X108995764Y-90342321D01*
X108776953Y-90378834D01*
X108776941Y-90378836D01*
X108771895Y-90379679D01*
X108767045Y-90381343D01*
X108767041Y-90381345D01*
X108557221Y-90453376D01*
X108557213Y-90453379D01*
X108552373Y-90455041D01*
X108547869Y-90457478D01*
X108547863Y-90457481D01*
X108509816Y-90478071D01*
X108450799Y-90493016D01*
X108391781Y-90478071D01*
X108346990Y-90436837D01*
X108327222Y-90379255D01*
X108337243Y-90319205D01*
X108352478Y-90284471D01*
X108355795Y-90274809D01*
X108410233Y-90059839D01*
X108411917Y-90049745D01*
X108430229Y-89828760D01*
X108430229Y-89818526D01*
X108411917Y-89597540D01*
X108410233Y-89587446D01*
X108355795Y-89372476D01*
X108352476Y-89362809D01*
X108263398Y-89159729D01*
X108258533Y-89150739D01*
X108184608Y-89037590D01*
X108176641Y-89029865D01*
X108167260Y-89035789D01*
X107025855Y-90177196D01*
X106239521Y-90963528D01*
X106232861Y-90975634D01*
X105342022Y-90975634D01*
X105342022Y-89828760D01*
X105621481Y-89828760D01*
X105639792Y-90049745D01*
X105641476Y-90059839D01*
X105695914Y-90274809D01*
X105699233Y-90284476D01*
X105788311Y-90487556D01*
X105793177Y-90496546D01*
X105867100Y-90609694D01*
X105875067Y-90617419D01*
X105884447Y-90611496D01*
X106660759Y-89835185D01*
X106667423Y-89823642D01*
X106660759Y-89812100D01*
X105884447Y-89035788D01*
X105875067Y-89029865D01*
X105867100Y-89037589D01*
X105793177Y-89150739D01*
X105788311Y-89159729D01*
X105699233Y-89362809D01*
X105695914Y-89372476D01*
X105641476Y-89587446D01*
X105639792Y-89597540D01*
X105621481Y-89818526D01*
X105621481Y-89828760D01*
X105342022Y-89828760D01*
X105342022Y-88671649D01*
X106232862Y-88671649D01*
X106239522Y-88683757D01*
X107014312Y-89458547D01*
X107025855Y-89465211D01*
X107037397Y-89458547D01*
X107812187Y-88683756D01*
X107818847Y-88671650D01*
X107810741Y-88660461D01*
X107798249Y-88650739D01*
X107789702Y-88645155D01*
X107594660Y-88539603D01*
X107585307Y-88535501D01*
X107375564Y-88463496D01*
X107365655Y-88460987D01*
X107146925Y-88424487D01*
X107136728Y-88423643D01*
X106914982Y-88423643D01*
X106904784Y-88424487D01*
X106686054Y-88460987D01*
X106676145Y-88463496D01*
X106466402Y-88535501D01*
X106457049Y-88539603D01*
X106262011Y-88645153D01*
X106253455Y-88650743D01*
X106240967Y-88660461D01*
X106232862Y-88671649D01*
X105342022Y-88671649D01*
X105342022Y-83359008D01*
X105621481Y-83359008D01*
X105639792Y-83579993D01*
X105641476Y-83590087D01*
X105695914Y-83805057D01*
X105699233Y-83814724D01*
X105788311Y-84017804D01*
X105793177Y-84026794D01*
X105867100Y-84139942D01*
X105875067Y-84147667D01*
X105884447Y-84141744D01*
X106660759Y-83365433D01*
X106667423Y-83353891D01*
X106660759Y-83342348D01*
X105884447Y-82566036D01*
X105875067Y-82560113D01*
X105867100Y-82567837D01*
X105793177Y-82680987D01*
X105788311Y-82689977D01*
X105699233Y-82893057D01*
X105695914Y-82902724D01*
X105641476Y-83117694D01*
X105639792Y-83127788D01*
X105621481Y-83348774D01*
X105621481Y-83359008D01*
X105342022Y-83359008D01*
X105342022Y-77036974D01*
X105357569Y-76976858D01*
X105400312Y-76931816D01*
X105459532Y-76913144D01*
X105520380Y-76925523D01*
X105567597Y-76965850D01*
X105638403Y-77066971D01*
X105641505Y-77071401D01*
X105641756Y-77071652D01*
X105662022Y-77106752D01*
X105669500Y-77149163D01*
X105669500Y-81255722D01*
X105669460Y-81258863D01*
X105668266Y-81306000D01*
X105667243Y-81346363D01*
X105668351Y-81352548D01*
X105668352Y-81352554D01*
X105677648Y-81404420D01*
X105678957Y-81413748D01*
X105684289Y-81466180D01*
X105684290Y-81466185D01*
X105684926Y-81472438D01*
X105686807Y-81478435D01*
X105686810Y-81478447D01*
X105694032Y-81501466D01*
X105697772Y-81516702D01*
X105702031Y-81540464D01*
X105702035Y-81540478D01*
X105703142Y-81546653D01*
X105705471Y-81552483D01*
X105725020Y-81601425D01*
X105728179Y-81610298D01*
X105729897Y-81615772D01*
X105745841Y-81666588D01*
X105756101Y-81685074D01*
X105760603Y-81693184D01*
X105767337Y-81707363D01*
X105776290Y-81729778D01*
X105776292Y-81729783D01*
X105778623Y-81735617D01*
X105782082Y-81740866D01*
X105782085Y-81740871D01*
X105811080Y-81784867D01*
X105815961Y-81792923D01*
X105841536Y-81838999D01*
X105841538Y-81839002D01*
X105844591Y-81844502D01*
X105856044Y-81857843D01*
X105864404Y-81867581D01*
X105873855Y-81880116D01*
X105887133Y-81900263D01*
X105887138Y-81900269D01*
X105890598Y-81905519D01*
X105895045Y-81909966D01*
X105932304Y-81947225D01*
X105938708Y-81954135D01*
X105977134Y-81998895D01*
X105991741Y-82010201D01*
X106005709Y-82022821D01*
X106024941Y-82043053D01*
X106030100Y-82046644D01*
X106030104Y-82046647D01*
X106073362Y-82076755D01*
X106080871Y-82082416D01*
X106126593Y-82119698D01*
X106132171Y-82122611D01*
X106132170Y-82122611D01*
X106153556Y-82133782D01*
X106166982Y-82141916D01*
X106191951Y-82159295D01*
X106191024Y-82160626D01*
X106233753Y-82203518D01*
X106239522Y-82214005D01*
X107291726Y-83266209D01*
X107323820Y-83321796D01*
X107323820Y-83385984D01*
X107291726Y-83441571D01*
X106239521Y-84493776D01*
X106232861Y-84505882D01*
X106240968Y-84517072D01*
X106253457Y-84526792D01*
X106262006Y-84532378D01*
X106457049Y-84637930D01*
X106466402Y-84642032D01*
X106676145Y-84714037D01*
X106686054Y-84716546D01*
X106904784Y-84753046D01*
X106914982Y-84753891D01*
X107136728Y-84753891D01*
X107146925Y-84753046D01*
X107365655Y-84716546D01*
X107375563Y-84714037D01*
X107574589Y-84645711D01*
X107640298Y-84641631D01*
X107698835Y-84671762D01*
X107733697Y-84727610D01*
X107735058Y-84793432D01*
X107687117Y-84982745D01*
X107687114Y-84982757D01*
X107685858Y-84987721D01*
X107685434Y-84992828D01*
X107685433Y-84992839D01*
X107668942Y-85191871D01*
X107666692Y-85219026D01*
X107667116Y-85224143D01*
X107685433Y-85445212D01*
X107685434Y-85445221D01*
X107685858Y-85450331D01*
X107687115Y-85455298D01*
X107687117Y-85455305D01*
X107740402Y-85665719D01*
X107742835Y-85675326D01*
X107749580Y-85690702D01*
X107834008Y-85883180D01*
X107834011Y-85883185D01*
X107836068Y-85887875D01*
X107866630Y-85934654D01*
X107960211Y-86077891D01*
X107960214Y-86077895D01*
X107963013Y-86082179D01*
X108120208Y-86252939D01*
X108303366Y-86395496D01*
X108507489Y-86505962D01*
X108727011Y-86581324D01*
X108955943Y-86619526D01*
X109182908Y-86619526D01*
X109188041Y-86619526D01*
X109416973Y-86581324D01*
X109636495Y-86505962D01*
X109840618Y-86395496D01*
X110023776Y-86252939D01*
X110180971Y-86082179D01*
X110307916Y-85887875D01*
X110401149Y-85675326D01*
X110458126Y-85450331D01*
X110477292Y-85219026D01*
X110458126Y-84987721D01*
X110401149Y-84762726D01*
X110307916Y-84550177D01*
X110180971Y-84355873D01*
X110023776Y-84185113D01*
X110012152Y-84176066D01*
X109844664Y-84045705D01*
X109844663Y-84045704D01*
X109840618Y-84042556D01*
X109738880Y-83987498D01*
X109640999Y-83934527D01*
X109640994Y-83934525D01*
X109636495Y-83932090D01*
X109631649Y-83930426D01*
X109631646Y-83930425D01*
X109421826Y-83858394D01*
X109421825Y-83858393D01*
X109416973Y-83856728D01*
X109411923Y-83855885D01*
X109411914Y-83855883D01*
X109193103Y-83819370D01*
X109193094Y-83819369D01*
X109188041Y-83818526D01*
X108955943Y-83818526D01*
X108950890Y-83819369D01*
X108950880Y-83819370D01*
X108732069Y-83855883D01*
X108732057Y-83855885D01*
X108727011Y-83856728D01*
X108722161Y-83858392D01*
X108722153Y-83858395D01*
X108522837Y-83926820D01*
X108457128Y-83930900D01*
X108398592Y-83900769D01*
X108363730Y-83844921D01*
X108362369Y-83779099D01*
X108410233Y-83590087D01*
X108411917Y-83579993D01*
X108430229Y-83359008D01*
X108430229Y-83348774D01*
X108411917Y-83127788D01*
X108410233Y-83117694D01*
X108355795Y-82902724D01*
X108352476Y-82893057D01*
X108263397Y-82689975D01*
X108258535Y-82680992D01*
X108137239Y-82495333D01*
X108127816Y-82483227D01*
X108128722Y-82482521D01*
X108104173Y-82438890D01*
X108101356Y-82382065D01*
X108124212Y-82329963D01*
X108167931Y-82293553D01*
X108223309Y-82280500D01*
X110635500Y-82280500D01*
X110697500Y-82297113D01*
X110742887Y-82342500D01*
X110759500Y-82404500D01*
X110759500Y-90192093D01*
X110759341Y-90198373D01*
X110755949Y-90265248D01*
X110755949Y-90265253D01*
X110755631Y-90271530D01*
X110756582Y-90277742D01*
X110756583Y-90277748D01*
X110766720Y-90343917D01*
X110767514Y-90350148D01*
X110774289Y-90416777D01*
X110774290Y-90416785D01*
X110774926Y-90423032D01*
X110776807Y-90429029D01*
X110776810Y-90429041D01*
X110779749Y-90438410D01*
X110784003Y-90456738D01*
X110785490Y-90466445D01*
X110785492Y-90466454D01*
X110786444Y-90472665D01*
X110788628Y-90478562D01*
X110811882Y-90541352D01*
X110813913Y-90547295D01*
X110833491Y-90609694D01*
X110835841Y-90617182D01*
X110838889Y-90622674D01*
X110838891Y-90622678D01*
X110843656Y-90631262D01*
X110851518Y-90648372D01*
X110854929Y-90657583D01*
X110854931Y-90657587D01*
X110857114Y-90663481D01*
X110860440Y-90668817D01*
X110895864Y-90725649D01*
X110899045Y-90731054D01*
X110934591Y-90795096D01*
X110945083Y-90807317D01*
X110956224Y-90822490D01*
X110964748Y-90836165D01*
X111005298Y-90878824D01*
X111015220Y-90889261D01*
X111019421Y-90893911D01*
X111067134Y-90949489D01*
X111072104Y-90953336D01*
X111072105Y-90953337D01*
X111079869Y-90959347D01*
X111093841Y-90971970D01*
X111104941Y-90983647D01*
X111110108Y-90987243D01*
X111110110Y-90987245D01*
X111165050Y-91025484D01*
X111170116Y-91029204D01*
X111223067Y-91070192D01*
X111223073Y-91070196D01*
X111228042Y-91074042D01*
X111242507Y-91081137D01*
X111258729Y-91090687D01*
X111266788Y-91096296D01*
X111266791Y-91096298D01*
X111271951Y-91099889D01*
X111277725Y-91102367D01*
X111277729Y-91102369D01*
X111292042Y-91108511D01*
X111339264Y-91128775D01*
X111344954Y-91131389D01*
X111352108Y-91134899D01*
X111405077Y-91160882D01*
X111405080Y-91160883D01*
X111410729Y-91163654D01*
X111426316Y-91167689D01*
X111444137Y-91173781D01*
X111452530Y-91177382D01*
X111458942Y-91180134D01*
X111530708Y-91194881D01*
X111536779Y-91196289D01*
X111607715Y-91214657D01*
X111623800Y-91215472D01*
X111642477Y-91217850D01*
X111658259Y-91221094D01*
X111731499Y-91221094D01*
X111737779Y-91221253D01*
X111810936Y-91224963D01*
X111826856Y-91222524D01*
X111845634Y-91221094D01*
X124874419Y-91221094D01*
X124877559Y-91221133D01*
X124965060Y-91223351D01*
X125023155Y-91212938D01*
X125032436Y-91211636D01*
X125091135Y-91205668D01*
X125120161Y-91196560D01*
X125135410Y-91192818D01*
X125165350Y-91187452D01*
X125220120Y-91165574D01*
X125229000Y-91162412D01*
X125285285Y-91144753D01*
X125311891Y-91129984D01*
X125326059Y-91123256D01*
X125354314Y-91111971D01*
X125403588Y-91079496D01*
X125411607Y-91074637D01*
X125463199Y-91046003D01*
X125474658Y-91036164D01*
X125486280Y-91026188D01*
X125498822Y-91016731D01*
X125524216Y-90999996D01*
X125565935Y-90958275D01*
X125572819Y-90951895D01*
X125617592Y-90913460D01*
X125636217Y-90889396D01*
X125646576Y-90877634D01*
X130531924Y-85992287D01*
X130572153Y-85965407D01*
X130619606Y-85955968D01*
X131422033Y-85955968D01*
X131469486Y-85965407D01*
X131502652Y-85987568D01*
X131503418Y-85986657D01*
X131507558Y-85990131D01*
X131511390Y-85993963D01*
X131515822Y-85997066D01*
X131515824Y-85997068D01*
X131697386Y-86124199D01*
X131736251Y-86168517D01*
X131750262Y-86225774D01*
X131736251Y-86283031D01*
X131697386Y-86327349D01*
X131516143Y-86454256D01*
X131507883Y-86461187D01*
X131348510Y-86620560D01*
X131341575Y-86628825D01*
X131212299Y-86813450D01*
X131206901Y-86822800D01*
X131111647Y-87027070D01*
X131107959Y-87037204D01*
X131055847Y-87231687D01*
X131055479Y-87242916D01*
X131066422Y-87245468D01*
X133699160Y-87245468D01*
X133710102Y-87242916D01*
X133709734Y-87231687D01*
X133657622Y-87037204D01*
X133653934Y-87027070D01*
X133558680Y-86822800D01*
X133553282Y-86813450D01*
X133424006Y-86628825D01*
X133417071Y-86620560D01*
X133257700Y-86461189D01*
X133249434Y-86454252D01*
X133068196Y-86327348D01*
X133029331Y-86283030D01*
X133015320Y-86225773D01*
X133029331Y-86168516D01*
X133068197Y-86124198D01*
X133128207Y-86082179D01*
X133254192Y-85993963D01*
X133421286Y-85826869D01*
X133556826Y-85633298D01*
X133656694Y-85419131D01*
X133717854Y-85190876D01*
X133724525Y-85114623D01*
X136467359Y-85114623D01*
X136467360Y-85117917D01*
X136467712Y-85121195D01*
X136467713Y-85121206D01*
X136472938Y-85169813D01*
X136472939Y-85169818D01*
X136473768Y-85177528D01*
X136476478Y-85184794D01*
X136476479Y-85184798D01*
X136510076Y-85274876D01*
X136524063Y-85312376D01*
X136610313Y-85427591D01*
X136725528Y-85513841D01*
X136860376Y-85564136D01*
X136919986Y-85570545D01*
X139815731Y-85570544D01*
X139875342Y-85564136D01*
X140010190Y-85513841D01*
X140125405Y-85427591D01*
X140211655Y-85312376D01*
X140261950Y-85177528D01*
X140268359Y-85117918D01*
X140268359Y-84794545D01*
X140284972Y-84732545D01*
X140330359Y-84687158D01*
X140392359Y-84670545D01*
X146687588Y-84670545D01*
X146690728Y-84670584D01*
X146778229Y-84672802D01*
X146836324Y-84662389D01*
X146845605Y-84661087D01*
X146904304Y-84655119D01*
X146933330Y-84646011D01*
X146948579Y-84642269D01*
X146978519Y-84636903D01*
X147033289Y-84615025D01*
X147042169Y-84611863D01*
X147049092Y-84609691D01*
X147098454Y-84594204D01*
X147125060Y-84579435D01*
X147139228Y-84572707D01*
X147167483Y-84561422D01*
X147216757Y-84528947D01*
X147224776Y-84524088D01*
X147276368Y-84495454D01*
X147287827Y-84485615D01*
X147299449Y-84475639D01*
X147311991Y-84466182D01*
X147337385Y-84449447D01*
X147379104Y-84407726D01*
X147385988Y-84401346D01*
X147430761Y-84362911D01*
X147449390Y-84338843D01*
X147459750Y-84327080D01*
X148953971Y-82832858D01*
X149002891Y-82802754D01*
X149060132Y-82797926D01*
X149092163Y-82802754D01*
X149135665Y-82809311D01*
X149385900Y-82809311D01*
X149390535Y-82809311D01*
X149642558Y-82771324D01*
X149886104Y-82696200D01*
X150115734Y-82585616D01*
X150326317Y-82442043D01*
X150513150Y-82268688D01*
X150672059Y-82069423D01*
X150799493Y-81848699D01*
X150892608Y-81611448D01*
X150949322Y-81362968D01*
X150962889Y-81181920D01*
X154948133Y-81181920D01*
X154966313Y-81389721D01*
X154968185Y-81400336D01*
X155022172Y-81601824D01*
X155025864Y-81611966D01*
X155114017Y-81801009D01*
X155119415Y-81810359D01*
X155152663Y-81857843D01*
X155160776Y-81865277D01*
X155170054Y-81859366D01*
X155841354Y-81188066D01*
X155848018Y-81176524D01*
X155841354Y-81164981D01*
X155170054Y-80493682D01*
X155160775Y-80487771D01*
X155152664Y-80495204D01*
X155119413Y-80542693D01*
X155114018Y-80552038D01*
X155025864Y-80741083D01*
X155022172Y-80751225D01*
X154968186Y-80952709D01*
X154966313Y-80963328D01*
X154948133Y-81171130D01*
X154948133Y-81181920D01*
X150962889Y-81181920D01*
X150968368Y-81108811D01*
X150949322Y-80854654D01*
X150892608Y-80606174D01*
X150799493Y-80368923D01*
X150672059Y-80148199D01*
X150513150Y-79948934D01*
X150326317Y-79775579D01*
X150115734Y-79632006D01*
X150111548Y-79629990D01*
X149890283Y-79523434D01*
X149890277Y-79523431D01*
X149886104Y-79521422D01*
X149881682Y-79520058D01*
X149881672Y-79520054D01*
X149646991Y-79447665D01*
X149646986Y-79447663D01*
X149642558Y-79446298D01*
X149637978Y-79445607D01*
X149637971Y-79445606D01*
X149395118Y-79409001D01*
X149395107Y-79409000D01*
X149390535Y-79408311D01*
X149135665Y-79408311D01*
X149131093Y-79409000D01*
X149131081Y-79409001D01*
X148888228Y-79445606D01*
X148888218Y-79445608D01*
X148883642Y-79446298D01*
X148879216Y-79447662D01*
X148879208Y-79447665D01*
X148644527Y-79520054D01*
X148644512Y-79520059D01*
X148640096Y-79521422D01*
X148635927Y-79523429D01*
X148635916Y-79523434D01*
X148414651Y-79629990D01*
X148414644Y-79629993D01*
X148410466Y-79632006D01*
X148406633Y-79634619D01*
X148406630Y-79634621D01*
X148224515Y-79758785D01*
X148199883Y-79775579D01*
X148196491Y-79778725D01*
X148196485Y-79778731D01*
X148025802Y-79937102D01*
X148013050Y-79948934D01*
X148010160Y-79952556D01*
X148010157Y-79952561D01*
X147860577Y-80140128D01*
X147854141Y-80148199D01*
X147851822Y-80152214D01*
X147851821Y-80152217D01*
X147729028Y-80364902D01*
X147729025Y-80364907D01*
X147726707Y-80368923D01*
X147725013Y-80373237D01*
X147725011Y-80373243D01*
X147639173Y-80591954D01*
X147633592Y-80606174D01*
X147632559Y-80610695D01*
X147632558Y-80610702D01*
X147577909Y-80850134D01*
X147577907Y-80850142D01*
X147576878Y-80854654D01*
X147576531Y-80859273D01*
X147576531Y-80859279D01*
X147566881Y-80988056D01*
X147557832Y-81108811D01*
X147558179Y-81113441D01*
X147558179Y-81113442D01*
X147573822Y-81322192D01*
X147566424Y-81374594D01*
X147537850Y-81419139D01*
X146323765Y-82633226D01*
X146283537Y-82660106D01*
X146236084Y-82669545D01*
X140392358Y-82669545D01*
X140330358Y-82652932D01*
X140284971Y-82607545D01*
X140268358Y-82545545D01*
X140268358Y-82225484D01*
X140268358Y-82222173D01*
X140261950Y-82162562D01*
X140211655Y-82027714D01*
X140210015Y-82025524D01*
X140195721Y-81969517D01*
X140210891Y-81910088D01*
X140214310Y-81903825D01*
X140258747Y-81784686D01*
X140262285Y-81769712D01*
X140267505Y-81721159D01*
X140267859Y-81714563D01*
X140267859Y-80536371D01*
X140264408Y-80523495D01*
X140251533Y-80520045D01*
X136484185Y-80520045D01*
X136471309Y-80523495D01*
X136467859Y-80536371D01*
X136467859Y-81714563D01*
X136468212Y-81721159D01*
X136473432Y-81769712D01*
X136476970Y-81784686D01*
X136521406Y-81903824D01*
X136524830Y-81910094D01*
X136539996Y-81969517D01*
X136525702Y-82025523D01*
X136524063Y-82027714D01*
X136520965Y-82036020D01*
X136520964Y-82036022D01*
X136476479Y-82155292D01*
X136476478Y-82155295D01*
X136473768Y-82162562D01*
X136472938Y-82170272D01*
X136472938Y-82170277D01*
X136467714Y-82218864D01*
X136467713Y-82218876D01*
X136467359Y-82222172D01*
X136467359Y-82225493D01*
X136467359Y-82225494D01*
X136467359Y-85114605D01*
X136467359Y-85114623D01*
X133724525Y-85114623D01*
X133738450Y-84955468D01*
X133717854Y-84720060D01*
X133656694Y-84491805D01*
X133556826Y-84277639D01*
X133421286Y-84084067D01*
X133254192Y-83916973D01*
X133249761Y-83913870D01*
X133249757Y-83913867D01*
X133065050Y-83784534D01*
X133065048Y-83784532D01*
X133060621Y-83781433D01*
X133055724Y-83779149D01*
X133055718Y-83779146D01*
X132851363Y-83683854D01*
X132851361Y-83683853D01*
X132846454Y-83681565D01*
X132841229Y-83680165D01*
X132841221Y-83680162D01*
X132623425Y-83621805D01*
X132623421Y-83621804D01*
X132618199Y-83620405D01*
X132612811Y-83619933D01*
X132612808Y-83619933D01*
X132388186Y-83600281D01*
X132382791Y-83599809D01*
X132377396Y-83600281D01*
X132152773Y-83619933D01*
X132152768Y-83619933D01*
X132147383Y-83620405D01*
X132142162Y-83621803D01*
X132142156Y-83621805D01*
X131924360Y-83680162D01*
X131924348Y-83680166D01*
X131919128Y-83681565D01*
X131914223Y-83683851D01*
X131914218Y-83683854D01*
X131709872Y-83779143D01*
X131709868Y-83779145D01*
X131704962Y-83781433D01*
X131700529Y-83784536D01*
X131700522Y-83784541D01*
X131515825Y-83913867D01*
X131515820Y-83913870D01*
X131511390Y-83916973D01*
X131507562Y-83920800D01*
X131503415Y-83924281D01*
X131502649Y-83923369D01*
X131469486Y-83945529D01*
X131422033Y-83954968D01*
X130168101Y-83954968D01*
X130164960Y-83954928D01*
X130083747Y-83952870D01*
X130083744Y-83952870D01*
X130077460Y-83952711D01*
X130071276Y-83953819D01*
X130071266Y-83953820D01*
X130019401Y-83963116D01*
X130010074Y-83964425D01*
X129957639Y-83969757D01*
X129957629Y-83969758D01*
X129951385Y-83970394D01*
X129945389Y-83972275D01*
X129945385Y-83972276D01*
X129922349Y-83979503D01*
X129907113Y-83983242D01*
X129883367Y-83987498D01*
X129883353Y-83987501D01*
X129877171Y-83988610D01*
X129871336Y-83990940D01*
X129871324Y-83990944D01*
X129822395Y-84010488D01*
X129813524Y-84013647D01*
X129763236Y-84029425D01*
X129763226Y-84029428D01*
X129757235Y-84031309D01*
X129751739Y-84034358D01*
X129751735Y-84034361D01*
X129730643Y-84046068D01*
X129716469Y-84052799D01*
X129694048Y-84061755D01*
X129694036Y-84061760D01*
X129688206Y-84064090D01*
X129682959Y-84067547D01*
X129682959Y-84067548D01*
X129638945Y-84096555D01*
X129630888Y-84101435D01*
X129579321Y-84130059D01*
X129574557Y-84134148D01*
X129574542Y-84134159D01*
X129556228Y-84149881D01*
X129543706Y-84159323D01*
X129523555Y-84172604D01*
X129523544Y-84172612D01*
X129518305Y-84176066D01*
X129513861Y-84180509D01*
X129513857Y-84180513D01*
X129476604Y-84217765D01*
X129469698Y-84224166D01*
X129429698Y-84258506D01*
X129429692Y-84258511D01*
X129424928Y-84262602D01*
X129409488Y-84282549D01*
X129406303Y-84286663D01*
X129395931Y-84298438D01*
X124510596Y-89183775D01*
X124470368Y-89210655D01*
X124422915Y-89220094D01*
X112884500Y-89220094D01*
X112822500Y-89203481D01*
X112777113Y-89158094D01*
X112760500Y-89096094D01*
X112760500Y-82490776D01*
X119085307Y-82490776D01*
X119126541Y-82632705D01*
X119132689Y-82646912D01*
X119208344Y-82774838D01*
X119217835Y-82787074D01*
X119322925Y-82892164D01*
X119335161Y-82901655D01*
X119463087Y-82977310D01*
X119477294Y-82983458D01*
X119621420Y-83025331D01*
X119633826Y-83027597D01*
X119661923Y-83029808D01*
X119666803Y-83030000D01*
X120051174Y-83030000D01*
X120064049Y-83026549D01*
X120067500Y-83013674D01*
X120567500Y-83013674D01*
X120570950Y-83026549D01*
X120583826Y-83030000D01*
X120968197Y-83030000D01*
X120973076Y-83029808D01*
X121001173Y-83027597D01*
X121013579Y-83025331D01*
X121157705Y-82983458D01*
X121171912Y-82977310D01*
X121299838Y-82901655D01*
X121312074Y-82892164D01*
X121417164Y-82787074D01*
X121426655Y-82774838D01*
X121502310Y-82646912D01*
X121508458Y-82632705D01*
X121549692Y-82490776D01*
X121548286Y-82483706D01*
X121535144Y-82480000D01*
X120583826Y-82480000D01*
X120570950Y-82483450D01*
X120567500Y-82496326D01*
X120567500Y-83013674D01*
X120067500Y-83013674D01*
X120067500Y-82496326D01*
X120064049Y-82483450D01*
X120051174Y-82480000D01*
X119099856Y-82480000D01*
X119086713Y-82483706D01*
X119085307Y-82490776D01*
X112760500Y-82490776D01*
X112760500Y-81308501D01*
X112760659Y-81302221D01*
X112764050Y-81235345D01*
X112764369Y-81229064D01*
X112753278Y-81156669D01*
X112752484Y-81150435D01*
X112752146Y-81147113D01*
X112745074Y-81077562D01*
X112743190Y-81071557D01*
X112740251Y-81062189D01*
X112735994Y-81043849D01*
X112733556Y-81027929D01*
X112708105Y-80959209D01*
X112706102Y-80953350D01*
X112684159Y-80883412D01*
X112676339Y-80869323D01*
X112668480Y-80852219D01*
X112662886Y-80837113D01*
X112624136Y-80774946D01*
X112620959Y-80769549D01*
X112585409Y-80705498D01*
X112574920Y-80693280D01*
X112563773Y-80678100D01*
X112558580Y-80669769D01*
X112555252Y-80664429D01*
X112504789Y-80611342D01*
X112500577Y-80606681D01*
X112456958Y-80555871D01*
X112456955Y-80555868D01*
X112452866Y-80551105D01*
X112447896Y-80547257D01*
X112447892Y-80547254D01*
X112440128Y-80541244D01*
X112426156Y-80528621D01*
X112419395Y-80521508D01*
X112419393Y-80521506D01*
X112415059Y-80516947D01*
X112409895Y-80513352D01*
X112409893Y-80513351D01*
X112354937Y-80475101D01*
X112349896Y-80471399D01*
X112291958Y-80426552D01*
X112278035Y-80419722D01*
X112277493Y-80419456D01*
X112261270Y-80409906D01*
X112253214Y-80404299D01*
X112253208Y-80404295D01*
X112248049Y-80400705D01*
X112180738Y-80371818D01*
X112175039Y-80369200D01*
X112114916Y-80339709D01*
X112109271Y-80336940D01*
X112093677Y-80332902D01*
X112075865Y-80326814D01*
X112066839Y-80322940D01*
X112066832Y-80322937D01*
X112061058Y-80320460D01*
X112054896Y-80319193D01*
X112054894Y-80319193D01*
X111989316Y-80305717D01*
X111983195Y-80304297D01*
X111918369Y-80287512D01*
X111918366Y-80287511D01*
X111912285Y-80285937D01*
X111906010Y-80285618D01*
X111906007Y-80285618D01*
X111896190Y-80285120D01*
X111877522Y-80282742D01*
X111867898Y-80280764D01*
X111867887Y-80280762D01*
X111861741Y-80279500D01*
X111855456Y-80279500D01*
X111788501Y-80279500D01*
X111782221Y-80279341D01*
X111715345Y-80275949D01*
X111715339Y-80275949D01*
X111709064Y-80275631D01*
X111702852Y-80276582D01*
X111702845Y-80276583D01*
X111693143Y-80278070D01*
X111674366Y-80279500D01*
X109670906Y-80279500D01*
X109604810Y-80260416D01*
X109559059Y-80209038D01*
X109547736Y-80141180D01*
X109574325Y-80077730D01*
X109627244Y-80040603D01*
X109626951Y-80039934D01*
X109630279Y-80038474D01*
X109630643Y-80038219D01*
X109630651Y-80038216D01*
X109636495Y-80036210D01*
X109840618Y-79925744D01*
X110023776Y-79783187D01*
X110180971Y-79612427D01*
X110307916Y-79418123D01*
X110401149Y-79205574D01*
X110458126Y-78980579D01*
X110477292Y-78749274D01*
X110458126Y-78517969D01*
X110401149Y-78292974D01*
X110307916Y-78080425D01*
X110180971Y-77886121D01*
X110023776Y-77715361D01*
X110019727Y-77712209D01*
X110019721Y-77712204D01*
X109862365Y-77589729D01*
X109824240Y-77539985D01*
X109815312Y-77477950D01*
X109837861Y-77419472D01*
X109886127Y-77379492D01*
X109897830Y-77374035D01*
X110091401Y-77238495D01*
X110258495Y-77071401D01*
X110388424Y-76885842D01*
X110432743Y-76846976D01*
X110490000Y-76832965D01*
X110547257Y-76846976D01*
X110591575Y-76885842D01*
X110718395Y-77066961D01*
X110718401Y-77066968D01*
X110721505Y-77071401D01*
X110888599Y-77238495D01*
X110893031Y-77241598D01*
X110893033Y-77241600D01*
X111018189Y-77329235D01*
X111082170Y-77374035D01*
X111087070Y-77376320D01*
X111087072Y-77376321D01*
X111105303Y-77384822D01*
X111296337Y-77473903D01*
X111301567Y-77475304D01*
X111301569Y-77475305D01*
X111313590Y-77478526D01*
X111524592Y-77535063D01*
X111760000Y-77555659D01*
X111995408Y-77535063D01*
X112223663Y-77473903D01*
X112437830Y-77374035D01*
X112631401Y-77238495D01*
X112798495Y-77071401D01*
X112928424Y-76885842D01*
X112972743Y-76846976D01*
X113030000Y-76832965D01*
X113087257Y-76846976D01*
X113131575Y-76885842D01*
X113258395Y-77066961D01*
X113258401Y-77066968D01*
X113261505Y-77071401D01*
X113428599Y-77238495D01*
X113433031Y-77241598D01*
X113433033Y-77241600D01*
X113558189Y-77329235D01*
X113622170Y-77374035D01*
X113627070Y-77376320D01*
X113627072Y-77376321D01*
X113645303Y-77384822D01*
X113836337Y-77473903D01*
X113841567Y-77475304D01*
X113841569Y-77475305D01*
X113853590Y-77478526D01*
X114064592Y-77535063D01*
X114300000Y-77555659D01*
X114535408Y-77535063D01*
X114763663Y-77473903D01*
X114977830Y-77374035D01*
X115171401Y-77238495D01*
X115338495Y-77071401D01*
X115468424Y-76885842D01*
X115512743Y-76846976D01*
X115570000Y-76832965D01*
X115627257Y-76846976D01*
X115671575Y-76885842D01*
X115798395Y-77066961D01*
X115798401Y-77066968D01*
X115801505Y-77071401D01*
X115968599Y-77238495D01*
X115973031Y-77241598D01*
X115973033Y-77241600D01*
X116098189Y-77329235D01*
X116162170Y-77374035D01*
X116167070Y-77376320D01*
X116167072Y-77376321D01*
X116185303Y-77384822D01*
X116376337Y-77473903D01*
X116381567Y-77475304D01*
X116381569Y-77475305D01*
X116393590Y-77478526D01*
X116604592Y-77535063D01*
X116840000Y-77555659D01*
X117075408Y-77535063D01*
X117303663Y-77473903D01*
X117517830Y-77374035D01*
X117711401Y-77238495D01*
X117878495Y-77071401D01*
X118008730Y-76885405D01*
X118053048Y-76846540D01*
X118110305Y-76832529D01*
X118167562Y-76846540D01*
X118211880Y-76885405D01*
X118338784Y-77066643D01*
X118345721Y-77074909D01*
X118505090Y-77234278D01*
X118513356Y-77241215D01*
X118697991Y-77370498D01*
X118707323Y-77375886D01*
X118911602Y-77471143D01*
X118921736Y-77474831D01*
X119116219Y-77526943D01*
X119127448Y-77527311D01*
X119130000Y-77516369D01*
X119130000Y-74883631D01*
X119127448Y-74872688D01*
X119116219Y-74873056D01*
X118921736Y-74925168D01*
X118911602Y-74928856D01*
X118707332Y-75024110D01*
X118697982Y-75029508D01*
X118513357Y-75158784D01*
X118505092Y-75165719D01*
X118345719Y-75325092D01*
X118338788Y-75333352D01*
X118211880Y-75514596D01*
X118167562Y-75553461D01*
X118110305Y-75567472D01*
X118053048Y-75553461D01*
X118008730Y-75514595D01*
X118008425Y-75514159D01*
X117878495Y-75328599D01*
X117711401Y-75161505D01*
X117706970Y-75158402D01*
X117706966Y-75158399D01*
X117522259Y-75029066D01*
X117522257Y-75029064D01*
X117517830Y-75025965D01*
X117512933Y-75023681D01*
X117512927Y-75023678D01*
X117308572Y-74928386D01*
X117308570Y-74928385D01*
X117303663Y-74926097D01*
X117298438Y-74924697D01*
X117298430Y-74924694D01*
X117080634Y-74866337D01*
X117080630Y-74866336D01*
X117075408Y-74864937D01*
X117070020Y-74864465D01*
X117070017Y-74864465D01*
X116845395Y-74844813D01*
X116840000Y-74844341D01*
X116834605Y-74844813D01*
X116609982Y-74864465D01*
X116609977Y-74864465D01*
X116604592Y-74864937D01*
X116599371Y-74866335D01*
X116599365Y-74866337D01*
X116381569Y-74924694D01*
X116381557Y-74924698D01*
X116376337Y-74926097D01*
X116371432Y-74928383D01*
X116371427Y-74928386D01*
X116167081Y-75023675D01*
X116167077Y-75023677D01*
X116162171Y-75025965D01*
X116157738Y-75029068D01*
X116157731Y-75029073D01*
X115973034Y-75158399D01*
X115973029Y-75158402D01*
X115968599Y-75161505D01*
X115964775Y-75165328D01*
X115964769Y-75165334D01*
X115805334Y-75324769D01*
X115805328Y-75324775D01*
X115801505Y-75328599D01*
X115798402Y-75333029D01*
X115798399Y-75333034D01*
X115671575Y-75514159D01*
X115627257Y-75553025D01*
X115570000Y-75567036D01*
X115512743Y-75553025D01*
X115468425Y-75514159D01*
X115362602Y-75363028D01*
X115338495Y-75328599D01*
X115171401Y-75161505D01*
X115166970Y-75158402D01*
X115166966Y-75158399D01*
X114982259Y-75029066D01*
X114982257Y-75029064D01*
X114977830Y-75025965D01*
X114972933Y-75023681D01*
X114972927Y-75023678D01*
X114768572Y-74928386D01*
X114768570Y-74928385D01*
X114763663Y-74926097D01*
X114758438Y-74924697D01*
X114758430Y-74924694D01*
X114540634Y-74866337D01*
X114540630Y-74866336D01*
X114535408Y-74864937D01*
X114530020Y-74864465D01*
X114530017Y-74864465D01*
X114305395Y-74844813D01*
X114300000Y-74844341D01*
X114294605Y-74844813D01*
X114069982Y-74864465D01*
X114069977Y-74864465D01*
X114064592Y-74864937D01*
X114059371Y-74866335D01*
X114059365Y-74866337D01*
X113841569Y-74924694D01*
X113841557Y-74924698D01*
X113836337Y-74926097D01*
X113831432Y-74928383D01*
X113831427Y-74928386D01*
X113627081Y-75023675D01*
X113627077Y-75023677D01*
X113622171Y-75025965D01*
X113617738Y-75029068D01*
X113617731Y-75029073D01*
X113433034Y-75158399D01*
X113433029Y-75158402D01*
X113428599Y-75161505D01*
X113424775Y-75165328D01*
X113424769Y-75165334D01*
X113265334Y-75324769D01*
X113265328Y-75324775D01*
X113261505Y-75328599D01*
X113258402Y-75333029D01*
X113258399Y-75333034D01*
X113131575Y-75514159D01*
X113087257Y-75553025D01*
X113030000Y-75567036D01*
X112972743Y-75553025D01*
X112928425Y-75514159D01*
X112822602Y-75363028D01*
X112798495Y-75328599D01*
X112631401Y-75161505D01*
X112626970Y-75158402D01*
X112626966Y-75158399D01*
X112442259Y-75029066D01*
X112442257Y-75029064D01*
X112437830Y-75025965D01*
X112432933Y-75023681D01*
X112432927Y-75023678D01*
X112228572Y-74928386D01*
X112228570Y-74928385D01*
X112223663Y-74926097D01*
X112218438Y-74924697D01*
X112218430Y-74924694D01*
X112000634Y-74866337D01*
X112000630Y-74866336D01*
X111995408Y-74864937D01*
X111990020Y-74864465D01*
X111990017Y-74864465D01*
X111765395Y-74844813D01*
X111760000Y-74844341D01*
X111754605Y-74844813D01*
X111529982Y-74864465D01*
X111529977Y-74864465D01*
X111524592Y-74864937D01*
X111519371Y-74866335D01*
X111519365Y-74866337D01*
X111301569Y-74924694D01*
X111301557Y-74924698D01*
X111296337Y-74926097D01*
X111291432Y-74928383D01*
X111291427Y-74928386D01*
X111087081Y-75023675D01*
X111087077Y-75023677D01*
X111082171Y-75025965D01*
X111077738Y-75029068D01*
X111077731Y-75029073D01*
X110893034Y-75158399D01*
X110893029Y-75158402D01*
X110888599Y-75161505D01*
X110884775Y-75165328D01*
X110884769Y-75165334D01*
X110725334Y-75324769D01*
X110725328Y-75324775D01*
X110721505Y-75328599D01*
X110718402Y-75333029D01*
X110718399Y-75333034D01*
X110591575Y-75514159D01*
X110547257Y-75553025D01*
X110490000Y-75567036D01*
X110432743Y-75553025D01*
X110388425Y-75514159D01*
X110282602Y-75363028D01*
X110258495Y-75328599D01*
X110091401Y-75161505D01*
X110086970Y-75158402D01*
X110086966Y-75158399D01*
X109902259Y-75029066D01*
X109902257Y-75029064D01*
X109897830Y-75025965D01*
X109892933Y-75023681D01*
X109892927Y-75023678D01*
X109688572Y-74928386D01*
X109688570Y-74928385D01*
X109683663Y-74926097D01*
X109678438Y-74924697D01*
X109678430Y-74924694D01*
X109460634Y-74866337D01*
X109460630Y-74866336D01*
X109455408Y-74864937D01*
X109450020Y-74864465D01*
X109450017Y-74864465D01*
X109225395Y-74844813D01*
X109220000Y-74844341D01*
X109214605Y-74844813D01*
X108989982Y-74864465D01*
X108989977Y-74864465D01*
X108984592Y-74864937D01*
X108979371Y-74866335D01*
X108979365Y-74866337D01*
X108761569Y-74924694D01*
X108761557Y-74924698D01*
X108756337Y-74926097D01*
X108751432Y-74928383D01*
X108751427Y-74928386D01*
X108547081Y-75023675D01*
X108547077Y-75023677D01*
X108542171Y-75025965D01*
X108537738Y-75029068D01*
X108537731Y-75029073D01*
X108353034Y-75158399D01*
X108353029Y-75158402D01*
X108348599Y-75161505D01*
X108344775Y-75165328D01*
X108344769Y-75165334D01*
X108185334Y-75324769D01*
X108185328Y-75324775D01*
X108181505Y-75328599D01*
X108178402Y-75333029D01*
X108178399Y-75333034D01*
X108051575Y-75514159D01*
X108007257Y-75553025D01*
X107950000Y-75567036D01*
X107892743Y-75553025D01*
X107848425Y-75514159D01*
X107742602Y-75363028D01*
X107718495Y-75328599D01*
X107551401Y-75161505D01*
X107546970Y-75158402D01*
X107546966Y-75158399D01*
X107362259Y-75029066D01*
X107362257Y-75029064D01*
X107357830Y-75025965D01*
X107352933Y-75023681D01*
X107352927Y-75023678D01*
X107148572Y-74928386D01*
X107148570Y-74928385D01*
X107143663Y-74926097D01*
X107138438Y-74924697D01*
X107138430Y-74924694D01*
X106920634Y-74866337D01*
X106920630Y-74866336D01*
X106915408Y-74864937D01*
X106910020Y-74864465D01*
X106910017Y-74864465D01*
X106685395Y-74844813D01*
X106680000Y-74844341D01*
X106674605Y-74844813D01*
X106449982Y-74864465D01*
X106449977Y-74864465D01*
X106444592Y-74864937D01*
X106439371Y-74866335D01*
X106439365Y-74866337D01*
X106221569Y-74924694D01*
X106221557Y-74924698D01*
X106216337Y-74926097D01*
X106211432Y-74928383D01*
X106211427Y-74928386D01*
X106007081Y-75023675D01*
X106007077Y-75023677D01*
X106002171Y-75025965D01*
X105997738Y-75029068D01*
X105997731Y-75029073D01*
X105813034Y-75158399D01*
X105813029Y-75158402D01*
X105808599Y-75161505D01*
X105804775Y-75165328D01*
X105804769Y-75165334D01*
X105645334Y-75324769D01*
X105645328Y-75324775D01*
X105641505Y-75328599D01*
X105638402Y-75333029D01*
X105638399Y-75333034D01*
X105567597Y-75434151D01*
X105520380Y-75474478D01*
X105459532Y-75486858D01*
X105400312Y-75468186D01*
X105357569Y-75423144D01*
X105342022Y-75363028D01*
X105342022Y-73793848D01*
X105358628Y-73731861D01*
X105403997Y-73686476D01*
X105465978Y-73669848D01*
X106230841Y-73669576D01*
X106292860Y-73686174D01*
X106338265Y-73731563D01*
X106354885Y-73793576D01*
X106354885Y-74188568D01*
X110075274Y-74188568D01*
X110091600Y-74188568D01*
X110091600Y-73792160D01*
X110108206Y-73730173D01*
X110153575Y-73684788D01*
X110215556Y-73668160D01*
X157866370Y-73651227D01*
X157928389Y-73667825D01*
X157973794Y-73713214D01*
X157990414Y-73775227D01*
X157990414Y-74154276D01*
X161710803Y-74154276D01*
X161727129Y-74154276D01*
X161727129Y-73773811D01*
X161743734Y-73711824D01*
X161789104Y-73666439D01*
X161851085Y-73649811D01*
X162467425Y-73649591D01*
X163090635Y-73649370D01*
X163152654Y-73665968D01*
G37*
%TD.AperFunction*%
%TD*%
M02*
