%TF.GenerationSoftware,KiCad,Pcbnew,(7.0.0)*%
%TF.CreationDate,2023-03-09T18:41:40-05:00*%
%TF.ProjectId,Intervalometer,496e7465-7276-4616-9c6f-6d657465722e,rev?*%
%TF.SameCoordinates,Original*%
%TF.FileFunction,Copper,L1,Top*%
%TF.FilePolarity,Positive*%
%FSLAX46Y46*%
G04 Gerber Fmt 4.6, Leading zero omitted, Abs format (unit mm)*
G04 Created by KiCad (PCBNEW (7.0.0)) date 2023-03-09 18:41:40*
%MOMM*%
%LPD*%
G01*
G04 APERTURE LIST*
%TA.AperFunction,ComponentPad*%
%ADD10R,1.530000X1.530000*%
%TD*%
%TA.AperFunction,ComponentPad*%
%ADD11C,1.530000*%
%TD*%
%TA.AperFunction,ComponentPad*%
%ADD12R,1.508000X1.508000*%
%TD*%
%TA.AperFunction,ComponentPad*%
%ADD13C,1.508000*%
%TD*%
%TA.AperFunction,ComponentPad*%
%ADD14C,2.400000*%
%TD*%
%TA.AperFunction,ComponentPad*%
%ADD15R,1.700000X1.700000*%
%TD*%
%TA.AperFunction,ComponentPad*%
%ADD16O,1.700000X1.700000*%
%TD*%
%TA.AperFunction,ComponentPad*%
%ADD17R,2.800000X2.800000*%
%TD*%
%TA.AperFunction,ComponentPad*%
%ADD18C,1.800000*%
%TD*%
%TA.AperFunction,ViaPad*%
%ADD19C,0.800000*%
%TD*%
G04 APERTURE END LIST*
D10*
%TO.P,U2,1,3V3*%
%TO.N,+3.3V*%
X152389999Y-76189999D03*
D11*
%TO.P,U2,2,EN*%
%TO.N,Net-(J9-Pin_2)*%
X149850000Y-76190000D03*
%TO.P,U2,3,SENSOR_VP*%
%TO.N,Net-(J9-Pin_3)*%
X147310000Y-76190000D03*
%TO.P,U2,4,SENSOR_VN*%
%TO.N,Net-(J9-Pin_4)*%
X144770000Y-76190000D03*
%TO.P,U2,5,IO34*%
%TO.N,Net-(J9-Pin_5)*%
X142230000Y-76190000D03*
%TO.P,U2,6,IO35*%
%TO.N,Net-(J9-Pin_6)*%
X139690000Y-76190000D03*
%TO.P,U2,7,IO32*%
%TO.N,Net-(J9-Pin_7)*%
X137150000Y-76190000D03*
%TO.P,U2,8,IO33*%
%TO.N,Net-(J9-Pin_8)*%
X134610000Y-76190000D03*
%TO.P,U2,9,IO25*%
%TO.N,Net-(J9-Pin_9)*%
X132070000Y-76190000D03*
%TO.P,U2,10,IO26*%
%TO.N,Net-(J9-Pin_10)*%
X129530000Y-76190000D03*
%TO.P,U2,11,IO27*%
%TO.N,Net-(J9-Pin_11)*%
X126990000Y-76190000D03*
%TO.P,U2,12,IO14*%
%TO.N,Net-(J9-Pin_12)*%
X124450000Y-76190000D03*
%TO.P,U2,13,IO12*%
%TO.N,Net-(J9-Pin_13)*%
X121910000Y-76190000D03*
%TO.P,U2,14,GND1*%
%TO.N,GND*%
X119370000Y-76190000D03*
%TO.P,U2,15,IO13*%
%TO.N,Net-(J9-Pin_15)*%
X116830000Y-76190000D03*
%TO.P,U2,16,SD2*%
%TO.N,Net-(J9-Pin_16)*%
X114290000Y-76190000D03*
%TO.P,U2,17,SD3*%
%TO.N,Net-(J9-Pin_17)*%
X111750000Y-76190000D03*
%TO.P,U2,18,CMD*%
%TO.N,Net-(J9-Pin_18)*%
X109210000Y-76190000D03*
%TO.P,U2,19,EXT_5V*%
%TO.N,+5V*%
X106670000Y-76190000D03*
%TO.P,U2,20,CLK*%
%TO.N,Net-(J10-Pin_19)*%
X106670000Y-99050000D03*
%TO.P,U2,21,SD0*%
%TO.N,Net-(J10-Pin_18)*%
X109210000Y-99050000D03*
%TO.P,U2,22,SD1*%
%TO.N,Net-(J10-Pin_17)*%
X111750000Y-99050000D03*
%TO.P,U2,23,IO15*%
%TO.N,Net-(J10-Pin_16)*%
X114290000Y-99050000D03*
%TO.P,U2,24,IO2*%
%TO.N,Net-(J10-Pin_15)*%
X116830000Y-99050000D03*
%TO.P,U2,25,IO0*%
%TO.N,Net-(J10-Pin_14)*%
X119370000Y-99050000D03*
%TO.P,U2,26,IO4*%
%TO.N,+3.3V*%
X121910000Y-99050000D03*
%TO.P,U2,27,IO16*%
%TO.N,Net-(J10-Pin_12)*%
X124450000Y-99050000D03*
%TO.P,U2,28,IO17*%
%TO.N,Net-(J10-Pin_11)*%
X126990000Y-99050000D03*
%TO.P,U2,29,IO5*%
%TO.N,Net-(J10-Pin_10)*%
X129530000Y-99050000D03*
%TO.P,U2,30,IO18*%
%TO.N,Net-(J10-Pin_9)*%
X132070000Y-99050000D03*
%TO.P,U2,31,IO19*%
%TO.N,Net-(J10-Pin_8)*%
X134610000Y-99050000D03*
%TO.P,U2,32,GND2*%
%TO.N,GND*%
X137150000Y-99050000D03*
%TO.P,U2,33,IO21*%
%TO.N,Net-(J10-Pin_6)*%
X139690000Y-99050000D03*
%TO.P,U2,34,RXD0*%
%TO.N,Net-(J10-Pin_5)*%
X142230000Y-99050000D03*
%TO.P,U2,35,TXD0*%
%TO.N,Net-(J10-Pin_4)*%
X144770000Y-99050000D03*
%TO.P,U2,36,IO22*%
%TO.N,Net-(J10-Pin_3)*%
X147310000Y-99050000D03*
%TO.P,U2,37,IO23*%
%TO.N,Net-(J10-Pin_2)*%
X149850000Y-99050000D03*
%TO.P,U2,38,GND3*%
%TO.N,GND*%
X152390000Y-99050000D03*
%TD*%
D12*
%TO.P,U1,1,32K*%
%TO.N,unconnected-(U1-32K-Pad1)*%
X156206450Y-93876524D03*
D13*
%TO.P,U1,2,SQW*%
%TO.N,unconnected-(U1-SQW-Pad2)*%
X156206451Y-91336525D03*
%TO.P,U1,3,SCL*%
%TO.N,Net-(J10-Pin_3)*%
X156206451Y-88796525D03*
%TO.P,U1,4,SDA*%
%TO.N,Net-(J10-Pin_6)*%
X156206451Y-86256525D03*
%TO.P,U1,5,VCC*%
%TO.N,+3.3V*%
X156206451Y-83716525D03*
%TO.P,U1,6,GND*%
%TO.N,GND*%
X156206451Y-81176525D03*
%TD*%
D14*
%TO.P,J6,1,Pin_1*%
%TO.N,Net-(J12-Pin_1)*%
X149263100Y-81108811D03*
%TD*%
%TO.P,J5,1,Pin_1*%
%TO.N,Net-(J14-Pin_1)*%
X149263100Y-86188811D03*
%TD*%
D15*
%TO.P,J10,1,Pin_1*%
%TO.N,GND*%
X152399999Y-99059999D03*
D16*
%TO.P,J10,2,Pin_2*%
%TO.N,Net-(J10-Pin_2)*%
X149859999Y-99059999D03*
%TO.P,J10,3,Pin_3*%
%TO.N,Net-(J10-Pin_3)*%
X147319999Y-99059999D03*
%TO.P,J10,4,Pin_4*%
%TO.N,Net-(J10-Pin_4)*%
X144779999Y-99059999D03*
%TO.P,J10,5,Pin_5*%
%TO.N,Net-(J10-Pin_5)*%
X142239999Y-99059999D03*
%TO.P,J10,6,Pin_6*%
%TO.N,Net-(J10-Pin_6)*%
X139699999Y-99059999D03*
%TO.P,J10,7,Pin_7*%
%TO.N,GND*%
X137159999Y-99059999D03*
%TO.P,J10,8,Pin_8*%
%TO.N,Net-(J10-Pin_8)*%
X134619999Y-99059999D03*
%TO.P,J10,9,Pin_9*%
%TO.N,Net-(J10-Pin_9)*%
X132079999Y-99059999D03*
%TO.P,J10,10,Pin_10*%
%TO.N,Net-(J10-Pin_10)*%
X129539999Y-99059999D03*
%TO.P,J10,11,Pin_11*%
%TO.N,Net-(J10-Pin_11)*%
X126999999Y-99059999D03*
%TO.P,J10,12,Pin_12*%
%TO.N,Net-(J10-Pin_12)*%
X124459999Y-99059999D03*
%TO.P,J10,13,Pin_13*%
%TO.N,+3.3V*%
X121919999Y-99059999D03*
%TO.P,J10,14,Pin_14*%
%TO.N,Net-(J10-Pin_14)*%
X119379999Y-99059999D03*
%TO.P,J10,15,Pin_15*%
%TO.N,Net-(J10-Pin_15)*%
X116839999Y-99059999D03*
%TO.P,J10,16,Pin_16*%
%TO.N,Net-(J10-Pin_16)*%
X114299999Y-99059999D03*
%TO.P,J10,17,Pin_17*%
%TO.N,Net-(J10-Pin_17)*%
X111759999Y-99059999D03*
%TO.P,J10,18,Pin_18*%
%TO.N,Net-(J10-Pin_18)*%
X109219999Y-99059999D03*
%TO.P,J10,19,Pin_19*%
%TO.N,Net-(J10-Pin_19)*%
X106679999Y-99059999D03*
%TD*%
D15*
%TO.P,J9,1,Pin_1*%
%TO.N,+3.3V*%
X152399999Y-76199999D03*
D16*
%TO.P,J9,2,Pin_2*%
%TO.N,Net-(J9-Pin_2)*%
X149859999Y-76199999D03*
%TO.P,J9,3,Pin_3*%
%TO.N,Net-(J9-Pin_3)*%
X147319999Y-76199999D03*
%TO.P,J9,4,Pin_4*%
%TO.N,Net-(J9-Pin_4)*%
X144779999Y-76199999D03*
%TO.P,J9,5,Pin_5*%
%TO.N,Net-(J9-Pin_5)*%
X142239999Y-76199999D03*
%TO.P,J9,6,Pin_6*%
%TO.N,Net-(J9-Pin_6)*%
X139699999Y-76199999D03*
%TO.P,J9,7,Pin_7*%
%TO.N,Net-(J9-Pin_7)*%
X137159999Y-76199999D03*
%TO.P,J9,8,Pin_8*%
%TO.N,Net-(J9-Pin_8)*%
X134619999Y-76199999D03*
%TO.P,J9,9,Pin_9*%
%TO.N,Net-(J9-Pin_9)*%
X132079999Y-76199999D03*
%TO.P,J9,10,Pin_10*%
%TO.N,Net-(J9-Pin_10)*%
X129539999Y-76199999D03*
%TO.P,J9,11,Pin_11*%
%TO.N,Net-(J9-Pin_11)*%
X126999999Y-76199999D03*
%TO.P,J9,12,Pin_12*%
%TO.N,Net-(J9-Pin_12)*%
X124459999Y-76199999D03*
%TO.P,J9,13,Pin_13*%
%TO.N,Net-(J9-Pin_13)*%
X121919999Y-76199999D03*
%TO.P,J9,14,Pin_14*%
%TO.N,GND*%
X119379999Y-76199999D03*
%TO.P,J9,15,Pin_15*%
%TO.N,Net-(J9-Pin_15)*%
X116839999Y-76199999D03*
%TO.P,J9,16,Pin_16*%
%TO.N,Net-(J9-Pin_16)*%
X114299999Y-76199999D03*
%TO.P,J9,17,Pin_17*%
%TO.N,Net-(J9-Pin_17)*%
X111759999Y-76199999D03*
%TO.P,J9,18,Pin_18*%
%TO.N,Net-(J9-Pin_18)*%
X109219999Y-76199999D03*
%TO.P,J9,19,Pin_19*%
%TO.N,+5V*%
X106679999Y-76199999D03*
%TD*%
D15*
%TO.P,J14,1,Pin_1*%
%TO.N,Net-(J14-Pin_1)*%
X138383437Y-91262263D03*
%TD*%
%TO.P,J13,1,Pin_1*%
%TO.N,+4V*%
X138390983Y-94769935D03*
%TD*%
%TO.P,J12,1,Pin_1*%
%TO.N,Net-(J12-Pin_1)*%
X138357667Y-83674214D03*
%TD*%
%TO.P,J11,1,Pin_1*%
%TO.N,GND*%
X138389337Y-80265283D03*
%TD*%
%TO.P,J7,1,Pin_1*%
%TO.N,GND*%
X161236544Y-80557198D03*
%TD*%
%TO.P,J8,1,Pin_1*%
%TO.N,Net-(J8-Pin_1)*%
X161250993Y-94780291D03*
%TD*%
%TO.P,J4,1,Pin_1*%
%TO.N,+4V*%
X132382790Y-90035467D03*
D16*
%TO.P,J4,2,Pin_2*%
%TO.N,GND*%
X132382790Y-87495467D03*
%TO.P,J4,3,Pin_3*%
%TO.N,+5V*%
X132382790Y-84955467D03*
%TD*%
D17*
%TO.P,U3,1,in_USB_5v*%
%TO.N,Net-(J8-Pin_1)*%
X161267858Y-94770044D03*
%TO.P,U3,2,GND*%
%TO.N,GND*%
X161267858Y-80570044D03*
%TO.P,U3,3,Out_+*%
%TO.N,+4V*%
X138367858Y-94770044D03*
%TO.P,U3,4,Out_-*%
%TO.N,GND*%
X138367858Y-80270044D03*
%TO.P,U3,5,Bat_+*%
%TO.N,Net-(J14-Pin_1)*%
X138367858Y-91270044D03*
%TO.P,U3,6,Bat_-*%
%TO.N,Net-(J12-Pin_1)*%
X138367858Y-83670044D03*
%TD*%
D18*
%TO.P,J1,R*%
%TO.N,unconnected-(J1-PadR)*%
X109071992Y-85219026D03*
%TO.P,J1,S*%
%TO.N,GND*%
X107025855Y-89823643D03*
%TO.P,J1,T*%
%TO.N,Net-(Q2-C)*%
X115656745Y-87513036D03*
%TD*%
%TO.P,J3,R*%
%TO.N,unconnected-(J3-PadR)*%
X109116876Y-91741977D03*
%TO.P,J3,S*%
%TO.N,GND*%
X107070739Y-96346594D03*
%TO.P,J3,T*%
%TO.N,Net-(J3-PadT)*%
X115701629Y-94035987D03*
%TD*%
%TO.P,J2,R*%
%TO.N,unconnected-(J2-PadR)*%
X109071992Y-78749274D03*
%TO.P,J2,S*%
%TO.N,GND*%
X107025855Y-83353891D03*
%TO.P,J2,T*%
%TO.N,Net-(Q1-C)*%
X115656745Y-81043284D03*
%TD*%
D19*
%TO.N,*%
X108456214Y-72555239D03*
X108448526Y-102872975D03*
X160060917Y-102861341D03*
X160074556Y-72555239D03*
%TD*%
M02*
