%TF.GenerationSoftware,KiCad,Pcbnew,(7.0.0)*%
%TF.CreationDate,2023-03-09T18:41:40-05:00*%
%TF.ProjectId,Intervalometer,496e7465-7276-4616-9c6f-6d657465722e,rev?*%
%TF.SameCoordinates,Original*%
%TF.FileFunction,Soldermask,Top*%
%TF.FilePolarity,Negative*%
%FSLAX46Y46*%
G04 Gerber Fmt 4.6, Leading zero omitted, Abs format (unit mm)*
G04 Created by KiCad (PCBNEW (7.0.0)) date 2023-03-09 18:41:40*
%MOMM*%
%LPD*%
G01*
G04 APERTURE LIST*
%ADD10R,1.530000X1.530000*%
%ADD11C,1.530000*%
%ADD12R,1.508000X1.508000*%
%ADD13C,1.508000*%
%ADD14C,2.400000*%
%ADD15R,1.700000X1.700000*%
%ADD16O,1.700000X1.700000*%
%ADD17R,2.800000X2.800000*%
%ADD18C,1.800000*%
G04 APERTURE END LIST*
D10*
%TO.C,U2*%
X152389999Y-76189999D03*
D11*
X149850000Y-76190000D03*
X147310000Y-76190000D03*
X144770000Y-76190000D03*
X142230000Y-76190000D03*
X139690000Y-76190000D03*
X137150000Y-76190000D03*
X134610000Y-76190000D03*
X132070000Y-76190000D03*
X129530000Y-76190000D03*
X126990000Y-76190000D03*
X124450000Y-76190000D03*
X121910000Y-76190000D03*
X119370000Y-76190000D03*
X116830000Y-76190000D03*
X114290000Y-76190000D03*
X111750000Y-76190000D03*
X109210000Y-76190000D03*
X106670000Y-76190000D03*
X106670000Y-99050000D03*
X109210000Y-99050000D03*
X111750000Y-99050000D03*
X114290000Y-99050000D03*
X116830000Y-99050000D03*
X119370000Y-99050000D03*
X121910000Y-99050000D03*
X124450000Y-99050000D03*
X126990000Y-99050000D03*
X129530000Y-99050000D03*
X132070000Y-99050000D03*
X134610000Y-99050000D03*
X137150000Y-99050000D03*
X139690000Y-99050000D03*
X142230000Y-99050000D03*
X144770000Y-99050000D03*
X147310000Y-99050000D03*
X149850000Y-99050000D03*
X152390000Y-99050000D03*
%TD*%
D12*
%TO.C,U1*%
X156206450Y-93876524D03*
D13*
X156206451Y-91336525D03*
X156206451Y-88796525D03*
X156206451Y-86256525D03*
X156206451Y-83716525D03*
X156206451Y-81176525D03*
%TD*%
D14*
%TO.C,J6*%
X149263100Y-81108811D03*
%TD*%
%TO.C,J5*%
X149263100Y-86188811D03*
%TD*%
D15*
%TO.C,J10*%
X152399999Y-99059999D03*
D16*
X149859999Y-99059999D03*
X147319999Y-99059999D03*
X144779999Y-99059999D03*
X142239999Y-99059999D03*
X139699999Y-99059999D03*
X137159999Y-99059999D03*
X134619999Y-99059999D03*
X132079999Y-99059999D03*
X129539999Y-99059999D03*
X126999999Y-99059999D03*
X124459999Y-99059999D03*
X121919999Y-99059999D03*
X119379999Y-99059999D03*
X116839999Y-99059999D03*
X114299999Y-99059999D03*
X111759999Y-99059999D03*
X109219999Y-99059999D03*
X106679999Y-99059999D03*
%TD*%
D15*
%TO.C,J9*%
X152399999Y-76199999D03*
D16*
X149859999Y-76199999D03*
X147319999Y-76199999D03*
X144779999Y-76199999D03*
X142239999Y-76199999D03*
X139699999Y-76199999D03*
X137159999Y-76199999D03*
X134619999Y-76199999D03*
X132079999Y-76199999D03*
X129539999Y-76199999D03*
X126999999Y-76199999D03*
X124459999Y-76199999D03*
X121919999Y-76199999D03*
X119379999Y-76199999D03*
X116839999Y-76199999D03*
X114299999Y-76199999D03*
X111759999Y-76199999D03*
X109219999Y-76199999D03*
X106679999Y-76199999D03*
%TD*%
D15*
%TO.C,J14*%
X138383437Y-91262263D03*
%TD*%
%TO.C,J13*%
X138390983Y-94769935D03*
%TD*%
%TO.C,J12*%
X138357667Y-83674214D03*
%TD*%
%TO.C,J11*%
X138389337Y-80265283D03*
%TD*%
%TO.C,J7*%
X161236544Y-80557198D03*
%TD*%
%TO.C,J8*%
X161250993Y-94780291D03*
%TD*%
%TO.C,J4*%
X132382790Y-90035467D03*
D16*
X132382790Y-87495467D03*
X132382790Y-84955467D03*
%TD*%
D17*
%TO.C,U3*%
X161267858Y-94770044D03*
X161267858Y-80570044D03*
X138367858Y-94770044D03*
X138367858Y-80270044D03*
X138367858Y-91270044D03*
X138367858Y-83670044D03*
%TD*%
D18*
%TO.C,J1*%
X109071992Y-85219026D03*
X107025855Y-89823643D03*
X115656745Y-87513036D03*
%TD*%
%TO.C,J3*%
X109116876Y-91741977D03*
X107070739Y-96346594D03*
X115701629Y-94035987D03*
%TD*%
%TO.C,J2*%
X109071992Y-78749274D03*
X107025855Y-83353891D03*
X115656745Y-81043284D03*
%TD*%
M02*
